<?xml version="1.0" encoding="utf-8"?>
<!-- Generator: Adobe Illustrator 23.0.2, SVG Export Plug-In . SVG Version: 6.00 Build 0)  -->
<svg version="1.1" id="Layer_1" xmlns="http://www.w3.org/2000/svg" xmlns:xlink="http://www.w3.org/1999/xlink" x="0px" y="0px"
	 viewBox="0 0 828 211.7" width="828" height="211.7" xml:space="preserve">
<style type="text/css">
	.st0{fill:#ffffff;}
</style>
<g>
	<path class="st0" d="M500.4,142.1c-10,0-19.1-0.9-25.9-2.5c-6.6-2.5-12.5-5-15.9-8.4c-4.1-4.1-7.5-9.1-9.1-15
		c-1.6-5.9-2.5-13.4-2.5-22.5V49.8c0-3.4,0-7.5,0.9-10.9h31.6c0,0.9,0,1.6-0.9,1.6c0,3.4-0.9,6.6-0.9,10.9V93
		c0,4.1,0.9,7.5,0.9,10.9c0.9,2.5,2.5,5,4.1,6.6c1.6,1.6,4.1,3.4,7.5,3.4c2.5,0.9,6.6,1.6,11.6,1.6h95.1v26.6H500.4z M449.7,28.8
		v-0.9c1.6-6.6,5-11.6,9.1-15c3.4-4.1,9.1-6.6,15.9-8.4c6.6-1.6,15.9-2.5,25.9-2.5h96.7v26.6h-80.1h-15h-0.9l0,0h-51.6V28.8z"/>
	<polygon class="st0" points="617.1,142.1 617.1,2.2 647.8,2.2 647.8,142.1 	"/>
	<path class="st0" d="M722,142.1c-10.9,0-19.1-0.9-25.9-2.5c-6.6-2.5-12.5-5-16.6-8.4c-4.1-4.1-6.6-9.1-8.4-15
		c-1.6-5.9-2.5-13.4-2.5-22.5V49.8c0-3.4,0-7.5,0-10.9h31.6c0,0.9,0,0.9,0,1.6c-0.9,3.4-0.9,6.6-0.9,10.9V93c0,4.1,0,7.5,0.9,10.9
		s1.6,5,3.4,6.6c1.6,1.6,4.1,3.4,7.5,4.1c3.4,0,6.6,0.9,11.6,0.9h51c4.1,0,8.4-0.9,10.9-0.9c3.4-0.9,5.9-2.5,7.5-4.1
		c1.6-1.6,3.4-3.4,4.1-6.6c0.9-3.4,0.9-6.6,0.9-10.9V51.4c0-4.1,0-7.5-0.9-10.9c-0.9-2.5-2.5-5-4.1-6.6c-1.6-1.6-4.1-3.4-7.5-4.1
		c-2.5,0-6.6-0.9-10.9-0.9h-45h-5.9l0,0l0,0h-52.5l0.9-0.9c1.6-6.6,4.1-11.6,8.4-15c4.1-4.1,10-6.6,16.6-8.4
		c6.6-1.6,15-2.5,25.9-2.5h52.5c10.9,0,19.1,0.9,25.9,2.5c6.6,1.6,12.5,4.1,16.6,8.4c4.1,3.4,6.6,8.4,8.4,15
		c1.6,5.9,2.5,13.4,2.5,21.6v44.1c0,9.1-0.9,16.6-2.5,22.5c-1.6,5.9-4.1,10.9-8.4,15c-4.1,3.4-10,5.9-16.6,8.4
		c-6.6,1.6-15,2.5-25.9,2.5L722,142.1z"/>
	<path class="st0" d="M0.2,2.2h118.3c7.5,0,14.1,0.9,20,1.6c5.9,0.9,10,2.5,14.1,5c3.4,2.5,5.9,5.9,7.5,10s2.5,9.1,2.5,15v11.6
		c0,8.4-1.6,14.1-4.1,17.5c-3.4,3.4-6.6,5.9-10.9,7.5c1.6,0,4.1,0.9,6.6,2.5c1.6,0.9,3.4,2.5,5,5c1.6,1.6,2.5,5,3.4,8.4
		c0.9,3.4,1.6,7.5,1.6,12.5v12.5c0,5.9-0.9,10.9-2.5,14.1c-1.6,4.1-4.1,6.6-7.5,9.1c-3.4,2.5-8.4,4.1-13.4,5.9
		c-5.9,0.9-12.5,1.6-20.9,1.6H0.2V37.3h31.6v22.5h87.6c5,0,9.1-0.9,10.9-2.5c2.5-1.6,3.4-5,3.4-10v-8.4c0-4.1-1.6-7.5-4.1-9.1
		c-2.5-1.6-6.6-2.5-13.4-2.5h-56H31.9H0.2V2.2z M31.9,82.3v34.1h86.7c5.9,0,10-0.9,12.5-2.5c3.4-1.6,4.1-4.1,4.1-8.4v-9.1
		c0-5.9-0.9-9.1-3.4-11.6c-2.5-1.6-6.6-2.5-11.6-2.5C120.1,82.3,31.9,82.3,31.9,82.3z"/>
	<path class="st0" d="M289.1,142.1c-10.9,0-19.1-0.9-25.9-2.5c-6.6-2.5-12.5-5-16.6-8.4c-4.1-4.1-6.6-9.1-8.4-15
		c-1.6-5.9-2.5-13.4-2.5-22.5V49.8c0-3.4,0-7.5,0-10.9h32.5c0,0.9-0.9,1.6-0.9,1.6c-0.9,3.4-0.9,6.6-0.9,10.9V93
		c0,4.1,0,8.4,0.9,10.9c0.9,3.4,2.5,5,4.1,6.6c1.6,1.6,4.1,3.4,7.5,4.1c2.5,0,6.6,0.9,10.9,0.9h53.5c4.1,0,7.5-0.9,10.9-0.9
		c3.4-0.9,5-2.5,7.5-4.1c1.6-1.6,2.5-4.1,3.4-6.6c0.9-3.4,1.6-7.5,1.6-12.5v-5.9h-50V58.9h50h30.9v26.6v8.4c0,9.1-0.9,16.6-2.5,22.5
		c-1.6,5.9-4.1,10.9-8.4,15c-4.1,3.4-10,5.9-16.6,8.4c-6.6,1.6-15.9,2.5-25.9,2.5h-55V142.1z M237.5,28.8l0.9-0.9
		c1.6-6.6,4.1-11.6,8.4-15c4.1-4.1,10-6.6,16.6-8.4c6.6-1.6,15-2.5,25.9-2.5h108.3v26.6h-94.2H290l0,0l0,0h-52.5V28.8z"/>
	<polygon class="st0" points="184.7,142.1 184.7,2.2 215.4,2.2 215.4,142.1 	"/>
	<g>
		<g>
			<path class="st0" d="M111.7,210.1v-20H87.8h-13H63.5v-30.3h11.4v20.5h36.8v-20.5h11.1v50.5h-11.1V210.1z M74.9,193.8v16.6H63.5
				v-16.6H74.9z"/>
			<path class="st0" d="M123.3,210.8H111v-20H62.8v-31.6h12.5v20.5H111v-20.5h12.3C123.3,159.2,123.3,210.8,123.3,210.8z
				 M112.2,209.7h10v-49.4h-10v20.5h-38v-20.5H63.9v29.1h48.2V209.7z M75.3,210.8H62.8v-17.5h12.5V210.8z M63.9,209.7h10.2v-15.5
				H63.9V209.7z"/>
		</g>
		<g>
			<path class="st0" d="M0.7,210.1v-9.6h38.4c1.8,0,3.2-0.2,4.1-0.9c0.9-0.7,1.6-1.8,1.6-3.4v-2.7c0-1.8-0.7-2.7-1.6-3.6
				c-0.9-0.7-2.5-0.9-4.1-0.9H15.3c-2.7,0-5-0.2-6.8-0.9c-1.8-0.2-3.4-1.1-4.5-2c-0.9-1.1-1.8-2.5-2-4.1c-0.7-1.6-0.7-3.4-0.7-5.7
				v-2.5c0-0.2,0-0.7,0-0.9h10.2c0,0.2,0,0.9,0,1.1v1.8c0,1.6,0.2,2.7,0.9,3.4c0.9,0.7,2,0.9,3.9,0.9h23.7c2.7,0,5,0.2,6.8,0.9
				c2,0.2,3.6,1.1,4.8,2c1.1,1.1,2,2.5,2.7,3.9c0.7,1.8,0.9,3.6,0.9,5.9v3.9c0,2.5-0.2,4.5-0.9,5.9c-0.7,1.8-1.6,3-2.7,4.1
				c-1.1,0.9-2.7,1.6-4.8,2c-1.8,0.7-4.1,0.9-6.8,0.9H0.7V210.1z M1.4,169.4c0-0.9,0.2-1.6,0.2-2c0.7-1.8,1.6-3.4,2.7-4.1
				c0.9-1.1,2.5-2,4.1-2.7c1.8-0.2,4.1-0.7,6.6-0.7h39.8v9.6H25.5h-9.3l0,0L1.4,169.4z"/>
			<path class="st0" d="M39.8,210.8H0.2v-10.7h38.9c1.8,0,3.2-0.2,3.9-0.9c0.7-0.5,1.1-1.6,1.1-2.7v-2.7c0-1.6-0.5-2.3-1.4-3.2
				c-0.7-0.5-2-0.7-3.9-0.7H15.3c-2.7,0-5.2-0.2-7.1-0.9c-1.6-0.2-3.2-0.9-4.8-2.3l0,0l0,0c-0.9-1.1-1.8-2.5-2.3-4.3
				c-0.7-1.6-0.7-3.4-0.7-5.9v-3.9h11.4v3.6c0,1.4,0.2,2.3,0.7,3c0.9,0.5,1.8,0.7,3.6,0.7h23.7c2.7,0,5.2,0.2,7.1,0.9
				c2.3,0.2,3.9,1.4,5,2.3l0,0c1.4,1.4,2.3,2.7,2.7,4.1l0,0c0.7,2,0.9,3.9,0.9,6.1v3.9c0,2.5-0.2,4.8-0.9,6.1
				c-0.7,2-1.8,3.4-2.7,4.3l0,0c-1.1,0.9-2.5,1.6-5,2.3C45.1,210.4,42.6,210.8,39.8,210.8z M1.4,209.7h38.4c2.7,0,5-0.2,6.8-0.9l0,0
				c2.3-0.7,3.6-1.1,4.5-2c0.9-0.9,1.8-2,2.5-3.9l0,0c0.5-1.4,0.9-3.4,0.9-5.7v-3.9c0-2.3-0.2-4.1-0.9-5.9c-0.5-1.4-1.4-2.5-2.5-3.6
				c-1.1-0.7-2.5-1.6-4.5-2l0,0l0,0c-1.8-0.7-4.1-0.9-6.8-0.9H16.2c-1.8,0-3.2-0.2-4.3-0.9l0,0l0,0c-0.9-0.9-1.1-2.5-1.1-3.6v-2.5
				H1.6v2.7c0,2.3,0,4.1,0.5,5.5l0,0l0,0c0.2,1.6,1.1,2.7,2,3.9c1.4,1.1,2.7,1.8,4.1,2l0,0c1.8,0.7,4.1,0.9,6.8,0.9h23.9
				c2,0,3.6,0.5,4.5,0.9l0,0l0,0c1.1,1.1,1.6,2,1.6,4.1v2.7c0,1.6-0.7,3-1.8,3.9c-0.9,0.7-2.5,0.9-4.5,0.9H1.4V209.7z M55.8,169.9
				H0.9v-0.5c0-0.5,0-0.9,0.2-1.4c0-0.2,0.2-0.5,0.2-0.7l0,0l0,0c0.7-2,1.6-3.4,2.7-4.3c0.9-1.1,2.5-2.3,4.3-2.7l0,0
				c1.8-0.7,4.3-1.1,6.8-1.1h40.5V169.9z M2.1,168.7h52.5v-8.4H15.3c-2.5,0-4.8,0.2-6.4,0.7c-1.8,0.5-3.2,1.4-4.1,2.5l0,0l0,0
				c-0.9,0.7-1.8,2-2.5,3.9c0,0.2,0,0.7-0.2,0.9C2.1,168.5,2.1,168.7,2.1,168.7z"/>
		</g>
		<g>
			<path class="st0" d="M151.7,210.1c-3.9,0-6.8-0.2-9.3-0.9c-2.5-0.9-4.5-1.8-5.9-3c-1.6-1.6-2.5-3.4-3-5.5c-0.7-2-0.9-4.8-0.9-8.2
				v-15.9c0-1.1,0-2.7,0-3.9H144c0,0.2,0,0.2,0,0.7c-0.2,1.1-0.2,2.5-0.2,3.9v15c0,1.6,0,2.7,0.2,3.9s0.7,1.8,1.1,2.5
				c0.7,0.7,1.6,1.1,2.7,1.6c1.1,0,2.5,0.2,4.1,0.2h18.2c1.6,0,3-0.2,3.9-0.2c1.1-0.2,2-0.9,2.7-1.6c0.7-0.7,1.1-1.1,1.6-2.5
				c0.2-1.1,0.2-2.5,0.2-3.9v-15c0-1.6,0-2.7-0.2-3.9c-0.2-0.9-0.9-1.8-1.6-2.5c-0.7-0.7-1.6-1.1-2.7-1.6c-0.9,0-2.5-0.2-3.9-0.2
				H154h-2l0,0l0,0h-18.9l0.2-0.2c0.7-2.5,1.6-4.1,3-5.5c1.6-1.6,3.6-2.5,5.9-3c2.5-0.7,5.5-0.9,9.3-0.9h18.9c3.9,0,6.8,0.2,9.3,0.9
				c2.5,0.7,4.5,1.6,5.9,3c1.6,1.1,2.5,3,3,5.5c0.7,2,0.9,4.8,0.9,7.7v15.9c0,3.4-0.2,5.9-0.9,8.2c-0.7,2-1.6,3.9-3,5.5
				c-1.6,1.1-3.6,2-5.9,3c-2.5,0.7-5.5,0.9-9.3,0.9L151.7,210.1L151.7,210.1z"/>
			<path class="st0" d="M170.6,210.8h-18.9c-3.9,0-7.1-0.2-9.3-0.9l0,0c-2.3-0.9-4.5-1.8-6.1-3.2l0,0c-1.4-1.4-2.5-3.2-3.2-5.7
				c-0.7-2-0.9-5-0.9-8.2v-20.2h12.5v1.1l0,0c-0.2,1.1-0.2,2.3-0.2,3.9v15c0,1.4,0,2.7,0.2,3.9s0.5,1.6,1.1,2
				c0.5,0.5,1.1,1.1,2.3,1.4c0.5,0,1.1,0,1.6,0.2c0.7,0,1.6,0.2,2.5,0.2h18.2c0.9,0,1.6,0,2.3-0.2c0.5,0,1.1-0.2,1.4-0.2
				c1.1-0.2,2-0.9,2.3-1.4c0.7-0.7,1.1-1.1,1.4-2c0.2-1.1,0.2-2.3,0.2-3.9v-15.2c0-1.4,0-2.7-0.2-3.6c-0.2-0.7-0.7-1.6-1.4-2.3
				c-0.5-0.5-1.1-1.1-2.3-1.4c-0.5,0-0.9,0-1.4-0.2c-0.7,0-1.6-0.2-2.3-0.2h-38.7l1.1-1.1c0.7-2.5,1.6-4.3,3.2-5.5
				c1.4-1.4,3.4-2.5,6.1-3.2c2.5-0.7,5.5-0.9,9.3-0.9h18.9c3.9,0,7.1,0.2,9.3,0.9c2.7,0.7,4.8,1.6,6.1,3.2c1.6,1.1,2.5,3,3.2,5.7
				c0.7,2,0.9,4.8,0.9,8v15.9c0,3.4-0.2,6.1-0.9,8.2c-0.7,2.5-1.6,4.1-3.2,5.7l0,0c-1.6,1.4-3.9,2.3-6.1,3.2l0,0
				C177.7,210.4,174.5,210.8,170.6,210.8z M142.6,208.8c2.3,0.7,5.5,0.9,9.1,0.9h18.9c3.9,0,6.8-0.2,9.1-0.9c2-0.9,4.3-1.6,5.7-3
				c1.4-1.4,2.3-3,2.7-5.2c0.7-2,0.9-4.8,0.9-8v-15.9c0-3-0.2-5.7-0.9-7.7l0,0c-0.7-2.5-1.6-4.1-2.7-5l0,0c-1.4-1.4-3.2-2.3-5.7-3
				c-2.3-0.7-5.5-0.9-9.1-0.9h-18.9c-3.9,0-6.8,0.2-9.1,0.9c-2.7,0.7-4.5,1.6-5.7,3l0,0c-1.1,0.9-2,2.5-2.7,4.8h36.2
				c0.9,0,1.8,0,2.5,0.2c0.5,0,1.1,0.2,1.4,0.2l0,0l0,0c1.4,0.5,2.5,1.1,3,1.6c0.7,0.7,1.4,1.6,1.6,2.7l0,0c0.2,1.4,0.2,2.5,0.2,4.1
				v15c0,1.6,0,2.7-0.2,4.1s-1.1,2-1.6,2.7c-0.5,0.5-1.6,1.4-3,1.6l0,0l0,0c-0.5,0-0.9,0-1.4,0.2c-0.7,0-1.6,0.2-2.5,0.2h-18.2
				c-0.9,0-1.8,0-2.5-0.2c-0.7,0-1.1-0.2-1.6-0.2l0,0l0,0c-1.4-0.5-2.5-1.1-3-1.6c-0.7-0.7-0.9-1.4-1.4-2.7
				c-0.2-1.4-0.2-2.5-0.2-4.1v-15.2c0-1.6,0-2.7,0.2-3.9h-10.2v19.3c0,3.2,0.2,5.9,0.9,8c0.7,2.3,1.6,3.9,2.7,5.2
				C138.3,206.9,140.6,207.9,142.6,208.8z"/>
		</g>
		<g>
			<path class="st0" d="M244.3,173.1L230,203.3l-5-12.5l13-28.4c0.7-1.6,1.6-2.7,2.5-3.4c1.1-0.9,2.5-1.1,4.1-1.1
				c1.8,0,3.4,0.2,4.5,1.1c0.9,0.7,1.8,1.8,2.5,3.4l11.4,26.2l0,0l8.2,20c-0.2,0-0.2,0.2-0.7,0.7c-1.1,0.9-2.5,1.1-4.1,1.1
				c-1.8,0-3.2-0.2-4.1-1.1c-1.1-0.9-2-2-2.7-3.6L244.3,173.1z M267.3,190.6l13.4-31.8H293c-0.7,1.1-1.6,3-2.5,5.7
				c-1.1,2.5-2.5,5-3.9,8.2c-1.1,3-2.7,6.4-4.1,9.6c-1.1,3.4-2.7,6.4-4.1,9.3c-1.1,3.4-2.5,5.9-3.6,8.4c-0.7,1.8-1.1,3.4-1.8,4.5
				L267.3,190.6z M227.5,207.4c-0.2,0.7-0.9,0.9-1.6,1.6c-1.1,0.9-2.5,1.1-4.1,1.1c-1.8,0-3.2-0.2-4.5-1.1c-0.9-0.9-1.8-2-2.5-3.6
				L195.2,159h12.5l11.1,27.5l3.6,8.6L227.5,207.4z"/>
			<path class="st0" d="M265.9,210.8c-2.3,0-3.6-0.5-4.5-1.4c-1.4-0.9-2.3-2.3-3-3.9l-14.1-31.4L230,204.4l-5.7-14.1l13-28.7
				c0.7-1.6,1.6-3,2.5-3.6c1.4-0.9,2.5-1.4,4.5-1.4c2,0,3.6,0.5,4.8,1.4c0.9,0.7,2,2,2.5,3.6l11.4,26.2l8.4,20.9h-0.7l0,0
				c0,0-0.2,0.2-0.2,0.5l0,0C269.1,210.4,268,210.8,265.9,210.8z M244.3,171.7l15.2,33.4c0.5,1.4,1.4,2.5,2.5,3.4l0,0
				c0.7,0.7,2,1.1,3.9,1.1c1.8,0,2.7-0.2,3.9-1.1c0,0,0-0.2,0.2-0.2c0,0,0-0.2,0.2-0.2l-8-19.6l-11.4-26.2c-0.5-1.4-1.4-2.5-2.3-3
				l0,0c-0.9-0.7-2.3-1.1-4.1-1.1c-1.8,0-2.7,0.2-3.9,1.1l0,0c-0.9,0.5-1.6,1.6-2.3,3l0,0l-13,28.4l4.5,11.1L244.3,171.7z
				 M221.8,210.8c-2,0-3.6-0.5-4.8-1.4l0,0c-1.1-1.1-2-2.5-2.5-3.9l-19.8-47.3h13.9l11.1,28l3.6,8.6l5,12.5v0.2
				c-0.2,0.5-0.7,0.9-1.1,1.1c-0.2,0.2-0.5,0.2-0.7,0.5l0,0C225,210.4,223.8,210.8,221.8,210.8z M217.7,208.5
				c0.9,0.7,2.3,1.1,4.1,1.1c1.8,0,2.7-0.2,3.9-1.1c0.2-0.2,0.5-0.5,0.7-0.5c0.2-0.2,0.5-0.5,0.7-0.7l-4.8-12.1l-3.6-8.6l-10.9-27.3
				h-11.4l19.1,45.7C215.9,206.5,216.6,207.6,217.7,208.5z M273,205.8l-6.4-15.2v-0.2l13.6-32.1h13.6l-0.2,0.9
				c-0.7,1.1-1.6,3-2.3,5.7l0,0c-0.5,1.1-1.1,2.3-1.8,3.6c-0.7,1.4-1.4,3-2,4.5c-1.1,3-2.5,6.1-4.1,9.6c-1.1,3.4-2.7,6.4-4.1,9.3
				c-1.1,3-2.3,5.7-3.6,8.4c-0.7,1.8-1.1,3.4-1.8,4.5L273,205.8z M268,190.8l5.2,12.5c0.5-0.9,0.9-2,1.1-3.2l0,0
				c1.4-2.7,2.5-5.5,3.6-8.4l0,0c1.4-3,3-5.9,4.1-9.3l0,0c1.6-3.4,3-6.6,4.1-9.6l0,0c0.7-1.6,1.6-3,2-4.5c0.7-1.4,1.1-2.5,1.8-3.6
				c0.7-2.3,1.4-3.9,2-5h-10.9L268,190.8z"/>
		</g>
	</g>
	<g>
		<path class="st0" d="M332.6,209.9c-1.8,0-3.4-0.5-5-1.4c-1.6-0.9-2.7-2-3.6-3.6c-0.9-1.6-1.4-3.2-1.4-5v-13.2c0-1.1,0.2-2,0.9-3.2
			c0.7-1.1,1.6-1.8,2.7-2.5c-0.7-0.9-0.9-2.3-0.9-4.1v-7.5c0-1.8,0.5-3.6,1.4-5c0.9-1.6,2-2.7,3.6-3.6c1.6-0.9,3.2-1.4,5-1.4h25.2
			c1.6,0,3.2,0.5,4.5,1.1s2.5,1.6,3.6,3c0.9,1.1,1.6,2.5,1.8,4.1v5.9h-10v-3.6v-0.2h-0.2H336h-0.2l-0.2,0.2v8l27.1,13.6v-7.1h10
			v11.4l8.2,5V211l-9.8-5.7c-0.9,1.4-2,2.5-3.6,3.4c-1.6,0.9-3,1.4-4.8,1.4h-30V209.9z M333.3,199.9h22.3c0.5,0,0.9,0,1.4,0
			c0.5,0,0.9-0.2,1.4-0.2l-23.9-12.1l-1.1-0.5c-0.2,0-0.2,0.2-0.5,0.7c0,0.5-0.2,1.1-0.2,2.5v9.3c0,0,0,0.2,0.2,0.2
			C333,199.9,333,199.9,333.3,199.9z"/>
	</g>
	<path class="st0" d="M461.1,197.8h-31.2l-7.3,12.1h-13.2l29.8-47.5c0.9-1.6,2-2.7,3.4-3.6c1.1-0.9,3-1.6,5.2-1.6
		c2.5,0,4.3,0.7,5.5,1.6c1.1,0.9,2,2,3,3.6l29.8,47.5h-13.2l-3.6-6.1l-14.8-23.9l-6.8-10.9l-12.5,20.2h20.5L461.1,197.8z"/>
	<path class="st0" d="M607.8,197.8h-31.2l-7.3,12.1h-13.2l29.8-47.5c0.9-1.6,2-2.7,3.4-3.6c1.1-0.9,3-1.6,5.2-1.6
		c2.5,0,4.3,0.7,5.5,1.6c1.1,0.9,2,2,3,3.6l29.8,47.5h-13.2l-3.6-6.1l-14.8-23.9l-6.8-10.9l-12.5,20.2h20.5L607.8,197.8z"/>
	<path class="st0" d="M772.5,209.9v-9.8h39.1c1.8,0,3.4-0.2,4.3-0.9s1.6-1.8,1.6-3.4v-2.7c0-1.8-0.7-2.7-1.6-3.6
		c-0.9-0.7-2.5-0.9-4.3-0.9h-24.3c-2.7,0-5.2-0.2-7.1-0.9c-1.8-0.2-3.4-1.1-4.5-2c-0.9-1.1-1.8-2.5-2-4.3c-0.7-1.6-0.7-3.4-0.7-5.9
		v-2.5c0-0.2,0-0.7,0-0.9h10.5c0,0.2,0,0.9,0,1.1v1.8c0,1.6,0.2,2.7,0.9,3.4c0.9,0.7,2,0.9,4.1,0.9h23.9c2.7,0,5.2,0.2,7.1,0.9
		c2,0.2,3.6,1.1,5,2c1.1,1.1,2,2.5,2.7,3.9c0.7,1.8,0.9,3.6,0.9,6.1v3.9c0,2.5-0.2,4.5-0.9,6.1c-0.7,1.8-1.6,3-2.7,4.3
		c-1.1,0.9-2.7,1.6-5,2c-1.8,0.7-4.3,0.9-7.1,0.9h-39.8V209.9z M773.2,168.1c0-0.9,0.2-1.6,0.2-2c0.7-1.8,1.6-3.4,2.7-4.3
		c0.9-1.1,2.5-2,4.3-2.7c1.8-0.2,4.3-0.7,6.8-0.7H828v9.8h-30.3h-9.6l0,0H773.2z"/>
	<path class="st0" d="M522.1,172.8l-14.8,30.9l-5.2-13l13.2-29.1c0.7-1.6,1.6-2.7,2.5-3.4c1.1-0.9,2.5-1.1,4.3-1.1s3.4,0.2,4.5,1.1
		c0.9,0.7,1.8,1.8,2.5,3.4l11.6,26.6l0,0l8.2,20.5c-0.2,0-0.2,0.2-0.7,0.7c-1.1,0.9-2.5,1.1-4.3,1.1s-3.4-0.2-4.3-1.1
		c-1.1-0.9-2-2-2.7-3.6L522.1,172.8z M545.7,190.8l13.9-32.5h12.5c-0.7,1.1-1.6,3-2.5,5.9c-1.1,2.5-2.5,5.2-4.1,8.2
		c-1.1,3-2.7,6.4-4.3,9.8c-1.1,3.4-2.7,6.4-4.3,9.6c-1.1,3.4-2.5,6.1-3.6,8.6c-0.7,1.8-1.1,3.4-1.8,4.5L545.7,190.8z M505,208.1
		c-0.2,0.7-0.9,0.9-1.6,1.6c-1.1,0.9-2.5,1.1-4.3,1.1c-1.8,0-3.4-0.2-4.5-1.1c-0.9-0.9-1.8-2-2.5-3.6l-20-47.5h13l11.4,28.2l3.6,8.9
		L505,208.1z"/>
	<path class="st0" d="M706.1,209.9v-38h11.6v28.2h28.9c1.6,0,2.7-0.2,4.1-0.7c0.9,0,1.8-0.7,2.7-1.1c0.7-0.7,0.9-1.6,1.6-2.5
		c0.2-1.1,0.2-2.5,0.2-3.9v-15.2c0-1.6,0-2.7-0.2-3.9c-0.2-0.9-0.9-1.8-1.6-2.5c-0.7-0.7-1.6-1.1-2.7-1.6c-0.9,0-2.5-0.2-4.1-0.2
		h-16.2h-12.5h-11.6v-9.8H747c4.1,0,7.1,0.2,9.6,0.9s4.5,1.6,6.1,3c1.6,1.1,2.5,3,3,5.5c0.7,2,1.1,5,1.1,8v16.2
		c0,3.4-0.7,6.1-1.1,8.2c-0.7,2-1.6,4.1-3,5.5c-1.6,1.1-3.6,2-6.1,3c-2.5,0.7-5.5,0.9-9.6,0.9h-40.9V209.9z"/>
	<g>
		<path class="st0" d="M649.2,192.4v17.5h-11.4v-38.2h11.4V184h28.2c1.8,0,3.4-0.2,4.5-0.2c1.1-0.2,2-0.7,2.7-0.9
			c0.9-0.7,1.1-1.1,1.6-2c0.2-0.7,0.7-1.8,0.7-3.4v-2.7c0-1.1-0.2-2.5-0.7-3.4c-0.2-0.7-0.7-1.1-1.6-1.8c-0.7-0.2-1.6-0.7-2.7-0.9
			c-1.1,0-2.7-0.2-4.5-0.2h-16.2h-12.1h-11.4v-9.6h40c3.6,0,6.8,0.2,9.1,0.7c2.7,0.7,5,1.1,6.4,2.5c1.6,1.1,2.7,2.7,3.6,4.5
			c0.7,2,0.9,4.5,0.9,7.7v3.6c0,3-0.2,5.5-1.1,7.3c-0.7,1.8-1.8,3.4-3.6,4.5c-1.6,1.1-3.6,1.8-6.4,2.5c-2.5,0.2-5.5,0.7-8.9,0.7
			h-9.1h-19.6V192.4z"/>
		<polygon class="st0" points="683.6,209.9 698.1,209.9 681.7,191 666.5,191 		"/>
	</g>
</g>
</svg>
