<?xml version="1.0" encoding="UTF-8"?>
<svg id="Layer_2" xmlns="http://www.w3.org/2000/svg" version="1.1" viewBox="0 0 1421.8 656">
  <!-- Generator: Adobe Illustrator 30.2.1, SVG Export Plug-In . SVG Version: 2.1.1 Build 1)  -->
  <defs>
    <style>
      .st0 {
        fill: none;
        stroke: #fff;
        stroke-miterlimit: 10;
        stroke-width: 1.8px;
      }

      .st1 {
        fill: #c0f43c;
      }

      .st2 {
        fill: #fff;
      }

      .st3 {
        fill: #037dc0;
      }
    </style>
  </defs>
  <g id="Layer_1-2">
    <g>
      <path class="st2" d="M503.5,632.8c0,7.4-5.8,11.7-16.9,11.7h-21.4v-43.1h20.2c10.3,0,15.9,4.4,15.9,11.2s-2.2,7.7-5.5,9.5c4.6,1.5,7.8,5.1,7.8,10.7h-.1ZM473.2,607.7v11.9h11.3c5.5,0,8.7-2,8.7-5.9s-3.1-6-8.7-6h-11.3ZM495.4,632c0-4.3-3.3-6.2-9.3-6.2h-12.9v12.4h12.9c6,0,9.3-1.9,9.3-6.2Z"/>
      <path class="st2" d="M542.1,630.5h-25.8c.9,4.8,4.9,7.9,10.7,7.9s6.6-1.2,8.9-3.6l4.1,4.7c-3,3.5-7.6,5.4-13.2,5.4-11,0-18.2-7.1-18.2-16.9s7.2-16.8,17-16.8,16.6,6.7,16.6,17,0,1.5,0,2.3h0ZM516.2,625.4h18.7c-.6-4.7-4.2-8-9.3-8s-8.6,3.2-9.4,8Z"/>
      <path class="st2" d="M582,625.6v18.8h-7.7v-17.9c0-5.8-2.9-8.7-7.8-8.7s-9.2,3.3-9.2,9.9v16.6h-7.7v-32.9h7.3v4.2c2.5-3,6.5-4.6,11.3-4.6,7.9,0,13.7,4.5,13.7,14.4v.2h.1Z"/>
      <path class="st2" d="M624.7,611.6v27.9c0,11.9-6.2,17.4-17.7,17.4s-12.3-1.6-16-4.7l3.4-5.8c2.9,2.4,7.6,3.9,12.1,3.9,7.3,0,10.5-3.3,10.5-10v-1.7c-2.7,3-6.6,4.4-11,4.4-9.4,0-16.6-6.4-16.6-15.9s7.2-15.8,16.6-15.8,8.7,1.5,11.4,4.7v-4.4h7.3ZM617.1,627c0-5.5-4.2-9.3-10-9.3s-10,3.8-10,9.3,4.2,9.4,10,9.4,10-3.8,10-9.4Z"/>
      <path class="st2" d="M662.3,625.2v19.3h-7.3v-4c-1.8,2.8-5.4,4.4-10.3,4.4-7.5,0-12.3-4.1-12.3-9.9s3.7-9.8,13.7-9.8h8.5v-.5c0-4.5-2.7-7.1-8.2-7.1s-7.5,1.2-10,3.3l-3-5.6c3.5-2.7,8.6-4.1,13.9-4.1,9.5,0,15,4.5,15,14h0ZM654.6,634.2v-3.8h-7.9c-5.2,0-6.6,2-6.6,4.4s2.3,4.6,6.3,4.6,7-1.7,8.3-5.1h0Z"/>
      <path class="st2" d="M672.2,598.8h7.7v45.7h-7.7v-45.7Z"/>
      <path class="st2" d="M721.8,611.6v32.9h-7.3v-4.2c-2.5,3-6.3,4.6-10.6,4.6-8.4,0-14.2-4.6-14.2-14.5v-18.8h7.7v17.7c0,6,2.8,8.8,7.7,8.8s9-3.3,9-9.9v-16.6h7.7,0Z"/>
      <path class="st2" d="M750.9,611.2v7.3c-.7,0-1.2-.2-1.8-.2-5.8,0-9.5,3.4-9.5,10.2v15.9h-7.7v-32.9h7.3v4.8c2.2-3.4,6.2-5.2,11.7-5.2h0Z"/>
      <path class="st2" d="M789.6,611.6v32.9h-7.3v-4.2c-2.5,3-6.3,4.6-10.6,4.6-8.4,0-14.2-4.6-14.2-14.5v-18.8h7.7v17.7c0,6,2.8,8.8,7.7,8.8s9-3.3,9-9.9v-16.6h7.7,0Z"/>
    </g>
    <g>
      <path class="st2" d="M915.7,637.8v6.7h-32.3v-43.1h31.5v6.7h-23.5v11.2h20.8v6.6h-20.8v11.9h24.3Z"/>
      <path class="st2" d="M954.2,611.6l-14.1,32.9h-7.9l-14.1-32.9h8l10.2,24.4,10.5-24.4h7.4,0Z"/>
      <path class="st2" d="M988.9,630.5h-25.8c.9,4.8,4.9,7.9,10.7,7.9s6.6-1.2,8.9-3.6l4.1,4.7c-3,3.5-7.6,5.4-13.2,5.4-11,0-18.2-7.1-18.2-16.9s7.2-16.8,17-16.8,16.6,6.7,16.6,17,0,1.5,0,2.3h0ZM963,625.4h18.7c-.6-4.7-4.2-8-9.3-8s-8.6,3.2-9.4,8Z"/>
      <path class="st2" d="M1028.8,625.6v18.8h-7.7v-17.9c0-5.8-2.9-8.7-7.8-8.7s-9.2,3.3-9.2,9.9v16.6h-7.7v-32.9h7.3v4.2c2.5-3,6.5-4.6,11.3-4.6,7.9,0,13.7,4.5,13.7,14.4v.2h.1Z"/>
      <path class="st2" d="M1058.3,642.7c-1.8,1.5-4.6,2.2-7.4,2.2-7.2,0-11.3-3.8-11.3-11.1v-15.8h-5.4v-6.2h5.4v-7.5h7.7v7.5h8.8v6.2h-8.8v15.6c0,3.2,1.6,4.9,4.6,4.9s3.1-.4,4.3-1.4l2.2,5.5h0Z"/>
      <path class="st2" d="M1116.6,628c0,10.2-7.1,16.9-16.7,16.9s-8.3-1.5-10.9-4.7v4.2h-7.3v-45.7h7.7v16.8c2.6-3,6.3-4.4,10.5-4.4,9.6,0,16.7,6.6,16.7,16.8h0ZM1108.8,628c0-6.3-4.2-10.3-9.7-10.3s-9.8,4-9.8,10.3,4.2,10.3,9.8,10.3,9.7-4,9.7-10.3Z"/>
      <path class="st2" d="M1153.8,611.6l-15.4,35.5c-3,7.4-7.2,9.7-12.7,9.7s-6.7-1.1-8.8-3l3.1-5.7c1.5,1.4,3.6,2.3,5.7,2.3s4.3-1.3,5.8-4.6l.6-1.3-14.3-33h8l10.3,24.3,10.4-24.3h7.4,0Z"/>
    </g>
    <line class="st0" y1="497.4" x2="1421.8" y2="497.4"/>
    <g>
      <path class="st2" d="M11.3,54.2V6.9l3.1,3.4H0v-6.2h18.4v50.2h-7.1Z"/>
      <path class="st2" d="M74.9,21.9v-5.7h24.2v5.7s-24.2,0-24.2,0ZM93.4,54.7c-3.8,0-6.8-1-8.9-3.1-2.1-2-3.2-5-3.2-8.8V7.9h6.9v34.5c0,2,.5,3.6,1.5,4.7s2.5,1.7,4.4,1.7,3.9-.6,5.4-1.8l2.2,4.9c-1.1.9-2.3,1.6-3.8,2s-3,.6-4.6.6h0v.2h0Z"/>
      <path class="st2" d="M130.3,15.9c3.1,0,5.8.6,8.2,1.8,2.4,1.2,4.2,3,5.6,5.5,1.3,2.4,2,5.5,2,9.2v21.9h-6.9v-21.1c0-3.7-.9-6.5-2.7-8.3s-4.3-2.8-7.6-2.8-4.6.5-6.4,1.4c-1.8,1-3.2,2.4-4.2,4.2s-1.5,4.2-1.5,7v19.6h-6.9V1.1h6.9v25.4l-1.4-2.7c1.2-2.5,3.2-4.4,5.7-5.8s5.6-2.1,9-2.1h.2Z"/>
      <path class="st2" d="M195,48h29.2v6.2h-36.4V4.1h35.4v6.2h-28.2v37.7h0ZM194.3,25.7h25.8v6.1h-25.8v-6.1Z"/>
      <path class="st2" d="M250,54.7c-3.7,0-7-.8-9.9-2.4-2.9-1.6-5.2-3.9-6.8-6.8-1.7-2.9-2.5-6.3-2.5-10.2s.8-7.2,2.5-10.1,4-5.1,6.8-6.8c2.9-1.6,6.2-2.4,9.9-2.4s6.1.7,8.7,2.1,4.6,3.6,6.2,6.5,2.3,6.5,2.3,10.8-.8,7.9-2.3,10.8-3.5,5-6.1,6.5-5.5,2.2-8.8,2.2v-.2h0ZM250.6,48.6c2.4,0,4.5-.5,6.5-1.7,1.9-1.1,3.5-2.7,4.6-4.7s1.7-4.4,1.7-7.1-.6-5.1-1.7-7.1-2.6-3.5-4.6-4.6-4.1-1.6-6.5-1.6-4.6.5-6.5,1.6-3.4,2.6-4.6,4.6-1.7,4.3-1.7,7.1.6,5,1.7,7.1c1.1,2,2.7,3.6,4.6,4.7,1.9,1.1,4.1,1.7,6.5,1.7h0ZM263.6,54.2v-10.2l.4-8.8-.7-8.8V1.1h6.9v53.2h-6.6,0Z"/>
      <path class="st2" d="M286.7,9c-1.3,0-2.5-.4-3.3-1.3s-1.3-1.9-1.3-3.2.4-2.4,1.3-3.2S285.4,0,286.7,0s2.5.4,3.3,1.2c.9.8,1.3,1.9,1.3,3.1s-.4,2.4-1.3,3.3c-.9.9-2,1.3-3.4,1.3h.1ZM283.2,54.2V16.3h6.9v38h-6.9Z"/>
      <path class="st2" d="M297.7,21.9v-5.7h24.2v5.7s-24.2,0-24.2,0ZM316.2,54.7c-3.8,0-6.8-1-8.9-3.1-2.1-2-3.2-5-3.2-8.8V7.9h6.9v34.5c0,2,.5,3.6,1.5,4.7,1,1.1,2.5,1.7,4.4,1.7s3.9-.6,5.4-1.8l2.2,4.9c-1,.9-2.3,1.6-3.8,2s-3,.6-4.5.6h0v.2h0Z"/>
      <path class="st2" d="M336.3,9c-1.3,0-2.5-.4-3.3-1.3s-1.3-1.9-1.3-3.2.4-2.4,1.3-3.2S335,0,336.3,0s2.5.4,3.3,1.2c.9.8,1.3,1.9,1.3,3.1s-.4,2.4-1.3,3.3c-.9.9-2,1.3-3.4,1.3h.1ZM333,54.2V16.3h6.9v38h-6.9Z"/>
      <path class="st2" d="M369.2,54.7c-3.8,0-7.2-.8-10.2-2.5s-5.3-4-7-6.9-2.6-6.3-2.6-10,.9-7.1,2.6-10,4.1-5.2,7-6.8,6.3-2.5,10.2-2.5,7.2.8,10.1,2.5c3,1.6,5.3,3.9,7,6.8s2.5,6.2,2.5,10.1-.8,7.1-2.5,10-4,5.2-7,6.9-6.4,2.5-10.1,2.5h0ZM369.2,48.6c2.4,0,4.6-.5,6.6-1.7,1.9-1.1,3.5-2.7,4.5-4.7s1.7-4.4,1.7-7.1-.5-5.1-1.7-7.1c-1.1-2-2.6-3.5-4.5-4.6s-4.1-1.6-6.6-1.6-4.6.5-6.5,1.6-3.4,2.6-4.6,4.6-1.7,4.3-1.7,7.1.6,5,1.7,7.1c1.2,2,2.7,3.6,4.6,4.7,1.9,1.1,4.1,1.7,6.5,1.7Z"/>
      <path class="st2" d="M418.7,15.9c3.1,0,5.8.6,8.2,1.8,2.4,1.2,4.2,3,5.5,5.5,1.3,2.4,2,5.5,2,9.2v21.9h-6.9v-21.1c0-3.7-.9-6.5-2.7-8.3s-4.3-2.8-7.6-2.8-4.6.5-6.4,1.4c-1.8,1-3.2,2.4-4.2,4.2s-1.5,4.2-1.5,7v19.6h-6.9V16.3h6.6v10.2l-1.1-2.7c1.2-2.5,3.2-4.4,5.7-5.8s5.6-2.1,9-2.1h.3Z"/>
      <path class="st2" d="M45.1,54.1c-3.5,0-6.9-.5-10.1-1.6-3.3-1.1-5.9-2.5-8-4.4l3.3-5.6c1.6,1.5,3.8,2.9,6.4,3.8,2.6,1,5.4,1.5,8.4,1.5s6.6-.8,8.6-2.4c2-1.6,3-3.8,3-6.4s-.5-3.4-1.4-4.8-2.5-2.4-4.6-3.1c-2.3-.8-5.1-1.1-9-1.1h-11.3l2.6-25.8h27.9v6.1h-25.3l3.6-3.5-2,20.4-3.6-3.4h9.5c5,0,8.9.6,11.9,1.9s5.1,3,6.5,5.3,2,4.8,2,7.8-.6,5.4-2,7.8-3.4,4.1-6.1,5.6c-2.8,1.4-6.3,2.1-10.5,2.1h.3v-.2h0Z"/>
    </g>
    <g>
      <path class="st2" d="M958.3,41.3v-5.2h44.2v5.2h-44.2ZM960.6,22.2v-5.2h44.2v5.2h-44.2ZM966.6,54.2l6.2-50.2h5.1l-6.2,50.2h-5.1ZM985.2,54.2l6.2-50.2h5.1l-6.2,50.2h-5.1Z"/>
      <path class="st2" d="M1024.2,54.2V10.3h-17.2v-6.2h41.5v6.2h-17.2v43.9h-7.1Z"/>
      <path class="st2" d="M1054.4,54.2V16.3h6.6v10.3l-.6-2.6c1.1-2.6,2.8-4.6,5.3-6s5.5-2.1,9.2-2.1v6.7h-1.6c-3.7,0-6.6,1.1-8.7,3.3s-3.2,5.4-3.2,9.5v18.9h-7Z"/>
      <path class="st2" d="M1099.8,54.7c-4.1,0-7.6-.8-10.7-2.5s-5.5-4-7.2-6.9-2.5-6.3-2.5-10,.8-7.1,2.5-10,3.9-5.2,6.8-6.8,6.2-2.5,9.8-2.5,6.9.8,9.7,2.4c2.8,1.6,5,3.9,6.6,6.8,1.6,2.9,2.4,6.4,2.4,10.3s0,.6,0,1v1.1h-32.3v-4.9h28.7l-2.8,1.7c0-2.4-.4-4.6-1.5-6.5s-2.5-3.4-4.3-4.5-4-1.6-6.4-1.6-4.5.5-6.4,1.6-3.3,2.6-4.4,4.5-1.6,4.1-1.6,6.6v1.2c0,2.5.6,4.8,1.8,6.8,1.2,2,2.8,3.5,4.9,4.6s4.5,1.7,7.2,1.7,4.3-.4,6.1-1.2c1.8-.8,3.4-1.9,4.8-3.4l3.8,4.4c-1.7,2-3.9,3.5-6.4,4.6-2.6,1-5.4,1.6-8.6,1.6h0Z"/>
      <path class="st2" d="M1137.7,54.7c-3.2,0-6.2-.4-9-1.3s-5.1-1.9-6.7-3.2l2.9-5.5c1.6,1.1,3.6,2,6,2.8s4.8,1.2,7.3,1.2,5.5-.5,6.9-1.4,2.1-2.2,2.1-3.8-.4-2.1-1.3-2.8-2-1.2-3.4-1.5-3-.6-4.7-.9c-1.7-.3-3.4-.6-5.2-1-1.7-.4-3.3-1-4.7-1.7-1.4-.7-2.6-1.8-3.4-3.1-.9-1.3-1.3-3.1-1.3-5.3s.6-4.3,1.9-6,3.1-3,5.5-4c2.4-.9,5.2-1.4,8.4-1.4s5,.3,7.6.9,4.7,1.4,6.3,2.5l-2.9,5.5c-1.7-1.1-3.5-1.9-5.4-2.4-1.9-.4-3.7-.6-5.6-.6-3,0-5.3.5-6.7,1.5s-2.2,2.2-2.2,3.8.4,2.3,1.3,3,2,1.2,3.4,1.6,3,.7,4.7,1,3.4.6,5.2,1c1.7.4,3.3,1,4.7,1.7,1.4.7,2.6,1.7,3.4,3,.9,1.3,1.3,3,1.3,5.2s-.7,4.3-2,6-3.2,3-5.7,3.9c-2.4.9-5.3,1.4-8.7,1.4h0Z"/>
      <path class="st2" d="M1179.2,54.7c-3.9,0-7.3-.8-10.3-2.5s-5.4-4-7.1-6.9-2.6-6.3-2.6-10,.9-7.1,2.6-10,4.1-5.2,7.1-6.8,6.5-2.5,10.3-2.5,6.5.7,9.2,2,4.8,3.4,6.3,6.1l-5.2,3.4c-1.2-1.9-2.8-3.2-4.6-4.1s-3.7-1.3-5.8-1.3-4.7.5-6.7,1.6-3.5,2.6-4.7,4.6-1.7,4.3-1.7,7.1.6,5.1,1.7,7.1c1.2,2,2.7,3.6,4.7,4.7,2,1.1,4.2,1.7,6.7,1.7s4-.4,5.8-1.3,3.3-2.3,4.6-4.1l5.2,3.3c-1.5,2.6-3.6,4.7-6.3,6.1-2.7,1.4-5.8,2.1-9.2,2.1h0v-.3Z"/>
      <path class="st2" d="M1219.3,54.7c-3.8,0-7.2-.8-10.2-2.5s-5.3-4-7-6.9-2.6-6.3-2.6-10,.9-7.1,2.6-10,4.1-5.2,7-6.8,6.3-2.5,10.2-2.5,7.2.8,10.1,2.5c3,1.6,5.3,3.9,7,6.8s2.5,6.2,2.5,10.1-.8,7.1-2.5,10-4,5.2-7,6.9-6.4,2.5-10.1,2.5h0ZM1219.3,48.6c2.4,0,4.6-.5,6.6-1.7,1.9-1.1,3.4-2.7,4.6-4.7,1.1-2,1.7-4.4,1.7-7.1s-.6-5.1-1.7-7.1-2.6-3.5-4.6-4.6-4.1-1.6-6.6-1.6-4.6.5-6.5,1.6-3.4,2.6-4.6,4.6-1.7,4.3-1.7,7.1.6,5,1.7,7.1c1.2,2,2.7,3.6,4.6,4.7,1.9,1.1,4.1,1.7,6.5,1.7Z"/>
      <path class="st2" d="M1268.8,15.9c3.1,0,5.8.6,8.2,1.8,2.4,1.2,4.2,3,5.6,5.5,1.3,2.4,2,5.5,2,9.2v21.9h-6.9v-21.1c0-3.7-.9-6.5-2.7-8.3s-4.3-2.8-7.6-2.8-4.6.5-6.4,1.4c-1.8,1-3.2,2.4-4.2,4.2s-1.5,4.2-1.5,7v19.6h-6.9V16.3h6.6v10.2l-1.1-2.7c1.2-2.5,3.2-4.4,5.7-5.8s5.6-2.1,9-2.1h.2Z"/>
      <path class="st2" d="M1320.7,54.8c-3.8,0-7.3-.6-10.6-1.9-3.2-1.3-6-3.1-8.4-5.4-2.4-2.3-4.2-5-5.6-8.1s-2-6.5-2-10.2.7-7.1,2-10.2,3.2-5.8,5.6-8.1,5.2-4.1,8.4-5.4c3.2-1.3,6.8-1.9,10.6-1.9s7.4.7,10.7,2c3.3,1.3,6.1,3.3,8.3,5.8l-4.7,4.5c-1.9-2-4.1-3.5-6.4-4.5-2.4-1-4.9-1.5-7.7-1.5s-5.4.5-7.8,1.4-4.5,2.3-6.3,4c-1.8,1.7-3.1,3.8-4.1,6.1-1,2.4-1.5,4.9-1.5,7.7s.5,5.3,1.5,7.7,2.3,4.4,4.1,6.1,3.9,3.1,6.3,4c2.4,1,5,1.4,7.8,1.4s5.3-.5,7.7-1.5,4.5-2.5,6.4-4.5l4.7,4.5c-2.3,2.6-5.1,4.5-8.3,5.9s-6.9,2-10.8,2h.1Z"/>
      <path class="st2" d="M1350.1,54.2V4.1h7.2v50.2h-7.2Z"/>
      <path class="st2" d="M1395,54.8c-3.8,0-7.4-.7-10.6-1.9s-6.1-3.1-8.5-5.4-4.2-5-5.6-8.1c-1.3-3.1-2-6.5-2-10.2s.7-7.1,2-10.2,3.2-5.8,5.6-8.1,5.2-4.1,8.5-5.4,6.8-1.9,10.7-1.9,7.3.6,10.6,1.9c3.2,1.3,6,3.1,8.5,5.4,2.4,2.3,4.3,5,5.6,8.1,1.3,3.1,2,6.5,2,10.2s-.7,7.1-2,10.2c-1.3,3.1-3.2,5.8-5.6,8.1s-5.2,4.1-8.5,5.4c-3.2,1.3-6.8,1.9-10.6,1.9h0ZM1395,48.4c2.8,0,5.3-.5,7.7-1.4,2.4-1,4.4-2.3,6.2-4,1.7-1.7,3.1-3.8,4.1-6.1s1.5-4.9,1.5-7.7-.5-5.3-1.5-7.7-2.3-4.4-4.1-6.1c-1.7-1.7-3.8-3.1-6.2-4.1s-4.9-1.4-7.7-1.4-5.4.5-7.8,1.4-4.4,2.3-6.2,4.1c-1.8,1.7-3.1,3.8-4.1,6.1s-1.5,4.9-1.5,7.7.5,5.3,1.5,7.7,2.3,4.4,4.1,6.1c1.8,1.7,3.8,3.1,6.2,4s5,1.4,7.8,1.4Z"/>
    </g>
    <g>
      <path class="st3" d="M859.2,336.6c-17.2,0-32.9-1.4-44.4-4.3-11.5-4.3-21.5-8.6-27.2-14.3-7.2-7.1-12.9-15.8-15.8-25.8-2.9-10-4.3-22.9-4.3-38.6v-75.9c0-5.7,0-12.9,1.4-18.6h54.4c0,1.4,0,2.9-1.4,2.9,0,5.7-1.4,11.4-1.4,18.6v71.6c0,7.2,1.4,12.9,1.4,18.6,1.4,4.3,4.3,8.6,7.2,11.5s7.2,5.7,12.9,5.7c4.3,1.4,11.5,2.9,20,2.9h163.2v45.8h-166.1,0ZM771.8,141.9v-1.4c2.8-11.5,8.6-20,15.8-25.8,5.7-7.2,15.8-11.5,27.2-14.3,11.5-2.9,27.2-4.3,44.4-4.3h166.1v45.8h-253.5Z"/>
      <polygon class="st3" points="1059.4 336.6 1059.4 96.1 1112.4 96.1 1112.4 336.6 1059.4 336.6"/>
      <path class="st3" d="M1239.9,336.6c-18.6,0-32.9-1.4-44.4-4.3-11.5-4.3-21.5-8.6-28.7-14.3-7.1-7.1-11.5-15.8-14.3-25.8-2.9-10-4.3-22.9-4.3-38.6v-94.5h54.4v2.9c-1.4,5.7-1.4,11.4-1.4,18.6v71.6c0,7.2,0,12.9,1.4,18.6s2.9,8.6,5.7,11.5c2.9,2.9,7.2,5.7,12.9,7.2,5.8,0,11.5,1.4,20.1,1.4h87.4c7.2,0,14.3-1.4,18.6-1.4,5.7-1.4,10-4.3,12.9-7.2,2.8-2.9,5.7-5.7,7.1-11.5,1.4-5.7,1.4-11.4,1.4-18.6v-71.6c0-7.2,0-12.9-1.4-18.6-1.4-4.3-4.3-8.6-7.1-11.5-2.9-2.9-7.2-5.7-12.9-7.2-4.3,0-11.5-1.4-18.6-1.4h-177.6l1.4-1.4c2.8-11.5,7.2-20,14.3-25.8,7.2-7.2,17.2-11.5,28.7-14.3,11.4-2.9,25.8-4.3,44.4-4.3h90.2c18.6,0,32.9,1.4,44.4,4.3s21.5,7.2,28.7,14.3c7.1,5.7,11.4,14.3,14.3,25.8,2.9,10,4.3,22.9,4.3,37.2v75.9c0,15.8-1.4,28.6-4.3,38.6s-7.2,18.6-14.3,25.8c-7.2,5.7-17.2,10-28.7,14.3-11.5,2.9-25.8,4.3-44.4,4.3h-90.2Z"/>
      <path class="st3" d="M0,96.1h203.3c12.9,0,24.4,1.4,34.4,2.9,10,1.4,17.2,4.3,24.4,8.6,5.7,4.3,10,10,12.9,17.2,2.9,7.1,4.3,15.8,4.3,25.8v20c0,14.3-2.9,24.3-7.2,30.1-5.7,5.7-11.5,10-18.6,12.9,2.9,0,7.2,1.4,11.5,4.3,2.9,1.4,5.7,4.3,8.6,8.6,2.9,2.9,4.3,8.6,5.7,14.3,1.4,5.7,2.9,12.9,2.9,21.5v21.5c0,10-1.4,18.6-4.3,24.3-2.9,7.2-7.2,11.5-12.9,15.8-5.7,4.3-14.3,7.2-22.9,10-10,1.4-21.5,2.9-35.8,2.9H0v-180.4h54.4v38.7h150.4c8.6,0,15.8-1.4,18.6-4.3,4.3-2.9,5.7-8.6,5.7-17.2v-14.3c0-7.2-2.9-12.9-7.2-15.8-4.3-2.9-11.4-4.3-22.9-4.3H0v-43h0ZM54.4,233.5v58.7h148.9c10,0,17.2-1.4,21.5-4.3,5.7-2.9,7.2-7.1,7.2-14.3v-15.8c0-10-1.4-15.8-5.7-20-4.3-2.9-11.5-4.3-20.1-4.3H54.4Z"/>
      <path class="st3" d="M496.1,336.6c-18.6,0-32.9-1.4-44.4-4.3-11.5-4.3-21.5-8.6-28.6-14.3-7.2-7.1-11.5-15.8-14.3-25.8-2.9-10-4.3-22.9-4.3-38.6v-94.5h55.8c0,1.4-1.4,2.9-1.4,2.9-1.4,5.7-1.4,11.4-1.4,18.6v71.6c0,7.2,0,14.3,1.4,18.6,1.4,5.7,4.3,8.6,7.2,11.5,2.9,2.9,7.2,5.7,12.9,7.2,4.3,0,11.5,1.4,18.6,1.4h91.6c7.2,0,12.9-1.4,18.6-1.4,5.7-1.4,8.6-4.3,12.9-7.2,2.9-2.9,4.3-7.1,5.7-11.5,1.4-5.7,2.9-12.9,2.9-21.5v-10h-85.9v-45.8h138.9v60.2c0,15.8-1.4,28.6-4.3,38.6-2.9,10-7.2,18.6-14.3,25.8-7.2,5.7-17.2,10-28.6,14.3-11.5,2.9-27.2,4.3-44.4,4.3h-94.6ZM407.3,141.9l1.4-1.4c2.9-11.5,7.2-20,14.3-25.8,7.2-7.2,17.2-11.5,28.6-14.3,11.5-2.9,25.8-4.3,44.4-4.3h186.2v45.8h-274.9,0Z"/>
      <polygon class="st3" points="316.8 336.6 316.8 96.1 369.8 96.1 369.8 336.6 316.8 336.6"/>
      <g>
        <g>
          <path class="st3" d="M191.4,453.4v-34.5h-82.9v-52h19.6v35h63.4v-35h19.1v86.6h-19.2ZM128.1,425v28.3h-19.6v-28.3h19.6Z"/>
          <path class="st3" d="M211.5,454.3h-21v-34.5h-82.9v-54h21.5v35h61.4v-35h21v88.5h0ZM192.4,452.4h17.1v-84.6h-17.1v35h-65.3v-35h-17.7v50.1h82.9v34.5h.1ZM129.1,454.3h-21.5v-30.3h21.5v30.3ZM109.5,452.4h17.7v-26.4h-17.7v26.4Z"/>
        </g>
        <g>
          <path class="st3" d="M1,453.4v-16.5h65.9c3.1,0,5.7-.5,7.2-1.5s2.6-3.1,2.6-5.7v-4.6c0-3.1-1-4.6-2.6-6.2-1.6-1-4.1-1.5-7.2-1.5H25.7c-4.6,0-8.8-.5-11.9-1.5-3.1-.5-5.7-2.1-7.7-3.6-1.5-2.1-3.1-4.1-3.6-7.2-1-2.6-1-5.7-1-9.8v-5.7h17.5v5.1c0,2.6.5,4.6,1.5,5.7,1.5,1,3.6,1.5,6.7,1.5h40.7c4.6,0,8.8.5,11.8,1.5,3.6.5,6.2,2.1,8.2,3.6,2.1,2.1,3.6,4.1,4.6,6.7,1,3.1,1.5,6.2,1.5,10.3v6.7c0,4.1-.5,7.7-1.5,10.3-1,3.1-2.6,5.2-4.6,7.2-2.1,1.5-4.6,2.6-8.2,3.6-3.1,1-7.2,1.5-11.8,1.5H1ZM2,383.3c0-1.5.5-2.6.5-3.6,1-3.1,2.6-5.7,4.6-7.2,1.5-2.1,4.1-3.6,7.2-4.6,3.1-.5,7.2-1,11.3-1h68.5v16.5H2Z"/>
          <path class="st3" d="M67.9,454.3H0v-18.4h66.9c3,0,5.3-.5,6.7-1.4,1.3-.9,2.1-2.7,2.1-4.9v-4.6c0-2.6-.8-4-2.2-5.4-1.4-.9-3.7-1.3-6.6-1.3H25.7c-4.8,0-9-.5-12.1-1.6-2.7-.5-5.3-1.7-8.1-3.8h0v-.2c-1.5-2-3.2-4.2-3.8-7.5-1.1-2.7-1.1-6-1.1-10v-6.6h19.5v6.1c0,2.3.4,4.1,1.2,4.9,1.4.9,3.3,1.3,6.1,1.3h40.7c4.8,0,8.9.5,12.1,1.6,3.9.6,6.7,2.3,8.6,3.8h0c2.4,2.5,3.8,4.6,4.8,7.1h0c1.1,3.4,1.6,6.5,1.6,10.7v6.7c0,4.3-.6,8-1.6,10.6-1.2,3.6-3,5.7-4.9,7.6h0c-2,1.6-4.5,2.7-8.5,3.9-3.1,1-7.3,1.6-12.1,1.6h0v-.2h-.2ZM1.9,452.4h66c4.6,0,8.6-.5,11.6-1.5h0c3.8-1.1,6.1-2.1,7.9-3.4,1.6-1.6,3.3-3.6,4.4-6.8h0c1-2.4,1.5-5.9,1.5-10v-6.7c0-3.9-.4-6.9-1.5-10-.9-2.2-2.2-4.1-4.4-6.3-1.8-1.3-4.2-2.9-7.8-3.4h-.2c-2.9-1-6.9-1.5-11.6-1.5H27.2c-3.2,0-5.5-.5-7.2-1.7h0c-1.5-1.6-1.8-4.4-1.8-6.5v-4.2H2.4v4.7c0,4.1,0,7,1,9.4h0v.2c.5,2.8,1.9,4.7,3.3,6.7,2.5,1.9,4.8,3,7.2,3.4h.1c2.9,1,6.9,1.5,11.6,1.5h41.2c3.4,0,6.1.6,7.7,1.7h0c1.8,1.9,2.8,3.6,2.8,7v4.6c0,2.8-1.1,5.2-3,6.5-1.7,1.1-4.4,1.7-7.8,1.7H1.9v14.6h0ZM95.2,384.3H1v-1c0-1,.2-1.7.3-2.4.1-.5.2-.9.2-1.2v-.2h0c1.1-3.5,2.8-6.2,4.9-7.7,1.6-2,4.2-3.7,7.6-4.9h.1c2.9-.5,7.2-1.1,11.5-1.1h69.5v18.4h0ZM3,382.3h90.2v-14.6H25.7c-4.2,0-8.3.5-11.1,1-3.1,1-5.4,2.5-6.7,4.3h0v.2c-1.8,1.3-3.2,3.6-4.3,6.6,0,.5,0,1-.2,1.5,0,.3-.2.6-.2,1h-.2Z"/>
        </g>
        <g>
          <path class="st3" d="M260.2,453.4c-6.7,0-11.9-.5-16-1.5-4.1-1.5-7.7-3.1-10.3-5.2-2.6-2.6-4.1-5.7-5.1-9.3-1-3.6-1.6-8.2-1.6-13.9v-34h19.6v1c-.5,2-.5,4.1-.5,6.7v25.8c0,2.6,0,4.6.5,6.7s1,3.1,2.1,4.1c1,1,2.6,2.1,4.6,2.6,2.1,0,4.1.5,7.2.5h31.4c2.6,0,5.1-.5,6.7-.5,2.1-.5,3.6-1.5,4.6-2.6,1-1,2-2.1,2.6-4.1.5-2,.5-4.1.5-6.7v-25.8c0-2.6,0-4.6-.5-6.7-.5-1.5-1.5-3.1-2.6-4.1-1-1-2.6-2.1-4.6-2.6-1.5,0-4.1-.5-6.7-.5h-63.9l.5-.5c1-4.1,2.6-7.2,5.1-9.3,2.6-2.6,6.2-4.1,10.3-5.2,4.1-1,9.3-1.5,16-1.5h32.5c6.7,0,11.8.5,16,1.5s7.7,2.6,10.3,5.2c2.6,2.1,4.1,5.1,5.1,9.3,1,3.6,1.5,8.2,1.5,13.4v27.3c0,5.7-.5,10.3-1.5,13.9s-2.6,6.7-5.1,9.3c-2.6,2.1-6.2,3.6-10.3,5.2-4.1,1-9.3,1.5-16,1.5h-32.5,0Z"/>
          <path class="st3" d="M292.7,454.3h-32.5c-6.7,0-12-.5-16.2-1.6h-.1c-3.8-1.5-7.8-3.1-10.6-5.3h0c-2.5-2.6-4.2-5.7-5.4-9.8-1.1-3.7-1.6-8.4-1.6-14.2v-35h21.5v2.1h0c-.5,2.1-.5,4-.5,6.6v25.8c0,2.5,0,4.5.5,6.5.5,1.9.9,2.8,1.8,3.7.8.8,2.1,1.8,4.1,2.3.9,0,1.9.1,2.9.2,1.2.1,2.6.3,4.2.3h31.4c1.4,0,2.8-.2,4-.3,1-.1,1.8-.2,2.5-.2,2-.5,3.3-1.5,4.1-2.3,1-1,1.9-1.9,2.3-3.7.5-1.9.5-3.9.5-6.5v-25.8c0-2.5,0-4.5-.5-6.4-.4-1.3-1.3-2.7-2.3-3.7s-2.1-1.8-4.1-2.3c-.7,0-1.5-.1-2.5-.2-1.2-.1-2.7-.3-4-.3h-66.2l2-2c1.1-4.4,2.8-7.5,5.4-9.5,2.5-2.5,5.9-4.2,10.7-5.4,4.2-1.1,9.5-1.6,16.2-1.6h32.5c6.6,0,12,.5,16.2,1.6,4.8,1.2,8.2,2.9,10.7,5.4,2.5,2.1,4.3,5.2,5.4,9.7,1,3.6,1.6,8.3,1.6,13.6v27.3c0,5.7-.5,10.5-1.6,14.2-1.2,4.1-2.9,7.2-5.4,9.7h0c-2.8,2.3-6.7,3.9-10.6,5.4h-.1c-4.2,1.1-9.5,1.6-16.2,1.6h-.1ZM244.6,450.9c4.1,1,9.2,1.5,15.7,1.5h32.5c6.5,0,11.6-.5,15.7-1.5,3.7-1.4,7.4-2.9,10-5,2.2-2.2,3.8-5.1,4.9-8.8,1-3.5,1.5-8.1,1.5-13.6v-27.3c0-5.1-.5-9.7-1.5-13.1h0c-1.1-4.2-2.6-7-4.8-8.8h0c-2.2-2.2-5.4-3.9-9.9-5-4.1-1-9.2-1.5-15.7-1.5h-32.5c-6.5,0-11.6.5-15.7,1.5-4.5,1.1-7.6,2.7-9.9,4.9h0c-2.1,1.8-3.6,4.4-4.6,8.1h62.3c1.5,0,3,.2,4.3.3,1,.1,1.8.2,2.4.2h.2c2.5.7,4.1,1.9,5.1,2.9s2.3,2.9,2.8,4.5h0c.5,2.2.5,4.3.5,7v25.8c0,2.7,0,4.8-.5,6.9-.6,2.3-1.8,3.5-2.8,4.5s-2.6,2.2-5.1,2.9h-.2c-.6,0-1.5,0-2.4.2-1.3.1-2.8.3-4.3.3h-31.4c-1.8,0-3.2-.2-4.4-.3-1-.1-1.9-.2-2.8-.2h-.2c-2.5-.7-4.1-1.9-5.1-2.9-1.1-1.2-1.8-2.4-2.3-4.6-.6-2.2-.6-4.3-.6-6.9v-25.8c0-2.6,0-4.6.5-6.8h-17.6v33c0,5.5.5,10.1,1.5,13.6,1.1,3.8,2.6,6.5,4.9,8.8,2.6,2,6.3,3.6,10,5h0l-.5.2h0Z"/>
        </g>
        <g>
          <path class="st3" d="M419.2,389.5l-24.7,52-8.8-21.6,22.1-49c1-2.6,2.6-4.6,4.1-5.7,2-1.5,4.1-2.1,7.2-2.1s5.7.5,7.7,2.1c1.5,1,3.1,3.1,4.1,5.7l19.6,44.8h0l13.9,34.5c-.5,0-.5.5-1,1-2.1,1.5-4.1,2.1-7.2,2.1s-5.7-.5-7.2-2.1c-2-1.5-3.6-3.6-4.6-6.2l-25.2-55.6h0ZM458.8,419.9l23.2-54.6h21.1c-1,2.1-2.6,5.1-4.1,9.8-2.1,4.1-4.1,8.8-6.7,13.9-2,5.1-4.6,10.8-7.2,16.5-2,5.7-4.6,10.8-7.2,16-2,5.7-4.1,10.3-6.2,14.4-1,3.1-2,5.7-3.1,7.7l-9.8-23.7h0ZM390.3,448.7c-.5,1-1.5,1.5-2.6,2.6-2,1.5-4.1,2.1-7.2,2.1s-5.7-.5-7.7-2.1c-1.5-1.5-3.1-3.6-4.1-6.2l-33.5-79.9h21.6l19.1,47.4,6.2,14.9,8.2,21.1h0Z"/>
          <path class="st3" d="M456.3,454.3c-3.7,0-6.2-.7-7.8-2.3-2.2-1.6-3.8-3.8-4.9-6.5l-24.4-53.7-24.8,52.1-9.7-24,22.3-49.3c1.1-2.7,2.7-4.9,4.5-6.1,2.1-1.6,4.3-2.2,7.8-2.2s6.2.7,8.3,2.2c1.8,1.2,3.4,3.4,4.5,6.1l19.6,44.8,14.4,35.8h-1.2c-.1.2-.3.5-.6.7h-.1c-2.2,1.7-4.3,2.4-7.8,2.4h0ZM419.2,387.2l26.1,57.6c1,2.4,2.4,4.3,4.3,5.8h.1c1.2,1.3,3.3,1.9,6.5,1.9s4.8-.5,6.6-1.8c.1-.1.2-.2.2-.3s.1-.2.2-.3l-13.6-33.8-19.6-44.8c-.9-2.3-2.3-4.3-3.8-5.2h0c-1.7-1.3-4-1.9-7.1-1.9s-4.8.5-6.6,1.9h0c-1.4,1-2.8,2.9-3.8,5.2h0l-22,48.6,7.8,19.2,24.7-51.9h0v-.2h0ZM380.5,454.3c-3.6,0-6.2-.7-8.3-2.2h-.1c-1.9-2-3.4-4.2-4.3-6.6l-34-81.2h23.8l19.3,48,6.2,14.9,8.4,21.5-.2.4c-.4.9-1.1,1.4-1.8,1.9-.3.3-.7.5-1,.9h-.1c-2.2,1.7-4.3,2.4-7.8,2.4h-.1ZM373.4,450.6c1.7,1.3,3.9,1.8,7.1,1.8s4.8-.5,6.6-1.8c.4-.4.8-.7,1.1-1,.4-.4.8-.6,1-1l-8.1-20.7-6.2-14.9-18.8-46.8h-19.5l32.9,78.5c.9,2.1,2.1,4.1,3.9,5.8h0ZM468.5,445.9l-10.8-26,.2-.4,23.4-55.2h23.3l-.7,1.4c-1,2-2.5,5.1-4,9.6h0c-1,2.1-2,4.1-3,6.3-1.2,2.5-2.4,5-3.7,7.7-2,5-4.4,10.4-7.2,16.5-2.1,5.8-4.7,11-7.2,16-1.8,5-3.9,9.8-6.2,14.4-1.1,3.2-2.1,5.7-3.1,7.8l-1,1.9h0ZM459.9,419.9l8.8,21.3c.7-1.6,1.4-3.5,2.1-5.6h0c2.4-4.8,4.3-9.4,6.1-14.5h0c2.5-5.1,5.1-10.3,7.2-16h0c2.8-6.1,5.2-11.5,7.2-16.5h0c1.4-2.8,2.5-5.3,3.7-7.8,1-2.2,2-4.2,3-6.2,1.2-3.7,2.5-6.5,3.5-8.5h-18.9l-22.8,53.6h0v.2h0Z"/>
        </g>
      </g>
      <path class="st3" d="M571,452.8c-3,0-5.8-.8-8.4-2.3s-4.6-3.6-6.2-6.1c-1.6-2.6-2.3-5.4-2.3-8.5v-22.8c0-1.8.5-3.6,1.6-5.5s2.6-3.3,4.5-4.3c-1.1-1.7-1.7-4-1.7-7.1v-12.7c0-3.2.8-6.1,2.3-8.7,1.6-2.6,3.6-4.6,6.2-6.1,2.6-1.5,5.4-2.2,8.4-2.2h43.5c2.7,0,5.3.6,7.7,1.9s4.4,2.9,6.1,5c1.6,2.1,2.7,4.5,3.3,7v10.1h-17.2v-6.1c0-.2,0-.3-.2-.4s-.3-.2-.5-.2h-41.8c-.2,0-.3,0-.5.2s-.2.3-.2.4v13.6l46.6,23.4v-12.2h17.1v19.5l14.2,8.4v17.4l-16.8-9.6c-1.6,2.4-3.7,4.4-6.2,5.8-2.6,1.5-5.2,2.2-8,2.2h-51.5,0ZM571.8,435.7h38.2c.8,0,1.6,0,2.4-.2.8-.1,1.6-.3,2.4-.5l-41-20.7-1.8-.7c-.3,0-.6.3-.7,1s-.2,2.1-.2,4.4v16c0,.2,0,.3.2.5s.3.2.5.2h0Z"/>
      <path class="st3" d="M791.7,432.2h-53.7l-12.6,20.5h-22.6l51-81.6c1.6-2.6,3.7-4.7,5.8-6.3,2.1-1.6,5.3-2.6,8.9-2.6s7.4,1.1,9.5,2.6c2.1,1.6,3.7,3.7,5.3,6.3l51,81.6h-22.6l-6.3-10.5-25.3-41-11.6-18.9-21.6,34.7h35.2l9.5,15.3h0Z"/>
      <path class="st3" d="M1043.4,432.2h-53.7l-12.6,20.5h-22.6l51-81.6c1.6-2.6,3.7-4.7,5.8-6.3,2.1-1.6,5.3-2.6,8.9-2.6s7.4,1.1,9.5,2.6c2.1,1.6,3.7,3.7,5.3,6.3l51,81.6h-22.6l-6.3-10.5-25.3-41-11.6-18.9-21.6,34.7h35.2l9.5,15.3h0Z"/>
      <path class="st3" d="M1326.5,452.8v-16.8h67.4c3.2,0,5.8-.5,7.4-1.6s2.6-3.2,2.6-5.8v-4.7c0-3.1-1.1-4.7-2.6-6.3-1.6-1-4.2-1.6-7.4-1.6h-42.1c-4.7,0-8.9-.5-12.1-1.6-3.2-.5-5.8-2.1-7.9-3.7-1.6-2.1-3.2-4.2-3.7-7.4-1.1-2.6-1.1-5.8-1.1-10v-5.8h17.9v5.3c0,2.6.5,4.7,1.6,5.8,1.6,1.1,3.7,1.6,6.8,1.6h41.6c4.7,0,8.9.5,12.1,1.6,3.7.5,6.3,2.1,8.4,3.7,2.1,2.1,3.7,4.2,4.7,6.8,1.1,3.1,1.6,6.3,1.6,10.5v6.8c0,4.2-.5,7.9-1.6,10.5-1.1,3.2-2.6,5.3-4.7,7.4-2.1,1.6-4.7,2.6-8.4,3.7-3.2,1-7.4,1.6-12.1,1.6h-68.4ZM1327.6,381.2c0-1.6.5-2.6.5-3.7,1.1-3.1,2.6-5.8,4.7-7.4,1.6-2.1,4.2-3.7,7.4-4.7,3.2-.5,7.4-1.1,11.6-1.1h70v16.8h-94.2Z"/>
      <path class="st3" d="M896.4,389.1l-25.2,53.1-9-22.1,22.6-50c1.1-2.6,2.6-4.7,4.2-5.8,2.1-1.6,4.2-2.1,7.4-2.1s5.8.5,7.9,2.1c1.6,1.1,3.2,3.1,4.2,5.8l20,45.8h0l14.2,35.3c-.5,0-.5.5-1.1,1-2.1,1.6-4.2,2.1-7.4,2.1s-5.8-.5-7.4-2.1c-2.1-1.6-3.7-3.7-4.7-6.3l-25.8-56.8h0ZM936.9,420.1l23.7-55.8h21.6c-1.1,2.1-2.6,5.3-4.2,10-2.1,4.2-4.2,8.9-6.8,14.2-2.1,5.3-4.7,11-7.4,16.8-2.1,5.8-4.7,11-7.4,16.3-2.1,5.8-4.2,10.5-6.3,14.7-1.1,3.2-2.1,5.8-3.2,7.9l-10-24.2h0ZM866.9,449.6c-.5,1-1.6,1.6-2.6,2.6-2.1,1.6-4.2,2.1-7.4,2.1s-5.8-.5-7.9-2.1c-1.6-1.6-3.2-3.7-4.2-6.3l-34.2-81.6h22.1l19.5,48.4,6.3,15.3,8.4,21.6h0Z"/>
      <path class="st3" d="M1212.3,452.8v-65.2h20v48.4h49.5c2.6,0,4.7-.5,6.8-1.1,1.6,0,3.2-1,4.7-2.1,1.1-1,1.6-2.6,2.6-4.2.5-2.1.5-4.2.5-6.8v-26.3c0-2.6,0-4.7-.5-6.8-.5-1.6-1.6-3.2-2.6-4.2-1.1-1.1-2.6-2.1-4.7-2.6-1.6,0-4.2-.5-6.8-.5h-69.5v-16.8h70c6.8,0,12.1.5,16.3,1.6,4.2,1.1,7.9,2.6,10.5,5.3,2.6,2.1,4.2,5.3,5.3,9.5,1.1,3.7,2.1,8.4,2.1,13.7v27.9c0,5.8-1.1,10.5-2.1,14.2-1.1,3.7-2.6,6.8-5.3,9.5-2.6,2.1-6.3,3.7-10.5,5.3-4.2,1-9.5,1.6-16.3,1.6h-70v-.4Z"/>
      <g>
        <path class="st3" d="M1114.6,422.8v30h-19.5v-65.8h19.5v21h48.4c3.2,0,5.8-.5,7.9-.5,2.1-.5,3.7-1.1,4.7-1.6,1.6-1,2.1-2.1,2.6-3.7.5-1,1-3.1,1-5.8v-4.7c0-2.1-.5-4.2-1-5.8-.5-1.1-1.1-2.1-2.6-3.2-1-.5-2.6-1-4.7-1.6-2.1,0-4.7-.5-7.9-.5h-67.9v-16.3h68.9c6.3,0,11.6.5,15.8,1.1,4.7,1,8.4,2.1,11.1,4.2,2.6,2.1,4.7,4.7,6.3,7.9,1,3.7,1.6,7.9,1.6,13.1v6.3c0,5.3-.5,9.5-2.1,12.6-1.1,3.2-3.2,5.8-6.3,7.9-2.6,2.1-6.3,3.2-11.1,4.2-4.2.5-9.5,1.1-15.3,1.1h-49.5,0Z"/>
        <polygon class="st3" points="1173.5 452.8 1198.8 452.8 1170.4 420.7 1144.6 420.7 1173.5 452.8"/>
      </g>
    </g>
    <path class="st2" d="M415.8,653.9v-61.7h5v61.7h-5Z"/>
    <path class="st2" d="M834,653.9v-61.7h5v61.7h-5Z"/>
    <g id="Layer_1-21">
      <g>
        <g>
          <path class="st2" d="M1196.3,586.6h.2v.2c0,.2,0,0-.2,0s0,0,0-.2Z"/>
          <path class="st2" d="M1195.5,581.7v.2c0,0,0,0,.2,0s0,0,0-.2,0,0-.2,0Z"/>
          <path class="st2" d="M1195.1,576.8h.2v.2c0,.2,0,0-.2,0s0,0,0-.2Z"/>
          <path class="st2" d="M1195.1,571.9h.2v.2c0,.2,0,0-.2,0s0,0,0-.2Z"/>
          <path class="st2" d="M1195.5,567v.2h.2v-.2h-.2Z"/>
          <path class="st2" d="M1196.2,562.1h.2c.2,0,0,0,0,.2s0,0-.2,0,0,0,0-.2Z"/>
          <path class="st2" d="M1197.4,557.3v.2h.2v-.2h-.2Z"/>
          <path class="st2" d="M1198.9,552.7h.2v.2h-.2v-.2Z"/>
          <path class="st2" d="M1200.7,548.1h.3c.1,0,0,.2,0,.3s-.2,0-.3,0,0-.2,0-.3Z"/>
          <path class="st2" d="M1202.9,543.7h.3c.1,0,0,.2,0,.3s-.2,0-.3,0,0-.2,0-.3Z"/>
          <path class="st2" d="M1205.4,539.5h.3c.1,0,0,.2,0,.3s-.2,0-.3,0,0-.2,0-.3Z"/>
          <path class="st2" d="M1208.3,535.5h.3c.1,0,0,.2,0,.3s-.2,0-.3,0v-.3Z"/>
          <path class="st2" d="M1211.4,531.7v.3h.3c.1,0,0-.2,0-.3s-.2,0-.3,0Z"/>
          <path class="st2" d="M1214.9,528.2h.3c.1,0,0,.2,0,.3s-.2,0-.3,0,0-.2,0-.3Z"/>
          <path class="st2" d="M1218.6,525h.3c.1,0,0,.2,0,.3s-.2,0-.3,0,0-.2,0-.3Z"/>
          <path class="st2" d="M1222.5,522h.3c.1,0,0,.2,0,.3s-.2,0-.3,0,0-.2,0-.3h0Z"/>
          <path class="st2" d="M1226.6,519.4h.3c.1,0,0,.2,0,.3s-.2,0-.3,0,0-.2,0-.3Z"/>
          <path class="st2" d="M1231,517.1h.3c.1,0,0,.2,0,.3s-.2,0-.3,0,0-.2,0-.3Z"/>
          <path class="st2" d="M1235.5,515.1v.3h.3c.1,0,0-.2,0-.3s-.2,0-.3,0Z"/>
          <path class="st2" d="M1240.1,513.6h.3c.1,0,0,.2,0,.3s-.2,0-.3,0,0-.2,0-.3Z"/>
          <path class="st2" d="M1244.9,512.3v.3h.3c.1,0,0-.2,0-.3s-.2,0-.3,0Z"/>
          <path class="st2" d="M1249.8,511.7h.3v-.3h-.3c0,0,0,.2,0,.3h0Z"/>
          <path class="st2" d="M1254.7,511v.2h.2v-.2h-.2Z"/>
          <path class="st2" d="M1259.6,510.9v.2h.2v-.2h-.2Z"/>
          <path class="st2" d="M1264.5,511.4h.2v-.2h-.2v.2Z"/>
          <path class="st2" d="M1269.4,511.8h.2v.2c0,0,0,0-.2,0s0-.1,0-.2Z"/>
          <path class="st2" d="M1274.2,512.9h.2v.2c0,.2,0,0-.2,0s0,0,0-.2Z"/>
          <path class="st2" d="M1278.9,514.3v.2h.2v-.2h-.2Z"/>
          <path class="st2" d="M1283.5,516h.2v.2c0,.2,0,0-.2,0v-.2Z"/>
          <path class="st2" d="M1287.9,518.2v.2h.2v-.2h-.2Z"/>
          <path class="st2" d="M1292.2,520.6h.2v.2c0,.2,0,0-.2,0s0,0,0-.2Z"/>
          <path class="st2" d="M1296.2,523.4h.2v.2c0,.2,0,0-.2,0s0,0,0-.2Z"/>
          <path class="st2" d="M1300.1,526.4h.2c.2,0,0,0,0,.2s0,0-.2,0,0,0,0-.2Z"/>
          <path class="st2" d="M1303.6,529.8h.2v.2h-.2v-.2Z"/>
          <path class="st2" d="M1306.9,533.4h.2v.2h-.2v-.2Z"/>
          <path class="st2" d="M1309.9,537.3h.3c.1,0,0,.2,0,.3s-.2,0-.3,0,0-.2,0-.3h0Z"/>
          <path class="st2" d="M1312.6,541.4h.3c.1,0,0,.2,0,.3s-.2,0-.3,0,0-.2,0-.3Z"/>
          <path class="st2" d="M1315,545.7h.3c.1,0,0,.2,0,.3s-.2,0-.3,0,0-.2,0-.3Z"/>
          <path class="st2" d="M1317,550.2v.3h.3c.1,0,0-.2,0-.3s-.2,0-.3,0Z"/>
          <path class="st2" d="M1318.7,554.8v.3h.3v-.3h-.3Z"/>
          <path class="st2" d="M1320,559.5v.3h.3v-.3h-.3Z"/>
          <path class="st2" d="M1321,564.3v.3h.3v-.3h-.3Z"/>
          <path class="st2" d="M1321.5,569.2s.2-.2.3,0,.2.2,0,.3-.2.2-.3,0-.2-.2,0-.3Z"/>
          <path class="st2" d="M1321.7,574.1s.2-.2.3,0,.2.2,0,.3-.2.2-.3,0-.2-.2,0-.3Z"/>
          <path class="st2" d="M1204.5,592.1h.2v.2h-.2v-.2Z"/>
          <path class="st2" d="M1203,587.1h.3c.1,0,0,.2,0,.3s-.2,0-.3,0,0-.2,0-.3h0Z"/>
          <path class="st2" d="M1202.1,582h.3c.1,0,0,.2,0,.3s-.2,0-.3,0,0-.2,0-.3Z"/>
          <path class="st2" d="M1201.6,576.9h.3c.1,0,0,.2,0,.3s-.2,0-.3,0v-.3Z"/>
          <path class="st2" d="M1201.6,571.7v.3h.3v-.3h-.3Z"/>
          <path class="st2" d="M1202,566.5s.2-.2.4,0,.2.2,0,.4-.2.2-.4,0-.2-.2,0-.4Z"/>
          <path class="st2" d="M1202.9,561.4s.2-.2.4,0,.2.2,0,.4-.2.2-.4,0-.2-.2,0-.4Z"/>
          <path class="st2" d="M1204.3,556.4v.4c0,.1.3,0,.4,0s0-.3,0-.4-.3,0-.4,0Z"/>
          <path class="st2" d="M1206.1,551.6s.3-.2.4,0c0,0,.2.3,0,.4s-.3.2-.4,0-.2-.3,0-.4Z"/>
          <path class="st2" d="M1208.4,546.9v.4h.4v-.4h-.4Z"/>
          <path class="st2" d="M1211.1,542.5c0-.2.3-.2.5,0s.2.3,0,.5-.3.2-.5,0-.2-.3,0-.5Z"/>
          <path class="st2" d="M1214.1,538.3v.5c0,0,.4,0,.5,0s0-.4,0-.5-.4,0-.5,0Z"/>
          <path class="st2" d="M1217.6,534.5c0-.2.3-.2.5,0s.2.3,0,.5-.3.2-.5,0-.2-.3,0-.5Z"/>
          <path class="st2" d="M1221.3,530.9c0-.2.3-.2.5,0,.2,0,.2.3,0,.5s-.3.2-.5,0-.2-.3,0-.5Z"/>
          <path class="st2" d="M1225.4,527.7c0-.2.3-.2.5,0s.2.3,0,.5-.3.2-.5,0-.2-.3,0-.5Z"/>
          <path class="st2" d="M1229.8,525.4h.5v-.5h-.5v.5Z"/>
          <path class="st2" d="M1234.4,522.6c0-.2.3-.2.5,0s.2.3,0,.5-.3.2-.5,0-.2-.3,0-.5Z"/>
          <path class="st2" d="M1239.2,521.1h.5v-.5h-.5c0,0,0,.4,0,.5Z"/>
          <path class="st2" d="M1244.1,519.1c0-.2.3-.2.5,0s.2.3,0,.5-.3.2-.5,0-.2-.3,0-.5Z"/>
          <path class="st2" d="M1249.2,518v.5c0,0,.4,0,.5,0s0-.4,0-.5-.4,0-.5,0Z"/>
          <path class="st2" d="M1254.4,517.5v.4c0,.1.3,0,.4,0s0-.3,0-.4-.3,0-.4,0Z"/>
          <path class="st2" d="M1259.6,517.3v.4c0,.1.3,0,.4,0s0-.3,0-.4-.3,0-.4,0Z"/>
          <path class="st2" d="M1264.7,517.7s.2-.2.4,0,.2.2,0,.4-.2.2-.4,0-.2-.2,0-.4Z"/>
          <path class="st2" d="M1269.9,518.5s.2-.2.3,0,.2.2,0,.3-.2.2-.3,0-.2-.2,0-.3Z"/>
          <path class="st2" d="M1274.9,519.8v.3h.3v-.3h-.3Z"/>
          <path class="st2" d="M1279.8,521.5v.3h.3v-.3h-.3Z"/>
          <path class="st2" d="M1284.5,523.7s.2-.2.3,0,.2.2,0,.3-.2.2-.3,0-.2-.2,0-.3Z"/>
          <path class="st2" d="M1288.9,526.3s.2-.2.3,0,.2.2,0,.3-.2.2-.3,0-.2-.2,0-.3Z"/>
          <path class="st2" d="M1293.2,529.2s.2-.2.4,0,.2.2,0,.4-.2.2-.4,0-.2-.2,0-.4Z"/>
          <path class="st2" d="M1297.1,532.6v.4c0,.1.3,0,.4,0s0-.3,0-.4-.3,0-.4,0Z"/>
          <path class="st2" d="M1300.8,536.7h.4v-.4h-.4v.4Z"/>
          <path class="st2" d="M1303.9,540.3c0,.2,0,.4.2.4s.4,0,.4-.2,0-.4-.2-.4-.4,0-.4.2Z"/>
          <path class="st2" d="M1306.8,544.5v.5c0,0,.4,0,.5,0s0-.4,0-.5h-.5Z"/>
          <path class="st2" d="M1309.3,549.1v.5c0,0,.4,0,.5,0s0-.4,0-.5-.4,0-.5,0Z"/>
          <path class="st2" d="M1311.4,553.8v.5c0,0,.4,0,.5,0s0-.4,0-.5-.4,0-.5,0Z"/>
          <path class="st2" d="M1313,559.2c.2.2.4,0,.6,0s0-.4,0-.6-.4,0-.6,0,0,.4,0,.6Z"/>
          <path class="st2" d="M1314.1,563.7c0,.2,0,.5.2.6s.5,0,.6-.2,0-.5-.2-.6-.5,0-.6.2Z"/>
          <path class="st2" d="M1314.9,569.4c0,.2.4.2.6,0,.2,0,.2-.4,0-.6,0-.2-.4-.2-.6,0-.2,0-.2.4,0,.6Z"/>
          <path class="st2" d="M1315.1,574c0,.2,0,.5.2.6s.5,0,.6-.2,0-.5-.2-.6-.5,0-.6.2Z"/>
          <path class="st2" d="M1314.9,579.2c0,.2,0,.5.2.6s.5,0,.6-.2,0-.5-.2-.6-.5,0-.6.2Z"/>
          <path class="st2" d="M1314.2,584.3c0,.2,0,.5.2.6s.5,0,.6-.2,0-.5-.2-.6-.5,0-.6.2Z"/>
          <path class="st2" d="M1313,589.4c0,.2,0,.4.2.6s.4,0,.6,0c0-.2,0-.4-.2-.6s-.4,0-.6.2h0v-.2Z"/>
          <path class="st2" d="M1212,593.8h.3c.1,0,0,.2,0,.3s-.2,0-.3,0,0-.2,0-.3Z"/>
          <path class="st2" d="M1210.1,588.6s.2-.2.4,0,.2.2,0,.4-.2.2-.4,0-.2-.2,0-.4Z"/>
          <path class="st2" d="M1208.8,583.3s.3-.2.4,0,.2.3,0,.4-.3.2-.4,0c0,0-.2-.3,0-.4Z"/>
          <path class="st2" d="M1208.1,577.9c0-.2.3-.2.4,0s.2.3,0,.4-.3.2-.4,0-.2-.3,0-.4h0Z"/>
          <path class="st2" d="M1207.9,572.4v.5c0,0,.4,0,.5,0s0-.4,0-.5-.4,0-.5,0Z"/>
          <path class="st2" d="M1208.4,567v.5c0,0,.4,0,.5,0s0-.4,0-.5-.4,0-.5,0Z"/>
          <path class="st2" d="M1209.5,561.6c0-.2.4-.3.6,0s.3.4,0,.6-.4.3-.6,0-.3-.4,0-.6Z"/>
          <path class="st2" d="M1211.1,556.4c0-.2.4-.3.6-.2s.3.4.2.6-.4.3-.6.2-.3-.4-.2-.6Z"/>
          <path class="st2" d="M1213.3,551.4c0-.2.4-.3.6-.2s.3.4.2.6-.4.3-.6.2-.3-.4-.2-.6h0Z"/>
          <path class="st2" d="M1216,546.6c0-.2.4-.3.6-.2s.3.4.2.6-.4.3-.6.2-.3-.4-.2-.6h0Z"/>
          <path class="st2" d="M1219.2,542.2c0-.2.4-.3.7-.2s.3.4.2.7-.4.3-.7.2-.3-.4-.2-.7Z"/>
          <path class="st2" d="M1222.8,538.2c0-.2.4-.3.7-.2.2,0,.3.4.2.7s-.4.3-.7.2c-.2,0-.3-.4-.2-.7Z"/>
          <path class="st2" d="M1226.8,534.8c0,.3.2.5.4.6s.5-.2.6-.4-.2-.5-.4-.6-.5.2-.6.4Z"/>
          <path class="st2" d="M1231.3,531.4c0,.2,0,.6.2.7s.6,0,.7-.2,0-.6-.2-.7-.6,0-.7.2Z"/>
          <path class="st2" d="M1236,529c0,.3.2.6.5.6s.6-.2.6-.5-.2-.6-.5-.6-.6.2-.6.5Z"/>
          <path class="st2" d="M1241.1,526.7c0,.2,0,.6.2.7s.6,0,.7-.2,0-.6-.2-.7-.6,0-.7.2Z"/>
          <path class="st2" d="M1246.4,525.1c0-.2.4-.3.7-.2s.3.4.2.7-.4.3-.7.2-.3-.4-.2-.7Z"/>
          <path class="st2" d="M1251.8,524.2c0-.2.4-.3.6-.2s.3.4.2.6-.4.3-.6.2-.3-.4-.2-.6Z"/>
          <path class="st2" d="M1257.3,523.8c0,.2,0,.5.2.6s.5,0,.6-.2,0-.5-.2-.6-.5,0-.6.2Z"/>
          <path class="st2" d="M1262.7,524v.5c0,0,.4,0,.5,0v-.5c0,0-.4,0-.5,0Z"/>
          <path class="st2" d="M1268.2,524.8v.5c0,0,.4,0,.5,0s0-.4,0-.5-.4,0-.5,0Z"/>
          <path class="st2" d="M1273.5,526.1c0-.2.3-.2.5,0s.2.3,0,.5-.3.2-.5,0c-.2,0-.2-.3,0-.5h0Z"/>
          <path class="st2" d="M1278.6,528.1c0-.2.3-.2.5,0s.2.3,0,.5-.3.2-.5,0-.2-.3,0-.5Z"/>
          <path class="st2" d="M1283.4,530.5v.5c0,0,.4,0,.5,0s0-.4,0-.5-.4,0-.5,0Z"/>
          <path class="st2" d="M1288,533.5v.5c0,0,.4,0,.5,0s0-.4,0-.5-.4,0-.5,0Z"/>
          <path class="st2" d="M1292.1,537c0,.2,0,.4.2.5s.4,0,.5-.2c0-.2,0-.4-.2-.5s-.4,0-.5.2Z"/>
          <path class="st2" d="M1296,540.8c0,.2,0,.5.2.6s.5,0,.6-.2,0-.5-.2-.6-.5,0-.6.2h0Z"/>
          <path class="st2" d="M1299.3,545c0,.2,0,.5.2.6s.5,0,.6-.2,0-.5-.2-.6-.5,0-.6.2Z"/>
          <path class="st2" d="M1302.2,549.6c0,.2,0,.6.2.7s.6,0,.7-.2,0-.6-.2-.7-.6,0-.7.2Z"/>
          <path class="st2" d="M1304.5,554.5c0,.3,0,.6.2.7s.6,0,.7-.2,0-.6-.2-.7-.6,0-.7.2Z"/>
          <path class="st2" d="M1306.3,559.6c-.2.3,0,.6.2.8s.6,0,.8-.2,0-.6-.2-.8-.6,0-.8.2Z"/>
          <path class="st2" d="M1307.6,564.9c-.2.3,0,.7.2.8s.7,0,.8-.2,0-.7-.2-.8c-.3-.2-.7,0-.8.2Z"/>
          <path class="st2" d="M1308.3,570.3c-.2.3,0,.7.2.8s.7,0,.8-.2,0-.7-.2-.8-.7,0-.8.2Z"/>
          <path class="st2" d="M1308.3,576.1c0,.3.3.6.6.6s.6-.3.6-.6-.3-.6-.6-.6-.6.3-.6.6h0Z"/>
          <path class="st2" d="M1307.9,581.2c-.2.3,0,.7.2.8s.7,0,.8-.2,0-.7-.2-.8-.7,0-.8.2Z"/>
          <path class="st2" d="M1307,587.3c.2.2.6.2.8,0s.2-.6,0-.8-.6-.2-.8,0-.2.6,0,.8Z"/>
          <path class="st2" d="M1305.3,592.4c.2.2.5.3.8,0,.2-.2.3-.5,0-.8-.2-.2-.5-.3-.8,0-.2.2-.3.5,0,.8Z"/>
          <path class="st2" d="M1217.8,591s.3-.2.4,0,.2.3,0,.4c0,0-.3.2-.4,0s-.2-.3,0-.4Z"/>
          <path class="st2" d="M1215.9,585.6c0-.2.3-.2.5,0s.2.3,0,.5-.3.2-.5,0c-.2,0-.2-.3,0-.5h0Z"/>
          <path class="st2" d="M1214.8,579.9c0-.2.4-.3.5,0s.3.4,0,.5-.4.3-.5,0-.3-.4,0-.5Z"/>
          <path class="st2" d="M1214.3,574.2c0-.2.4-.3.6-.2s.3.4.2.6-.4.3-.6.2-.3-.4-.2-.6Z"/>
          <path class="st2" d="M1214.7,568.4c0-.2.4-.3.7-.2.2,0,.3.4.2.7s-.4.3-.7.2-.3-.4-.2-.7Z"/>
          <path class="st2" d="M1215.7,562.8c0-.3.5-.3.7-.2.3,0,.3.5.2.7s-.5.3-.7.2-.3-.5-.2-.7h0Z"/>
          <path class="st2" d="M1217.6,557.3c-.2.3,0,.6.2.8.3.2.6,0,.8-.2s0-.6-.2-.8-.6,0-.8.2Z"/>
          <path class="st2" d="M1220,552.4c0,.3.2.6.5.7.3,0,.6-.2.7-.5,0-.3-.2-.6-.5-.7-.3,0-.6.2-.7.5Z"/>
          <path class="st2" d="M1223.2,547.4c-.2.3,0,.7.2.9s.7,0,.9-.2,0-.7-.2-.9-.7,0-.9.2Z"/>
          <path class="st2" d="M1227,543c-.2.3,0,.7.2.9s.7,0,.9-.2,0-.7-.2-.9c-.3-.2-.7,0-.9.2Z"/>
          <path class="st2" d="M1231.5,540.1c.3.2.7,0,.9-.2s0-.7-.2-.9-.7,0-.9.2,0,.7.2.9Z"/>
          <path class="st2" d="M1236.2,536.9c.3.2.7,0,.9-.2.2-.3,0-.7-.2-.9-.3-.2-.7,0-.9.2-.2.3,0,.7.2.9h0Z"/>
          <path class="st2" d="M1241.1,533.8c0,.4.2.7.6.8s.7-.2.8-.6c0-.4-.2-.7-.6-.8s-.7.2-.8.6Z"/>
          <path class="st2" d="M1246.6,531.8c0,.3,0,.7.4.8.3,0,.7,0,.8-.4,0-.3,0-.7-.4-.8-.3,0-.7,0-.8.4Z"/>
          <path class="st2" d="M1252.4,531.3c.3.2.6.2.8,0,.2-.3.2-.6,0-.8-.3-.2-.6-.2-.8,0-.2.3-.2.6,0,.8Z"/>
          <path class="st2" d="M1258.1,530.2c0-.3.5-.3.7-.2s.3.5.2.7-.5.3-.7.2-.3-.5-.2-.7Z"/>
          <path class="st2" d="M1263.8,530.6c0,.2,0,.5.2.7s.5,0,.7-.2,0-.5-.2-.6-.5,0-.6.2h0Z"/>
          <path class="st2" d="M1269.5,531.7c0-.2.4-.3.6-.2s.3.4.2.6c0,.2-.4.3-.6.2s-.3-.4-.2-.6Z"/>
          <path class="st2" d="M1274.9,533.6c0-.2.4-.3.6-.2s.3.4.2.6-.4.3-.6.2-.3-.4-.2-.6Z"/>
          <path class="st2" d="M1280.1,536.1c0,.2,0,.5.2.6s.5,0,.6-.2,0-.5-.2-.6-.5,0-.6.2h0Z"/>
          <path class="st2" d="M1284.8,539.3c0,.2,0,.5.2.7s.5,0,.7-.2,0-.5-.2-.7-.5,0-.7.2Z"/>
          <path class="st2" d="M1289.1,543c0,.3,0,.6.2.7s.6,0,.7-.2c0-.3,0-.6-.2-.7s-.6,0-.7.2Z"/>
          <path class="st2" d="M1292.8,547.3c-.2.3,0,.6.2.8s.6,0,.8-.2,0-.6-.2-.8c-.3-.2-.6,0-.8.2Z"/>
          <path class="st2" d="M1296,552c-.2.3,0,.7.2.9.3.2.7,0,.9-.2s0-.7-.2-.9-.7,0-.9.2Z"/>
          <path class="st2" d="M1298.5,557.1c-.2.3,0,.8.3,1s.8,0,1-.3,0-.8-.3-1-.8,0-1,.3Z"/>
          <path class="st2" d="M1300.4,563.5c.3.3.8.3,1.1,0s.3-.8,0-1.1-.8-.3-1.1,0c-.3.3-.3.8,0,1.1Z"/>
          <path class="st2" d="M1301.4,568.2c-.2.4,0,.9.3,1.1.4.2.9,0,1.1-.3s0-.9-.3-1.1-.9,0-1.1.3h0Z"/>
          <path class="st2" d="M1301.7,574.7c.2.4.7.5,1.1.3s.5-.7.3-1.1c-.2-.4-.7-.5-1.1-.3s-.5.7-.3,1.1Z"/>
          <path class="st2" d="M1301.4,579.6c-.2.4,0,.9.3,1.1s.9,0,1.1-.3,0-.9-.3-1.1c-.4-.2-.9,0-1.1.3Z"/>
          <path class="st2" d="M1300.3,585.2c-.2.4,0,.8.3,1s.8,0,1-.3c.2-.4,0-.8-.3-1s-.8,0-1,.3Z"/>
          <path class="st2" d="M1298.5,590.7c-.2.3,0,.8.3.9s.8,0,.9-.3c.2-.3,0-.8-.3-.9s-.8,0-.9.3Z"/>
          <path class="st2" d="M1223.9,588.8c0-.2.3-.2.5,0s.2.3,0,.5-.3.2-.5,0-.2-.3,0-.5Z"/>
          <path class="st2" d="M1222,583.1c0-.2.4-.3.6-.2s.3.4.2.6-.4.3-.6.2-.3-.4-.2-.6Z"/>
          <path class="st2" d="M1220.9,577.1c0,.2,0,.6.2.7.2,0,.6,0,.7-.2s0-.6-.2-.7-.6,0-.7.2Z"/>
          <path class="st2" d="M1220.9,571.1c.2-.3.5-.4.8-.2s.4.5.2.8-.5.4-.8.2-.4-.5-.2-.8Z"/>
          <path class="st2" d="M1221.8,565.1c.2-.3.6-.4.9-.2s.4.6.2.9-.6.4-.9.2-.4-.6-.2-.9Z"/>
          <path class="st2" d="M1223.7,560.2c.3.3.7.3,1,0s.3-.7,0-1-.7-.3-1,0-.3.7,0,1Z"/>
          <path class="st2" d="M1226.3,554c-.2.4,0,.8.3,1,.4.2.8,0,1-.3s0-.8-.3-1-.8,0-1,.3Z"/>
          <path class="st2" d="M1229.9,549.2c-.2.4,0,.9.3,1.1s.9,0,1.1-.3c.2-.4,0-.9-.3-1.1-.4-.2-.9,0-1.1.3Z"/>
          <path class="st2" d="M1234.4,546.1c.3.3.9.2,1.1,0s.2-.9,0-1.1-.9-.2-1.1,0-.2.9,0,1.1Z"/>
          <path class="st2" d="M1239,541.9c0,.5.3.9.7.9s.9-.3.9-.7-.3-.9-.7-.9-.9.3-.9.7Z"/>
          <path class="st2" d="M1244.6,539c-.2.4,0,.9.3,1.1s.9,0,1.1-.3,0-.9-.3-1.1-.9,0-1.1.3Z"/>
          <path class="st2" d="M1250.4,537.4c-.2.4,0,.8.3,1s.8,0,1-.3c.2-.4,0-.8-.3-1s-.8,0-1,.3Z"/>
          <path class="st2" d="M1256.6,537.5c.3.2.7.2.9,0,.2-.3.2-.7,0-.9-.3-.2-.7-.2-.9,0-.2.3-.2.7,0,.9Z"/>
          <path class="st2" d="M1262.5,536.9c.2-.3.5-.4.8-.2s.4.5.2.8-.5.4-.8.2-.4-.5-.2-.8Z"/>
          <path class="st2" d="M1268.5,538.2c0-.3.5-.3.7-.2s.3.5.2.7c0,.3-.5.3-.7.2s-.3-.5-.2-.7Z"/>
          <path class="st2" d="M1274.1,540.3c0-.3.5-.3.7-.2s.3.5.2.7c0,.3-.5.3-.7.2s-.3-.5-.2-.7Z"/>
          <path class="st2" d="M1279.3,543.3c-.2.3,0,.6.2.8s.6,0,.8-.2c.2-.3,0-.6-.2-.8s-.6,0-.8.2Z"/>
          <path class="st2" d="M1283.9,547c-.2.3,0,.7.2.9.3.2.7,0,.9-.2s0-.7-.2-.9-.7,0-.9.2Z"/>
          <path class="st2" d="M1287.8,551.5c-.2.3,0,.8.3,1s.8,0,1-.3,0-.8-.3-1-.8,0-1,.3Z"/>
          <path class="st2" d="M1291.1,557.5c.3.3.8.3,1.2,0,.3-.3.3-.8,0-1.2-.3-.3-.8-.3-1.2,0-.3.3-.3.8,0,1.2Z"/>
          <path class="st2" d="M1293.2,562c-.2.4,0,1,.3,1.2s1,0,1.2-.3,0-1-.3-1.2-1,0-1.2.3Z"/>
          <path class="st2" d="M1294.6,567.8c-.3.5,0,1,.4,1.3s1,0,1.3-.4,0-1-.4-1.3-1,0-1.3.4Z"/>
          <path class="st2" d="M1295.1,573.8c-.3.5,0,1.1.4,1.3.5.3,1.1,0,1.3-.4s0-1.1-.4-1.3c-.5-.3-1.1,0-1.3.4Z"/>
          <path class="st2" d="M1294.6,579.8c-.3.5,0,1.1.4,1.3.5.3,1.1,0,1.3-.4.3-.5,0-1.1-.4-1.3-.5-.3-1.1,0-1.3.4Z"/>
        </g>
        <g>
          <path class="st2" d="M1411,651.9c-4.3,0-9.4-1.8-9.4-10.4v-11.9c0-4.4-2.3-6.9-6.4-6.9s-7,2.9-7,7.2v21.6h-10.5v-37.8h10.5v2.9c2.3-2.3,5.7-3.7,9.6-3.7,8.8,0,14.3,5.9,14.3,15.4v11.2c0,2.7.5,2.7,1.3,2.7h1l1.3-.2v9.2l-.8.2c-1.1.3-2.4.5-3.9.5h0Z"/>
          <path class="st2" d="M1369.3,618.4c-3.9-3.8-8.8-5.7-14.5-5.7s-10.5,1.9-14.5,5.7c-3.9,3.8-6,8.6-6,14.2s2,10.4,6,14.2c3.9,3.8,8.8,5.7,14.5,5.7s10.5-1.9,14.5-5.7c3.9-3.8,6-8.6,6-14.2s-2-10.4-6-14.2ZM1361.9,639.9c-1.9,1.9-4.2,2.9-7.1,2.9s-5.2-.9-7.1-2.8c-1.9-2-2.8-4.4-2.8-7.3s.9-5.2,2.8-7.2,4.2-3,7.1-3,5.2,1,7.1,3c1.9,1.9,2.9,4.3,2.9,7.2s-.9,5.3-2.9,7.2h0Z"/>
          <path class="st2" d="M1320.8,652.5c-5.7,0-10.6-1.9-14.5-5.7s-5.9-8.6-5.9-14.3,2-10.4,5.9-14.2,8.8-5.7,14.5-5.7,11,2.2,15,6.5l.7.8-6.7,7-.8-.8c-2.1-2.3-5.2-3.6-8.3-3.6s-5.2.9-7.1,2.9c-1.9,1.9-2.8,4.3-2.8,7.2s.9,5.3,2.8,7.2,4.2,2.8,7.1,2.8,6-1.2,8.3-3.6l.8-.8,6.7,7-.7.8c-4,4.3-9,6.5-15,6.5h0Z"/>
          <path class="st2" d="M1283.5,652.4c-7.4,0-13.1-2.8-15.6-7.8l-.3-.8,7-5.9.6,1c1.6,2.4,4.8,4,8.5,4s5.3-.3,5.3-2.8-1-1.7-1.5-1.9h0c-.6-.5-2.1-.9-3.1-1.3l-1-.3c-1.1-.3-2.5-.8-3.4-1.2-6.5-2.3-9.4-5.7-9.4-11s1.3-6.5,4-8.6,5.9-3.1,9.6-3.1c5.3,0,9.4,1.9,12.3,5.6l.5.7-6.2,6.5-.8-1c-1.3-1.7-3.4-2.6-6.1-2.6s-3.2.6-3.2,2.1.2,1,1.2,1.6c.2,0,.8.5,2.7,1.2,1,.3,2.6.9,3.9,1.3l.6.2c7.1,2.5,10.3,6.1,10.3,11.6s-6,12.4-15.6,12.4h-.3Z"/>
          <path class="st2" d="M1263,618.2c-3.4-3.7-7.9-5.5-13.4-5.5s-10.4,1.9-14.1,5.5c-3.7,3.7-5.5,8.5-5.5,14.4v.3c0,5.9,1.9,10.6,5.6,14.1s8.5,5.3,14.4,5.3,11.5-2.3,15.7-6.7l.8-.8-6.5-6.4-.8.8c-2.6,2.6-5.4,3.8-8.9,3.8-5.3,0-8.9-2.7-9.6-7.2h27.5v-1c.2-1,.2-2,.2-3.1,0-5.3-1.7-9.9-5.2-13.6h-.2ZM1240.8,627.7c.4-1.4,1.2-2.6,2.6-3.7,1.7-1.3,3.8-2.1,6.2-2.1s4,.7,5.6,2.1c1.2,1,2,2.3,2.2,3.6h-16.6,0Z"/>
          <path class="st2" d="M1216.4,651.5h-10.5v-37.8h10.5v3c2.3-2.4,5.6-3.7,9.6-3.7s2,0,2.7.2l.9.2v10.4l-1.3-.2c-1.1-.2-2.2-.3-3.3-.3-5.3,0-8.6,3.2-8.6,8.5v19.8h0Z"/>
          <path class="st2" d="M1197.2,652.5c-8.2,0-12.6-4.6-12.6-13.2v-15.8h-4.5v-9.8h4.5v-13.7h10.5v13.7h7.8v9.8h-7.8v14.9c0,3.6,1.2,4.3,3.4,4.3s2,0,2.7-.2l1.3-.3v9.7l-.8.2c-1.3.3-2.8.5-4.6.5h0Z"/>
          <path class="st1" d="M1415.3,618.5c-3.6,0-6.5-3-6.5-6.6s3-6.6,6.5-6.6,6.5,3,6.5,6.6-3,6.6-6.5,6.6Z"/>
        </g>
        <g id="_2386054949168">
          <polygon class="st2" points="1206.6 600.9 1206.6 590.8 1206.6 579.5 1206.6 554.8 1206.6 552.9 1194.4 552.9 1208.5 538.8 1216.6 538.8 1216.6 587.5 1216.6 600.9 1216.6 610.9 1206.6 610.9 1206.6 600.9"/>
          <path class="st2" d="M1258.4,538.8c9.6,0,18.7,3.8,25.5,10.6s10.6,15.9,10.6,25.5h-9.9c0-6.9-2.7-13.5-7.6-18.4s-11.5-7.6-18.4-7.6-13.5,2.7-18.4,7.6c-4.9,4.9-7.6,11.5-7.6,18.4s2.7,13.5,7.6,18.4c2.7,2.7,5.8,4.7,9.3,6-1.7,2.4-3.5,5.2-5.6,8.5-4-1.8-7.6-4.3-10.7-7.4-6.8-6.8-10.6-15.9-10.6-25.5s3.8-18.7,10.6-25.5c6.8-6.8,15.9-10.6,25.5-10.6h-.3Z"/>
          <path class="st2" d="M1325.6,586c-.2,0-.4.3-.6.3-1.3.6-3.1,1-4.6,1.1-2,0-3.6-.2-5.1-1.7s-.5-.5-.7-.6c-1,.5-5.5,5.3-6.3,6.2-.4.5-2.7,3-3.4,3s-.8-.2-1-.5c-.5-.5,0-2,.5-3.1-.6.5-1.3.9-2,1.3-2.4,1.3-5.6,3-8,1-1.1-.9-1.2-1.3-1.2-2.6v-.7l-1.4,1.1c-1.8,1.4-6.3,4.6-8.7,3.1-.8-.5-1-1.4-.9-2.2-2.9,1.8-6.3,3.3-9.8,2.8-2.4-.4-4.8-1.8-4.5-4.6.3-3,4-6.6,7.1-6.6s.8,0,1.2.3c.8.4,1.3,1,1.2,1.9,0,.9-.8,1.8-1.5,2.4-1,.9-2,1.1-3.2,1.2h-1.8c-.2.4-.2,1.1,0,1.4h0c0,1.5,1.7,1.7,3,1.7,3.8,0,8.7-3.6,11.5-5.7.8-.8,1.8-1.6,2.8-2.2,1-.6,2.2-1.1,3.4-1.1s2.4.6,3,1.8l.2.4.5-.4c.8-.6,1.5-1.2,2.3-.3.7.7,0,1.8-.4,2.5-.4.8-1.6,3-1,4,.3.4.8.3,1.3.3,2.7-.2,6.1-2.9,8.1-4.5.7-.6,1.4-1.1,2.2-1.6.6-.9,1.6-2.4,2.8-1.3.5.4.5.8.3,1.2.4-.3.8-.7,1-.8.8-.6,2.3-1.9,3.3-2.1,1-.2,1.5.6,1.9,1.3.8,1.2,1.3,1.4,2.8,1.4s2.2-.2,3.4-.6h.3c.8-.3,2.3-.7,2.8,0,.5-.8,1.3-1.6,2.3-1.6s.4,0,.7,0c1.1.5,1.2,1.4,0,2-1,.6-.8,1.8-.6,2.7,0,.2.3,1.1.4,1.3h.2c.4-.2,1.2-.6,1.7-.7,1.1-.4,2.1-.9,3.2-1.3,2.1-.8,4.3-1.5,6.3-2.3l1.8-.7-.2.2c1-.3,2-.3,2,.9s-1.8,1.5-2.6,1.8c-2.3.9-4.6,1.7-6.9,2.6l-4.7,1.9v1.1c-.4,2-1.8,3.8-3.6,4.5-1.2.5-3.3.9-4.4,0-1.2-.6-.9-2.5,0-3.3.8-1,3.2-2.5,4.4-3.2l.4-.2-.4-1.9c-.3-1-.5-1.6-.4-2.4h-.4ZM1267.8,577.6c-.9.9-1.8,1.8-2.7,2.7-1.1,1-2.2,2.1-3.2,3.1-1.1,1-2.2,2.1-3.3,3.1-2.6,2.4-8.5,7.1-12.3,4.2-3.3-2.5-2.2-8.6-1.2-11.9.9-2.7,2.1-5.4,3.5-7.9,0,0,0-.2.2-.3-.3.3-.6.7-1,1-.2,0-.5.5-.6.6-.2.4-.5.7-.9.9-.4,0-.8,0-1.2-.3s-.4-.8-.3-1.3h0c.3-.7,1-1.5,1.5-2.1.8-.9,1.7-1.7,2.5-2.5.9-.8,1.8-1.6,2.7-2.4.6-.5,1.3-1.1,1.9-1.6.5-.5,1.1-.9,1.7-1.4s1.4-.6,1.9,0c.5.5.5,1.1,0,1.7-.4.7-1,1.4-1.5,2-.9,1.1-1.7,2.2-2.6,3.4-2.3,3.1-4.3,7.1-5.5,10.7-.7,2.1-2.2,7.4,0,9,2.4,1.8,7.2-2.2,8.8-3.6.6-.5,1.1-1,1.7-1.6,1.6-1.5,3.3-3.1,4.9-4.6s3.1-3.1,4.7-4.6c1.3-1.3,2.6-2.6,4-4s1.9-1.9,2.9-2.7h0c.3-.2.6-.4.9-.6h.9c.6.2,1,.6.8,1.2,0,.6-.8,1.7-1.2,2.3-1,1.5-2.1,3-3.1,4.5-1.8,2.5-3.6,5.1-5.4,7.7-2.7,3.9-5.3,7.8-7.8,11.8-2.3,3.5-4.5,7.1-6.6,10.7-2.5,4-4.9,8.1-7.4,12.1-.3.5-.6,1.1-.9,1.6s-.8.7-1.3.6c-.4,0-.7-.3-.9-.6-.2-.4,0-.8,0-1.2.2-.5.6-1,.9-1.5,1.9-3.1,3.6-6.3,5.6-9.4,1-1.5,1.9-3.1,2.9-4.6,1.1-1.7,2.2-3.4,3.3-5.1,1-1.7,2.1-3.3,3.2-5,.9-1.4,1.8-2.8,2.7-4.1,2-3.1,4.1-6.2,6.3-9.3,0-.2.3-.4.4-.6h0ZM1324.6,594.7h0l.4-.3c.4-.3,1.4-1.2,1.6-1.8-.7.4-2.7,1.9-3.1,2.4h0c.3,0,.7,0,1.1-.3h0ZM1290.8,588.5c.5-.3,1.2-.9,1.5-1.2.2-.2,0-.4,0-.6s-.3-.7-.4-.9h-.2c-1.1,0-3,1.5-3.8,2.1-1,.9-2.7,2.6-3,4v.3c.4,0,1.7-.8,2-1,1.3-.8,2.5-1.6,3.7-2.5h.4l-.2-.2h0ZM1272.6,586.7h0c.2,0,.7-.3.9-.4s.8-.5,1-.9c-.6.2-1.5.8-1.9,1.1h-.2v.2h.2Z"/>
        </g>
      </g>
    </g>
    <g>
      <path class="st2" d="M29,622c-2-1.8-4.7-2.9-8.2-3.3l10.3-12.3v-5.3H2.1v6.6h19.4l-9.7,11.5v5.4h3.9c3.3,0,5.6.6,7.1,1.7s2.2,2.7,2.2,4.6-.8,3.6-2.4,4.7-3.8,1.7-6.6,1.7-4.7-.4-6.9-1.2c-2.2-.8-4.1-1.8-5.6-3l-3.4,6.2c2,1.5,4.4,2.8,7.2,3.6s5.8,1.3,8.8,1.3,7-.6,9.5-1.9c2.5-1.2,4.4-2.9,5.6-4.9,1.2-2,1.8-4.2,1.8-6.6,0-3.7-1.3-6.7-3.9-9Z"/>
      <path class="st2" d="M55.9,607.7h15.2v22.1c0,5.2-2.2,7.9-6.6,7.9s-3.2-.4-4.6-1.2c-1.4-.8-2.7-2-3.9-3.7l-4.5,5.4c1.5,2,3.3,3.5,5.6,4.6,2.3,1.1,4.8,1.6,7.5,1.6,4.7,0,8.2-1.2,10.7-3.7,2.5-2.5,3.7-6.2,3.7-11.3v-28.3h-23.1v6.6Z"/>
      <path class="st2" d="M113.3,627.7c0,2.2-.4,4-1.1,5.4-.8,1.5-1.8,2.6-3.1,3.3-1.3.7-2.9,1.1-4.7,1.1s-4.3-.7-5.6-2.2c-1.3-1.4-2-3.6-2-6.6v-17.6h-7.6v18.6c0,3.3.6,5.9,1.8,8.1,1.2,2.1,2.8,3.7,4.9,4.8,2.1,1,4.6,1.6,7.3,1.6s4.8-.6,7-1.7c1.4-.7,2.6-1.7,3.5-2.9v4.2h7.3v-32.6h-7.6v16.5Z"/>
      <path class="st2" d="M156.4,612.4c-2.1-1-4.4-1.5-7-1.5s-5.4.6-7.5,1.7c-1.5.8-2.7,1.8-3.7,3v-4.3h-7.3v32.6h7.6v-16.5c0-2.2.4-4,1.1-5.5.8-1.4,1.8-2.5,3.2-3.3,1.4-.7,3-1.1,4.8-1.1s4.3.7,5.7,2.1c1.4,1.4,2,3.6,2,6.5v17.7h7.6v-18.7c0-3.3-.6-6-1.8-8.1-1.2-2.1-2.8-3.7-4.8-4.7Z"/>
      <path class="st2" d="M195.4,612.9c-2.5-1.4-5.3-2.1-8.5-2.1s-6.2.7-8.7,2.1c-2.5,1.4-4.5,3.4-6,5.9-1.4,2.5-2.2,5.4-2.2,8.6s.7,6.1,2.2,8.6c1.5,2.5,3.6,4.5,6.3,5.9,2.7,1.4,5.9,2.2,9.5,2.2s5.4-.5,7.6-1.4c2.2-.9,4.1-2.2,5.5-3.9l-4.1-4.7c-1.1,1.2-2.4,2.1-3.9,2.7s-3.1.9-4.9.9-4-.4-5.6-1.2c-1.6-.8-2.9-2-3.8-3.5-.6-.9-.9-2-1.1-3.1h25.5c0-.4,0-.8,0-1.2,0-.4,0-.8,0-1.1,0-3.4-.7-6.4-2.1-8.9-1.4-2.5-3.4-4.5-5.9-5.9ZM178.8,621.6c.8-1.4,1.9-2.6,3.3-3.4,1.4-.8,3-1.2,4.9-1.2s3.4.4,4.8,1.2c1.4.8,2.5,1.9,3.3,3.4.6,1,.9,2.1,1.1,3.4h-18.5c.2-1.2.5-2.3,1.1-3.3Z"/>
      <path class="st2" d="M247.5,626.2c2-1.9,3.4-3.6,4.5-5.1,1-1.5,1.7-2.9,2.1-4.3.4-1.4.5-2.7.5-4.1,0-2.5-.6-4.7-1.9-6.5-1.2-1.8-3-3.2-5.3-4.2-2.3-1-5-1.5-8.1-1.5s-6.7.6-9.5,1.9c-2.8,1.2-5.1,3-6.7,5.2l5.6,4.3c1.2-1.5,2.7-2.6,4.4-3.4,1.7-.7,3.6-1.1,5.6-1.1s4.6.5,5.9,1.6c1.3,1.1,2,2.6,2,4.5s-.1,1.6-.3,2.5c-.2.9-.7,1.8-1.4,2.8-.7,1-1.7,2.2-3.2,3.5l-17,16.1v5.3h31.5v-6.7h-20.2l11.4-10.9Z"/>
      <path class="st2" d="M287.7,603c-2.7-1.7-5.7-2.6-9.1-2.6s-6.4.9-9.1,2.6c-2.7,1.7-4.8,4.2-6.4,7.5-1.5,3.3-2.3,7.2-2.3,11.9s.8,8.7,2.3,11.9c1.5,3.3,3.7,5.8,6.4,7.5,2.7,1.7,5.7,2.6,9.1,2.6s6.5-.9,9.1-2.6,4.8-4.2,6.4-7.5c1.6-3.3,2.3-7.2,2.3-11.9s-.8-8.7-2.3-11.9c-1.6-3.3-3.7-5.8-6.4-7.5ZM287.2,630.9c-.8,2.2-2,3.9-3.4,5-1.5,1.1-3.2,1.6-5.2,1.6s-3.6-.5-5.1-1.6c-1.5-1.1-2.6-2.7-3.5-5-.8-2.2-1.3-5.1-1.3-8.5s.4-6.3,1.3-8.5c.8-2.2,2-3.9,3.5-4.9,1.5-1.1,3.2-1.6,5.1-1.6s3.7.5,5.2,1.6c1.5,1.1,2.6,2.7,3.4,4.9.8,2.2,1.3,5.1,1.3,8.5s-.4,6.2-1.3,8.5Z"/>
      <path class="st2" d="M324,626.2c2-1.9,3.4-3.6,4.5-5.1,1-1.5,1.7-2.9,2.1-4.3.4-1.4.5-2.7.5-4.1,0-2.5-.6-4.7-1.9-6.5-1.2-1.8-3-3.2-5.3-4.2-2.3-1-5-1.5-8.1-1.5s-6.7.6-9.5,1.9c-2.8,1.2-5.1,3-6.7,5.2l5.6,4.3c1.2-1.5,2.7-2.6,4.4-3.4,1.7-.7,3.6-1.1,5.6-1.1s4.6.5,5.9,1.6c1.3,1.1,2,2.6,2,4.5s-.1,1.6-.3,2.5c-.2.9-.7,1.8-1.4,2.8-.7,1-1.7,2.2-3.2,3.5l-17,16.1v5.3h31.5v-6.7h-20.2l11.4-10.9Z"/>
      <path class="st2" d="M369.4,623.6c-1.3-2-3.1-3.5-5.2-4.6-2.2-1.1-4.7-1.6-7.5-1.6s-4,.3-5.8.9c-1.8.6-3.3,1.4-4.6,2.5-.4.3-.7.7-1.1,1.1,0,0,0,0,0,0,0-4.8,1.2-8.5,3.5-11,2.4-2.5,5.6-3.7,9.6-3.7s2.9.2,4.3.5c1.4.3,2.6.8,3.8,1.6l2.9-6c-1.4-.9-3.1-1.6-5-2.1-2-.4-4-.7-6.2-.7-4.1,0-7.7.9-10.9,2.6-3.2,1.7-5.6,4.3-7.4,7.7-1.8,3.4-2.7,7.5-2.7,12.4s.7,8.5,2.2,11.6c1.5,3.1,3.6,5.5,6.3,7.2,2.8,1.6,6.1,2.5,9.9,2.5s5.6-.6,7.9-1.7c2.4-1.1,4.2-2.7,5.6-4.8,1.4-2.1,2.1-4.5,2.1-7.3s-.7-5-2-6.9ZM362.6,634.8c-.7,1.1-1.7,1.9-3,2.5-1.3.6-2.7.9-4.3.9s-3.5-.3-4.8-1c-1.3-.7-2.3-1.5-3-2.6-.7-1.1-1-2.3-1-3.6s.4-2.7,1.1-3.8c.8-1.1,1.8-2,3.1-2.6,1.3-.6,2.8-.9,4.5-.9,2.6,0,4.7.7,6.2,2,1.5,1.3,2.3,3.1,2.3,5.3s-.4,2.7-1.1,3.8Z"/>
    </g>
  </g>
</svg>