<?xml version="1.0" encoding="UTF-8"?>
<svg id="Layer_2" xmlns="http://www.w3.org/2000/svg" version="1.1" viewBox="0 0 363.64 219.99">
  <!-- Generator: Adobe Illustrator 30.4.0, SVG Export Plug-In . SVG Version: 2.1.3 Build 187)  -->
  <path d="M34.86,126.01c-6.54,0-12.53-.55-16.89-1.63-4.36-1.63-8.17-3.27-10.35-5.45-2.73-2.72-4.91-5.99-5.99-9.81C.54,105.31-.01,100.41-.01,94.42v-28.88C-.01,63.37-.01,60.64.54,58.46h20.7c0,.55,0,1.09-.55,1.09,0,2.17-.54,4.35-.54,7.08v27.24c0,2.73.54,4.91.54,7.08.55,1.64,1.63,3.27,2.73,4.36,1.09,1.09,2.72,2.18,4.9,2.18,1.64.55,4.36,1.09,7.63,1.09h62.1v17.43s-63.19,0-63.19,0ZM1.64,51.92v-.54c1.09-4.36,3.27-7.62,5.99-9.81,2.18-2.73,5.99-4.36,10.35-5.45s10.35-1.63,16.89-1.63h63.19v17.43s-96.42,0-96.42,0Z" fill="#fff"/>
  <path d="M213.86,126.01l-37.59-35.41-37.58,35.41h-28.33l52.3-47.39-49.58-44.13h29.42c33.22,31.05,67.55,60.47,100.77,91.52h-29.41,0ZM182.27,62.27l31.59-27.78h27.78l-45.22,39.77-14.16-11.98.01-.01Z" fill="#fff"/>
  <polygon points="227.63 173.11 227.63 136.06 235.79 136.06 235.79 173.11 227.63 173.11" fill="#fff"/>
  <path d="M145.95,173.11v-24.48l-18.08,23.6c-.88,1.1-2.2,1.54-3.75,1.54s-2.87-.44-3.53-1.54l-18.08-23.6h0l-7.5-9.7v-.44c0-1.1.44-1.98,1.32-2.43.88-.66,1.98-.88,3.09-.88s1.76.22,2.43.44c.66.22,1.1.66,1.54,1.32l20.95,27.78,20.95-27.78c.44-.66.88-1.1,1.55-1.32.44-.22,1.32-.44,2.2-.44,1.32,0,2.2.22,3.09.88.88.44,1.32,1.32,1.32,2.43v34.62h-7.5ZM102.51,153.04v20.07h-7.5v-29.77l7.5,9.7Z" fill="#fff"/>
  <path d="M212.87,173.11v-24.48l-18.08,23.6c-.88,1.1-2.2,1.54-3.75,1.54s-2.87-.44-3.53-1.54l-18.08-23.6h0l-7.5-9.7v-.44c0-1.1.44-1.98,1.32-2.43.88-.66,1.98-.88,3.09-.88s1.76.22,2.43.44c.66.22,1.1.66,1.54,1.32l20.95,27.78,20.95-27.78c.44-.66.88-1.1,1.55-1.32.44-.22,1.32-.44,2.2-.44,1.32,0,2.2.22,3.09.88.88.44,1.32,1.32,1.32,2.43v34.62h-7.5,0ZM169.43,153.04v20.07h-7.5v-29.77l7.5,9.7Z" fill="#fff"/>
  <path d="M0,173.11v-7.06h28.23c1.32,0,2.42-.22,3.09-.66.66-.44,1.1-1.33,1.1-2.43v-1.98c0-1.32-.44-1.98-1.1-2.65-.66-.44-1.76-.66-3.09-.66H10.59c-1.99,0-3.75-.22-5.07-.66-1.32-.22-2.43-.88-3.31-1.54-.66-.88-1.32-1.76-1.54-3.09-.44-1.1-.44-2.43-.44-4.19v-2.43h7.5v2.2c0,1.1.22,1.99.66,2.43.66.44,1.54.66,2.87.66h17.42c1.99,0,3.75.22,5.07.66,1.54.22,2.65.88,3.53,1.54.88.88,1.54,1.76,1.99,2.87.44,1.32.66,2.65.66,4.41v2.87c0,1.77-.22,3.31-.66,4.41-.44,1.32-1.11,2.21-1.99,3.09-.88.66-1.99,1.1-3.53,1.54-1.32.44-3.09.66-5.07.66H0v.01ZM.44,143.12c0-.66.22-1.1.22-1.54.44-1.32,1.1-2.43,1.99-3.09.66-.88,1.77-1.54,3.09-1.98,1.32-.22,3.09-.44,4.85-.44h29.33v7.06H.44v-.01Z" fill="#fff"/>
  <path d="M258.25,173.11v-27.35h8.16v27.35h-8.16ZM258.25,143.12h-15.66v-7.06h39.47v7.06h-23.82.01Z" fill="#fff"/>
  <path d="M60.09,173.11c-2.64,0-4.85-.22-6.62-.66-1.99-.66-3.31-1.33-4.41-2.21-1.1-1.1-1.99-2.43-2.43-3.97-.44-1.54-.66-3.53-.66-5.95v-24.26h8.38v24.04c0,1.1.22,1.99.44,2.87.22.66.44,1.33,1.11,1.77.44.44,1.1.88,1.98.88.89.22,1.77.44,3.09.44h12.35c1.32,0,2.42-.22,3.09-.44.88,0,1.54-.44,2.2-.88.44-.44.89-1.1,1.11-1.77.22-.88.22-1.76.22-2.87v-24.04h8.15v24.26c0,2.43-.22,4.41-.66,5.95s-1.1,2.87-2.21,3.97c-1.1.88-2.64,1.55-4.41,2.21-1.76.44-3.97.66-6.84.66h-13.89.01Z" fill="#fff"/>
  <path d="M155.91,27.21V8.13h5.85v14.15h14.46c.77,0,1.38-.15,2-.31.46,0,.92-.31,1.38-.62.31-.31.46-.77.77-1.23.15-.61.15-1.23.15-2v-7.69c0-.77,0-1.39-.15-2-.15-.46-.46-.92-.77-1.23s-.77-.62-1.38-.77c-.46,0-1.23-.15-2-.15h-20.31V1.36h20.46c2,0,3.54.15,4.77.46,1.23.31,2.31.77,3.08,1.54.77.62,1.23,1.54,1.54,2.77.31,1.08.62,2.46.62,4v8.16c0,1.69-.31,3.08-.62,4.15-.31,1.08-.77,2-1.54,2.77-.77.62-1.85,1.08-3.08,1.54-1.23.31-2.77.46-4.77.46h-20.46Z" fill="#fff"/>
  <path d="M176.38,27.5h-20.75V7.85h6.42v14.15h14.17c.73,0,1.31-.15,1.93-.3h.07c.37,0,.79-.28,1.2-.55.15-.15.26-.37.39-.61.08-.16.18-.34.3-.52.13-.56.13-1.15.13-1.88v-7.69c0-.75,0-1.34-.14-1.92-.13-.39-.4-.81-.7-1.11-.23-.23-.62-.53-1.22-.69-.21,0-.46-.03-.75-.06-.37-.04-.8-.09-1.21-.09h-20.6V1.08h20.75c1.99,0,3.57.15,4.84.47,1.43.36,2.47.88,3.2,1.6.77.62,1.28,1.54,1.62,2.91.43,1.5.63,2.79.63,4.07v8.16c0,1.82-.36,3.29-.63,4.23-.35,1.23-.86,2.14-1.61,2.89l-.02.02c-.83.66-2.01,1.15-3.16,1.59h-.03c-1.27.33-2.85.48-4.84.48h.01ZM156.2,26.93h20.18c1.93,0,3.46-.15,4.68-.45,1.09-.41,2.21-.87,2.97-1.48.67-.68,1.13-1.51,1.45-2.63.26-.91.6-2.32.6-4.07v-8.16c0-1.61-.35-3.01-.6-3.92h0c-.31-1.26-.77-2.09-1.44-2.62l-.02-.02c-.65-.65-1.61-1.13-2.94-1.46-1.22-.3-2.76-.45-4.7-.45h-20.18v4.35h20.02c.45,0,.89.05,1.28.09.29.03.54.06.72.06h.07c.74.2,1.24.57,1.52.85.37.37.68.87.84,1.34v.02c.17.65.17,1.27.17,2.07v7.69c0,.79,0,1.42-.16,2.07v.05l-.04.04c-.11.17-.21.34-.3.51-.15.28-.29.55-.51.76l-.02.02-.02.02c-.48.32-.97.65-1.51.66-.61.15-1.25.31-2.04.31h-14.75v-14.15h-5.27v18.5h0Z" fill="#fff"/>
  <path d="M134.61,27.21c-1.85,0-3.39-.15-4.77-.46-1.23-.46-2.15-.92-2.92-1.54-.77-.77-1.39-1.69-1.69-2.77v-.15h25.23v4.92h-15.85,0ZM124.92,20.44c0-.77-.15-1.39-.15-2.15V1.36h5.69v16.77c0,.62.15,1.39.31,1.85,0,.15,0,.31.15.46h-6,0Z" fill="#fff"/>
  <path d="M150.74,27.5h-16.13c-1.83,0-3.41-.15-4.83-.47h-.04c-1.35-.52-2.25-.99-3-1.6l-.02-.02c-.87-.87-1.47-1.84-1.77-2.89v-.04l-.01-.48h25.81v5.5h-.01ZM129.92,26.47c1.38.3,2.91.45,4.69.45h15.56v-4.35h-24.6c.29.87.81,1.68,1.54,2.42.7.56,1.54,1,2.81,1.48ZM131.6,20.72h-6.97v-.29c0-.37-.04-.7-.07-1.05-.04-.35-.08-.71-.08-1.11V1.08h6.27v17.06c0,.58.15,1.32.29,1.76v.04l.01.05c0,.14,0,.19.07.26l.48.49v-.02ZM125.19,20.15h5.29v-.13c-.15-.47-.31-1.25-.31-1.89V1.65h-5.12v16.64c0,.37.04.7.07,1.04.03.26.06.53.07.82Z" fill="#fff"/>
  <path d="M63.37,27.21c-2,0-3.54-.15-4.77-.46-1.23-.46-2.31-.92-3.08-1.54-.77-.77-1.23-1.69-1.54-2.77s-.46-2.46-.46-4.15v-10.15h5.85v.31c-.15.61-.15,1.23-.15,2v7.69c0,.77,0,1.39.15,2,.15.62.31.92.61,1.23.31.31.77.62,1.39.77.62,0,1.23.15,2.15.15h9.39c.77,0,1.54-.15,2-.15.61-.15,1.08-.46,1.39-.77.3-.31.61-.62.77-1.23.15-.61.15-1.23.15-2v-7.69c0-.77,0-1.39-.15-2-.15-.46-.46-.92-.77-1.23s-.77-.62-1.39-.77c-.46,0-1.23-.15-2-.15h-19.08l.15-.15c.3-1.23.77-2.15,1.54-2.77.77-.77,1.85-1.23,3.08-1.54,1.23-.31,2.77-.46,4.77-.46h9.7c2,0,3.54.15,4.77.46,1.23.31,2.31.77,3.08,1.54.77.62,1.23,1.54,1.54,2.77.31,1.08.46,2.46.46,4v8.16c0,1.69-.15,3.08-.46,4.15-.31,1.08-.77,2-1.54,2.77-.77.62-1.85,1.08-3.08,1.54-1.23.31-2.77.46-4.77.46h-9.7v-.02Z" fill="#fff"/>
  <path d="M73.06,27.5h-9.7c-1.99,0-3.57-.15-4.84-.47h-.03c-1.15-.44-2.33-.93-3.16-1.59l-.02-.02c-.75-.75-1.26-1.67-1.61-2.89-.31-1.1-.47-2.52-.47-4.23V7.85h6.42v.67c-.15.58-.15,1.17-.15,1.93v7.69c0,.75,0,1.35.15,1.93.14.56.27.83.54,1.1.23.23.62.53,1.22.68.28,0,.56.03.86.07.36.04.77.09,1.26.09h9.39c.42,0,.84-.05,1.21-.09.29-.03.54-.06.75-.06.6-.16.99-.46,1.22-.69.3-.3.56-.56.69-1.1.15-.58.15-1.17.15-1.93v-7.69c0-.75,0-1.34-.14-1.92-.13-.38-.4-.81-.7-1.11-.23-.23-.62-.53-1.22-.69-.21,0-.46-.03-.75-.06-.37-.04-.79-.09-1.21-.09h-19.78l.6-.59c.34-1.32.85-2.23,1.6-2.84.74-.73,1.76-1.24,3.2-1.6,1.26-.32,2.85-.47,4.84-.47h9.7c1.99,0,3.57.15,4.84.47,1.45.36,2.46.87,3.2,1.6.76.62,1.28,1.54,1.62,2.91.31,1.08.47,2.49.47,4.07v8.16c0,1.71-.16,3.13-.47,4.23-.35,1.23-.86,2.15-1.61,2.89l-.02.02c-.83.66-2.01,1.15-3.16,1.58h-.03c-1.27.33-2.85.48-4.84.48l-.02.01ZM58.68,26.48c1.22.3,2.75.45,4.68.45h9.7c1.93,0,3.46-.15,4.68-.45,1.09-.41,2.21-.87,2.97-1.48.67-.67,1.13-1.51,1.45-2.63.3-1.05.45-2.42.45-4.07v-8.16c0-1.53-.16-2.89-.45-3.92h0c-.31-1.26-.77-2.09-1.44-2.62l-.02-.02c-.65-.65-1.62-1.13-2.95-1.46-1.22-.3-2.76-.45-4.7-.45h-9.7c-1.94,0-3.48.15-4.7.45-1.35.34-2.28.8-2.95,1.46l-.02.02c-.63.51-1.08,1.28-1.38,2.41h18.59c.45,0,.89.05,1.28.09.29.03.54.06.72.06h.07c.74.2,1.24.57,1.52.85.37.37.68.87.84,1.34v.02c.17.65.17,1.28.17,2.07v7.69c0,.79,0,1.42-.16,2.07-.17.69-.53,1.05-.84,1.36h0c-.28.29-.78.66-1.52.85h-.07c-.19,0-.44.03-.72.06-.39.04-.83.09-1.28.09h-9.39c-.52,0-.95-.05-1.33-.09-.3-.03-.57-.06-.83-.06h-.07c-.74-.2-1.24-.57-1.52-.85-.34-.35-.52-.7-.69-1.36-.16-.65-.16-1.27-.16-2.07v-7.69c0-.77,0-1.39.15-2.02h-5.27v9.87c0,1.66.15,3.03.45,4.07.32,1.12.78,1.96,1.45,2.63.77.61,1.88,1.07,2.97,1.48l.02.01Z" fill="#fff"/>
  <path d="M25.51,8.13l-7.38,15.54-2.62-6.46,6.62-14.62c.31-.77.77-1.38,1.23-1.69.61-.46,1.23-.62,2.15-.62s1.69.15,2.31.62c.46.31.92.92,1.23,1.69l5.85,13.39h0l4.15,10.31c-.15,0-.15.15-.31.31-.61.46-1.23.62-2.15.62s-1.69-.15-2.15-.62c-.61-.46-1.08-1.08-1.39-1.85,0,0-7.54-16.62-7.54-16.62ZM37.36,17.21L44.28.9h6.31c-.31.62-.77,1.54-1.23,2.92-.62,1.23-1.23,2.61-2,4.15-.61,1.54-1.38,3.23-2.15,4.92-.61,1.69-1.38,3.23-2.15,4.77-.61,1.69-1.23,3.08-1.84,4.31-.31.92-.61,1.69-.92,2.31l-2.93-7.08-.01.01ZM16.9,25.83c-.15.31-.46.46-.77.77-.61.46-1.23.62-2.15.62s-1.69-.15-2.31-.62c-.46-.46-.92-1.08-1.23-1.85L.43.9h6.47l5.69,14.16,1.84,4.46,2.46,6.31h.01Z" fill="#fff"/>
  <path d="M36.59,27.5c-1.12,0-1.86-.22-2.34-.69-.65-.49-1.14-1.15-1.46-1.95l-7.28-16.05-7.4,15.57-2.91-7.18,6.66-14.72c.32-.8.81-1.46,1.33-1.81C23.83.19,24.48,0,25.51,0,26.59,0,27.37.21,27.98.67c.52.35,1.01,1.01,1.33,1.82l5.85,13.39,4.31,10.7h-.36c-.04.06-.08.14-.17.22l-.03.03c-.64.48-1.3.67-2.33.67h.01ZM25.52,7.45l7.8,17.19c.29.71.72,1.29,1.29,1.72l.03.03c.36.36,1,.53,1.95.53.89,0,1.43-.15,1.96-.54.03-.03.05-.06.07-.1.02-.03.04-.07.07-.1l-4.06-10.08-5.85-13.39c-.28-.69-.7-1.28-1.12-1.56h-.01c-.51-.4-1.17-.57-2.14-.57-.9,0-1.44.15-1.98.56h-.01c-.43.29-.85.88-1.12,1.57h0l-6.56,14.52,2.33,5.74,7.37-15.51-.02-.01ZM13.97,27.5c-1.08,0-1.87-.21-2.48-.67l-.03-.03c-.57-.58-1.01-1.23-1.29-1.94L0,.62h7.09l5.77,14.34,1.84,4.46,2.51,6.43-.06.11c-.13.25-.32.41-.53.58-.1.08-.2.16-.3.26l-.03.03c-.64.48-1.3.67-2.33.67h.01ZM11.85,26.38c.51.38,1.17.55,2.12.55.89,0,1.43-.15,1.97-.55.11-.11.23-.2.33-.28.13-.11.24-.19.31-.29l-2.41-6.17-1.84-4.46L6.7,1.19H.86l9.84,23.45c.25.64.64,1.22,1.15,1.74ZM40.26,24.98l-3.21-7.77L44.09.62h6.97l-.21.43c-.3.6-.76,1.52-1.21,2.87l-.02.04c-.29.58-.58,1.2-.89,1.85-.35.73-.7,1.49-1.11,2.29-.59,1.49-1.33,3.11-2.15,4.91-.63,1.72-1.4,3.27-2.16,4.77-.55,1.5-1.15,2.91-1.84,4.3-.32.95-.62,1.71-.93,2.33l-.28.56v.01ZM37.67,17.21l2.63,6.36c.21-.48.42-1.04.63-1.68l.02-.04c.7-1.4,1.28-2.76,1.83-4.28v-.03c.76-1.49,1.54-3.03,2.15-4.74v-.02c.83-1.81,1.56-3.43,2.16-4.91v-.02c.41-.81.77-1.56,1.12-2.29.31-.65.6-1.26.89-1.84.37-1.11.74-1.93,1.03-2.53h-5.66s-6.8,16.02-6.8,16.02Z" fill="#fff"/>
  <path d="M94.37,18.44v8.77h-5.69V7.98h5.69v6.15h14.16c.92,0,1.69-.15,2.31-.15.61-.15,1.08-.31,1.38-.46.46-.31.62-.61.77-1.08.15-.31.3-.92.3-1.69v-1.38c0-.62-.15-1.23-.3-1.69-.15-.31-.31-.62-.77-.92-.3-.15-.77-.31-1.38-.46-.62,0-1.39-.15-2.31-.15h-19.85V1.36h20.16c1.85,0,3.38.15,4.62.31,1.39.31,2.46.61,3.23,1.23.77.62,1.39,1.39,1.85,2.31.3,1.08.46,2.31.46,3.85v1.85c0,1.54-.15,2.77-.61,3.69-.31.92-.92,1.69-1.85,2.31-.77.62-1.84.92-3.23,1.23-1.23.15-2.77.31-4.46.31h-14.46l-.02-.01Z" fill="#fff"/>
  <path d="M94.66,27.5h-6.27V7.69h6.27v6.15h13.87c.49,0,.95-.05,1.35-.09.33-.03.64-.06.92-.07.57-.14,1-.29,1.27-.43.37-.25.5-.49.64-.92v-.04c.14-.26.29-.82.29-1.57v-1.38c0-.47-.1-1-.28-1.58-.14-.28-.27-.53-.65-.78-.28-.14-.71-.28-1.27-.42-.28,0-.59-.03-.92-.07-.4-.04-.86-.09-1.35-.09h-20.14V1.08h20.44c1.92,0,3.5.17,4.65.31h.03c1.53.34,2.56.66,3.35,1.29.8.63,1.44,1.44,1.93,2.4v.02l.02.03c.32,1.13.47,2.38.47,3.92v1.85c0,1.74-.2,2.91-.63,3.8-.33.97-.98,1.79-1.95,2.43-.79.63-1.82.94-3.34,1.28h-.03c-1.06.14-2.69.32-4.5.32h-14.17v8.77h0ZM88.97,26.93h5.12v-8.77h14.75c1.77,0,3.36-.17,4.41-.3,1.43-.32,2.4-.61,3.1-1.17l.02-.02c.88-.58,1.44-1.29,1.74-2.16l.02-.04c.4-.81.58-1.91.58-3.56v-1.85c0-1.48-.14-2.67-.44-3.74-.44-.87-1.04-1.61-1.76-2.19-.7-.56-1.66-.85-3.1-1.17-1.14-.14-2.68-.3-4.57-.3h-19.87v4.2h19.56c.52,0,.99.05,1.41.09.34.03.63.06.9.06h.07c.63.17,1.12.33,1.44.49l.03.02c.53.35.71.72.87,1.04l.02.04c.21.65.32,1.25.32,1.78v1.38c0,.82-.17,1.47-.33,1.8-.18.52-.37.87-.88,1.21l-.03.02c-.32.16-.79.32-1.44.49h-.07c-.26,0-.56.03-.9.06-.42.04-.89.09-1.41.09h-14.44v-6.15h-5.12v18.66-.01Z" fill="#fff"/>
  <polygon points="111.61 27.21 118.99 27.21 110.68 17.83 103.14 17.83 111.61 27.21" fill="#fff"/>
  <path d="M119.63,27.5h-8.15l-8.98-9.96h8.32l8.81,9.96ZM111.74,26.93h6.62l-7.8-8.81h-6.77l7.95,8.81Z" fill="#fff"/>
  <path d="M7.1,219.34c-1.28,0-2.45-.32-3.52-.96-1.07-.64-1.94-1.49-2.59-2.57-.65-1.07-.98-2.27-.98-3.57v-9.57c0-.74.23-1.5.68-2.29.45-.79,1.08-1.38,1.89-1.79-.47-.7-.7-1.69-.7-2.97v-5.34c0-1.34.33-2.56.98-3.65.65-1.09,1.52-1.95,2.59-2.57,1.07-.62,2.25-.93,3.52-.93h18.22c1.14,0,2.21.26,3.22.78s1.85,1.23,2.54,2.11c.69.89,1.15,1.87,1.38,2.94v4.23h-7.2v-2.57c0-.07-.03-.13-.08-.18s-.13-.08-.23-.08H9.31c-.07,0-.13.03-.2.08s-.1.11-.1.18v5.69l19.53,9.82v-5.14h7.15v8.16l5.94,3.52v7.3l-7.05-4.03c-.67,1.01-1.54,1.82-2.62,2.44-1.07.62-2.2.93-3.37.93H7.1v.03ZM7.45,212.19h16.01c.34,0,.67-.03,1.01-.08s.67-.13,1.01-.23l-17.17-8.66-.76-.3c-.13,0-.24.14-.3.43-.07.29-.1.9-.1,1.84v6.7c0,.07.03.14.1.2.07.07.13.1.2.1h0Z" fill="#fff"/>
  <path d="M99.59,210.73h-22.49l-5.29,8.6h-9.48l21.39-34.18c.66-1.1,1.54-1.99,2.43-2.65.88-.66,2.2-1.1,3.75-1.1,1.76,0,3.09.44,3.97,1.1.88.66,1.54,1.54,2.21,2.65l21.39,34.18h-9.48l-2.65-4.41-10.59-17.2-4.85-7.94-9.04,14.55h14.77l3.97,6.4h-.01Z" fill="#fff"/>
  <path d="M205.07,210.73h-22.49l-5.29,8.6h-9.48l21.39-34.18c.66-1.1,1.54-1.99,2.43-2.65.88-.66,2.2-1.1,3.75-1.1,1.76,0,3.09.44,3.97,1.1s1.54,1.54,2.21,2.65l21.39,34.18h-9.48l-2.65-4.41-10.59-17.2-4.85-7.94-9.04,14.55h14.77l3.97,6.4h-.01Z" fill="#fff"/>
  <path d="M275.84,219.33v-27.35h8.38v20.29h20.73c1.1,0,1.98-.22,2.87-.44.66,0,1.32-.44,1.98-.88.44-.44.66-1.1,1.1-1.77.22-.88.22-1.76.22-2.87v-11.03c0-1.1,0-1.99-.22-2.87-.22-.66-.66-1.33-1.1-1.76-.44-.44-1.1-.88-1.98-1.1-.66,0-1.76-.22-2.87-.22h-29.11v-7.06h29.33c2.87,0,5.07.22,6.83.66,1.76.44,3.31,1.1,4.41,2.21,1.1.88,1.76,2.2,2.21,3.97.44,1.54.88,3.53.88,5.73v11.69c0,2.43-.44,4.41-.88,5.95s-1.1,2.87-2.21,3.97c-1.1.88-2.65,1.55-4.41,2.21-1.76.44-3.97.66-6.83.66h-29.33v.01Z" fill="#fff"/>
  <path d="M323.73,219.33v-7.06h28.23c1.32,0,2.42-.22,3.09-.66.66-.44,1.1-1.33,1.1-2.43v-1.98c0-1.32-.44-1.98-1.1-2.65-.66-.44-1.76-.66-3.09-.66h-17.64c-1.99,0-3.75-.22-5.07-.66-1.32-.22-2.43-.88-3.31-1.54-.66-.88-1.32-1.76-1.54-3.09-.44-1.1-.44-2.43-.44-4.19v-2.43h7.5v2.2c0,1.1.22,1.99.66,2.43.66.44,1.54.66,2.87.66h17.42c1.99,0,3.75.22,5.07.66,1.54.22,2.65.88,3.53,1.54.88.88,1.54,1.76,1.99,2.87.44,1.32.66,2.65.66,4.41v2.87c0,1.77-.22,3.31-.66,4.41-.44,1.32-1.11,2.21-1.99,3.09-.88.66-1.99,1.1-3.53,1.54-1.32.44-3.09.66-5.07.66h-28.67l-.01.01ZM324.17,189.34c0-.66.22-1.1.22-1.54.44-1.32,1.1-2.43,1.99-3.09.66-.88,1.77-1.54,3.09-1.98,1.32-.22,3.09-.44,4.85-.44h29.33v7.06h-39.47l-.01-.01Z" fill="#fff"/>
  <path d="M143.45,192.65l-10.58,22.27-3.75-9.26,9.48-20.95c.44-1.1,1.1-1.98,1.76-2.43.88-.66,1.76-.88,3.09-.88s2.43.22,3.31.88c.66.44,1.32,1.32,1.76,2.43l8.38,19.19h0l5.95,14.78c-.22,0-.22.22-.44.44-.88.66-1.77.88-3.09.88s-2.42-.22-3.09-.88c-.88-.66-1.54-1.54-1.99-2.65l-10.8-23.82h.01ZM160.43,205.66l9.92-23.38h9.05c-.44.88-1.11,2.2-1.76,4.19-.89,1.76-1.77,3.75-2.87,5.96-.88,2.2-1.98,4.63-3.09,7.06-.88,2.43-1.98,4.63-3.09,6.83-.88,2.43-1.76,4.41-2.64,6.17-.44,1.33-.88,2.43-1.32,3.31l-4.19-10.14h-.01ZM131.1,218.01c-.22.44-.66.66-1.11,1.1-.88.66-1.76.88-3.09.88s-2.42-.22-3.31-.88c-.66-.66-1.32-1.54-1.76-2.65l-14.34-34.18h9.27l8.16,20.29,2.64,6.39,3.53,9.04.01.01Z" fill="#fff"/>
  <path d="M234.9,206.76v12.57h-8.16v-27.57h8.16v8.82h20.29c1.32,0,2.42-.22,3.31-.22.88-.22,1.54-.44,1.98-.66.66-.44.89-.88,1.11-1.54.22-.44.44-1.32.44-2.43v-1.98c0-.88-.22-1.76-.44-2.43-.22-.44-.44-.88-1.11-1.33-.44-.22-1.1-.44-1.98-.66-.89,0-1.99-.22-3.31-.22h-28.45v-6.84h28.89c2.65,0,4.85.22,6.62.44,1.99.44,3.53.88,4.63,1.76,1.11.88,1.99,1.99,2.65,3.31.44,1.54.66,3.31.66,5.51v2.65c0,2.2-.22,3.97-.88,5.29-.44,1.33-1.32,2.43-2.65,3.31-1.1.88-2.64,1.33-4.63,1.77-1.76.22-3.97.44-6.39.44h-20.73l-.01.01Z" fill="#fff"/>
  <polygon points="259.6 219.33 270.19 219.33 258.28 205.88 247.47 205.88 259.6 219.33" fill="#fff"/>
</svg>