<svg width="154" height="20" viewBox="0 0 154 20" fill="none" xmlns="http://www.w3.org/2000/svg">
<g clip-path="url(#clip0_766_7048)">
<path d="M3.34675 0H0V3.41282L3.34675 0Z" fill="#0A0A0A"/>
<path d="M31.8986 8.85334C31.7898 8.46992 31.6391 8.12927 31.4434 7.83298C31.2476 7.5367 31.0099 7.2832 30.7286 7.07564C30.4474 6.86808 30.1289 6.70964 29.77 6.59873C29.4111 6.48782 29.0164 6.43395 28.5829 6.43395C27.7734 6.43395 27.0634 6.63834 26.4528 7.0487C25.8421 7.45906 25.3667 8.05322 25.0264 8.83433C24.6862 9.61545 24.5168 10.5677 24.5168 11.691C24.5168 12.8144 24.6846 13.7714 25.0187 14.5604C25.3527 15.3494 25.8282 15.9483 26.4403 16.3619C27.0541 16.7738 27.7781 16.9798 28.6125 16.9798C29.3707 16.9798 30.0186 16.8419 30.5562 16.5662C31.0953 16.2906 31.5071 15.9008 31.7929 15.3954C32.0648 14.9169 32.2078 14.3544 32.2202 13.708H29.1438L31.6702 11.1381H35.4458V13.1724C35.4458 14.5905 35.1521 15.8089 34.5648 16.8261C33.9775 17.8433 33.168 18.626 32.1379 19.1758C31.1077 19.7256 29.9269 19.9997 28.5985 19.9997C27.1146 19.9997 25.8111 19.6654 24.6877 18.9951C23.5644 18.3249 22.6896 17.3711 22.0635 16.1337C21.4373 14.8963 21.125 13.426 21.125 11.7243C21.125 10.4156 21.3114 9.24786 21.6859 8.22117C22.0588 7.19447 22.584 6.32304 23.2583 5.60847C23.9326 4.89391 24.7188 4.35045 25.6153 3.97653C26.5118 3.60261 27.4829 3.41724 28.5301 3.41724C29.4266 3.41724 30.261 3.55033 31.0347 3.81492C31.8085 4.07952 32.4937 4.45502 33.095 4.93827C33.6947 5.42151 34.1857 5.99507 34.5679 6.66052C34.9486 7.32597 35.1941 8.05639 35.3028 8.85493H31.9017L31.8986 8.85334Z" fill="#0A0A0A"/>
<path d="M66.4675 3.63647V19.7784H63.576L56.6883 9.6192H56.5733V19.7784H53.2266V3.63647H56.1631L62.9964 13.7878H63.1363V3.63647H66.4675Z" fill="#0A0A0A"/>
<path d="M112.48 6.4499V3.63599H125.482V6.4499H120.634V19.778H117.327V6.4499H112.48Z" fill="#0A0A0A"/>
<path d="M143.301 19.7784V3.63647H153.967V6.45039H146.648V10.2973H153.419V13.1112H146.648V16.9645H153.998V19.7784H143.301Z" fill="#0A0A0A"/>
<path d="M82.1875 3.60278H85.932L89.5398 10.5504H89.6936L93.3014 3.60278H97.0474L91.2768 14.0314V19.7337H87.9565V14.0314L82.1875 3.60278Z" fill="#0A0A0A"/>
<path d="M0 6.8114V19.7782H3.34675V3.41284L0 6.8114Z" fill="#0A0A0A"/>
</g>
<defs>
<clipPath id="clip0_766_7048">
<rect width="154" height="20" fill="white"/>
</clipPath>
</defs>
</svg>
