<?xml version="1.0" encoding="UTF-8"?>
<svg id="Layer_2" data-name="Layer 2" xmlns="http://www.w3.org/2000/svg" viewBox="0 0 2171.95 544.83">
  <defs>
    <style>
      .cls-1 {
        fill: #c0f43c;
      }

      .cls-2 {
        fill: #fff;
      }

      .cls-3 {
        fill: #1b9ad6;
      }

      .cls-4 {
        fill: #ffffff;
      }
    </style>
  </defs>
  <g id="Layer_1-2" data-name="Layer 1">
    <g>
      <g>
        <path class="cls-3" d="M45.21,111.98L0,4.17h31.98l25.61,63.71,8.21,19.73,11.15,28.55-.25.61c-.61,1.23-1.47,1.96-2.45,2.7-.37.37-.86.74-1.35,1.1h-.25c-2.94,2.33-5.88,3.19-10.54,3.19s-8.33-.98-11.15-3.06l-.25-.25c-2.57-2.57-4.53-5.51-5.76-8.7h0l.25.25Z"/>
        <path class="cls-3" d="M80.62,110.51l-13.23-32.59L97.04,12.62c1.47-3.55,3.55-6.62,6-8.21,2.82-2.08,5.88-2.94,10.41-2.94s8.33.98,11.15,3.06c2.33,1.59,4.53,4.53,6,8.21l25.85,59.3,19.24,47.78h-1.84s-.37.49-.74.86h-.12c-2.94,2.33-5.88,3.19-10.54,3.19s-8.33-.98-10.54-3.06c-2.94-2.21-5.15-5.15-6.62-8.7l-31.98-70.45-32.71,68.98h0v-.12h0Z"/>
        <path class="cls-3" d="M178.76,113.09l-14.58-35.16L195.54,4.17h31.61l-1.1,2.33c-1.35,2.7-3.43,6.74-5.39,12.62h0c-1.35,2.82-2.7,5.51-4.04,8.33-1.47,3.31-3.19,6.62-4.9,10.17-2.7,6.62-5.88,13.72-9.56,21.81-2.82,7.6-6.25,14.46-9.56,21.07-2.45,6.62-5.02,12.86-8.09,19.11-1.35,4.17-2.82,7.6-4.17,10.29l-1.59,3.06h0v.12h0Z"/>
      </g>
      <path class="cls-3" d="M802.26,115.66h.25c5.15-1.96,10.41-4.17,14.09-7.11h0c3.43-3.55,5.64-7.6,7.23-13.11,1.23-4.17,2.82-10.78,2.82-18.87v-36.14c0-5.64-.86-11.52-2.82-18.13-1.47-6.13-3.92-10.29-7.35-12.99-3.31-3.31-7.96-5.51-14.33-7.23-5.64-1.35-12.62-2.08-21.44-2.08h-92.13v24.99h91.52c1.84,0,3.68.12,5.27.37,1.23.12,2.33.25,3.31.25,2.57.61,4.29,1.96,5.27,2.94,1.23,1.23,2.45,3.19,3.06,4.78.61,2.57.61,5.15.61,8.33v34.06c0,3.19,0,5.76-.49,8.21-.49.74-.86,1.59-1.23,2.33-.49.98-.98,1.96-1.59,2.57-1.72,1.23-3.55,2.33-5.15,2.33h-.37c-2.7.74-5.27,1.35-8.45,1.35h-62.48V30.14h-29.04v87.72h92.13c8.82,0,15.93-.61,21.44-2.08h-.25l.12-.12h0Z"/>
      <path class="cls-3" d="M550.24,82.95c-.12-1.59-.37-3.19-.37-4.9V1.47h28.3v75.84c0,2.57.61,5.76,1.23,7.6v.49c0,.61,0,.74.25.98l2.7,2.7h-31.86v-1.59c0-1.59-.12-3.06-.25-4.53h0Z"/>
      <path class="cls-3" d="M549.87,93.6h113.21v24.5h-70.69c-7.96,0-14.95-.61-21.2-2.08h-.12c-5.88-2.21-9.92-4.41-13.11-6.98h-.12c-3.8-3.92-6.49-8.33-7.84-12.86v-2.57h-.12Z"/>
      <path class="cls-3" d="M323.7,26.46h-88.34l3.06-3.06c1.47-5.88,3.8-9.92,7.23-12.62,3.31-3.31,7.84-5.51,14.33-7.23,5.64-1.35,12.62-2.08,21.44-2.08h43c8.82,0,15.93.61,21.44,2.08,6.49,1.59,11.03,3.92,14.33,7.23,3.43,2.82,5.76,6.98,7.23,12.99,1.35,4.78,2.08,11.15,2.08,18.13v36.14c0,7.6-.74,13.97-2.08,18.87-1.59,5.51-3.8,9.56-7.23,12.99h-.12c-3.68,3.06-8.94,5.27-14.09,7.23h-.12c-5.64,1.47-12.62,2.21-21.44,2.21h-43c-8.82,0-15.81-.61-21.44-2.08h-.12c-5.15-1.96-10.29-4.17-14.09-7.11h-.12c-3.43-3.55-5.64-7.6-7.23-13.11-1.35-4.9-2.08-11.27-2.08-18.87V31.61h29.04v3.31c-.61,2.57-.61,5.15-.61,8.45v34.06c0,3.31,0,5.88.61,8.45.61,2.45,1.1,3.55,2.33,4.66.98.98,2.7,2.21,5.27,2.94,1.23,0,2.45.25,3.8.25,1.59.25,3.43.37,5.51.37h41.53c1.84,0,3.68-.25,5.27-.37,1.23,0,2.33-.25,3.31-.25,2.57-.61,4.29-1.96,5.27-2.94,1.35-1.35,2.45-2.45,2.94-4.66.61-2.57.61-5.15.61-8.45v-34.06c0-3.31,0-5.88-.61-8.33-.49-1.59-1.72-3.55-3.06-4.78-.98-.98-2.7-2.33-5.27-2.94-.98,0-2.08-.12-3.31-.25-1.59-.12-3.55-.37-5.27-.37h0v-.25h0Z"/>
      <path class="cls-3" d="M419.39,119.21h-28.3V30.87h28.3v27.32h61.14c2.21,0,4.17-.25,6-.37,1.47,0,2.82-.25,4.04-.25,2.45-.61,4.29-1.23,5.51-1.84,1.59-1.1,2.08-2.08,2.7-3.92v-.25c.61-1.1,1.23-3.55,1.23-6.86v-6.13c0-2.08-.37-4.29-1.23-6.86-.61-1.23-1.1-2.21-2.82-3.31-1.23-.61-3.06-1.23-5.51-1.84-1.23,0-2.57-.12-4.04-.25-1.72-.12-3.8-.37-6-.37h-89.44V1.47h90.91c8.58,0,15.44.74,20.58,1.35h.12c6.86,1.47,11.39,2.94,14.95,5.76,3.55,2.82,6.49,6.49,8.58,10.78h0c0,.12.12.25.12.25,1.47,5.02,2.08,10.66,2.08,17.4v8.21c0,7.72-.86,12.99-2.82,16.91-1.47,4.29-4.41,7.96-8.7,10.9-3.55,2.82-8.09,4.29-14.95,5.76h-.12c-1.84.25-3.92.49-6.49.74l34.92,39.45h-36.88l-35.04-38.84h-39.08v38.84h0l.25.25h0Z"/>
      <g>
        <rect class="cls-3" x="607.21" y="236.46" width="29.04" height="40.55"/>
        <polygon class="cls-3" points="716.86 205.83 636.25 205.83 636.25 159.52 607.21 159.52 607.21 231.56 716.86 231.56 716.86 277.14 745.17 277.14 745.17 159.52 716.86 159.52 716.86 205.83"/>
        <path class="cls-3" d="M890.6,168.83c-3.31-3.31-7.96-5.51-14.33-7.23-5.64-1.35-12.62-2.08-21.44-2.08h-43c-8.82,0-15.93.61-21.44,2.08-6.49,1.59-11.03,3.92-14.33,7.23-3.43,2.7-5.64,6.74-7.23,12.62l-3.06,3.06h88.34c1.84,0,3.68.12,5.27.37,1.23.12,2.33.25,3.31.25,2.57.61,4.29,1.96,5.27,2.94,1.23,1.35,2.45,3.19,3.06,4.78.61,2.57.61,5.15.61,8.33v34.06c0,3.31,0,5.88-.61,8.45-.61,2.33-1.72,3.43-2.94,4.66-.98.98-2.7,2.33-5.27,2.94-.98,0-2.08.12-3.31.25-1.59.12-3.55.37-5.27.37h-41.53c-2.21,0-3.92-.12-5.51-.37-1.35-.12-2.57-.25-3.8-.25-2.57-.61-4.29-1.96-5.27-2.94-1.1-1.1-1.72-2.33-2.33-4.66-.61-2.57-.61-5.15-.61-8.45v-34.06c0-3.31,0-6,.61-8.45v-3.31h-29.04v46.56c0,7.6.74,13.97,2.08,18.87,1.59,5.51,3.92,9.56,7.23,12.99h0c3.68,3.06,8.94,5.27,14.09,7.23h.25c5.64,1.47,12.62,2.21,21.44,2.21h43c8.82,0,15.93-.61,21.44-2.08h.25c5.15-1.96,10.41-4.17,14.09-7.11h0c3.31-3.43,5.64-7.6,7.23-13.11,1.35-4.9,2.08-11.27,2.08-18.87v-36.14c0-7.11-.74-13.23-2.08-18.13-1.47-6.13-3.92-10.29-7.35-12.99h.12Z"/>
        <path class="cls-3" d="M583.56,222.5c-1.35-3.31-3.31-6.25-6.49-9.31h-.12c-2.57-2.08-6.25-4.41-11.52-5.15-4.17-1.35-9.68-2.08-16.05-2.08h-53.79c-3.55,0-6-.49-7.84-1.72-.98-.98-1.47-3.31-1.47-6.25v-8.33h-26.34v9.07c0,5.39,0,9.68,1.35,13.35.74,4.41,3.06,7.47,5.02,10.05h.12c0,.12.12.25.12.25,3.68,2.82,7.23,4.41,10.78,5.02,4.17,1.35,9.68,2.08,16.05,2.08h54.52c3.68,0,6.74.61,8.58,1.72,1.84,1.84,2.82,3.55,2.82,6.98v6.13c0,2.7-.98,5.02-2.7,6.25-1.72,1.1-4.78,1.84-8.7,1.84h-88.83v24.99h90.17c6.37,0,12.01-.74,16.17-2.08,5.39-1.59,8.7-3.06,11.39-5.02h.12c2.45-2.57,4.9-5.51,6.49-10.29,1.35-3.55,2.08-8.33,2.08-14.21v-8.82c0-5.39-.61-9.8-2.08-14.09h0v-.25h0l.12-.12h0Z"/>
        <path class="cls-3" d="M478.2,160.87h-.25c-4.53,1.59-7.96,3.8-10.17,6.62-2.82,2.21-4.9,5.51-6.49,10.17v.49c0,.37-.12.98-.25,1.59-.12.86-.37,1.96-.37,3.19v1.59h125.09v-24.99h-92.13c-5.76,0-11.52.74-15.31,1.35h-.12Z"/>
        <path class="cls-3" d="M1042.77,168.34c-1.47-3.55-3.68-6.62-6-8.09-2.82-2.08-6.25-3.06-11.15-3.06s-7.6.86-10.41,3.06c-2.33,1.59-4.53,4.53-6,8.09l-29.53,65.3,13.23,32.59,32.71-68.98,31.98,70.45c1.47,3.55,3.68,6.62,6.62,8.7,2.21,2.08,5.51,3.06,10.54,3.06s7.6-.86,10.54-3.06h.25c.25-.49.49-.74.74-.98h1.84l-19.24-47.91-25.85-59.3h0l-.25.12h0Z"/>
        <path class="cls-3" d="M1076.34,233.64l14.58,35.16,1.59-3.06c1.35-2.7,2.7-6.13,4.17-10.29,3.06-6.13,5.76-12.37,8.21-19.11,3.31-6.62,6.74-13.48,9.56-21.07,3.68-7.96,6.86-15.19,9.56-21.81,1.84-3.55,3.43-6.98,4.9-10.17,1.35-2.94,2.7-5.64,3.92-8.21h0c2.08-6.13,4.04-10.17,5.39-12.86l1.1-2.33h-31.61l-31.36,73.76h0Z"/>
        <path class="cls-3" d="M969.87,223.6l-25.61-63.59h-32.1l45.21,107.69c1.23,3.19,3.19,6.13,5.76,8.7h.25c2.82,2.21,6.37,3.19,11.15,3.19s7.6-.86,10.54-3.06h.25c.37-.49.86-.86,1.35-1.23.86-.74,1.84-1.47,2.45-2.7l.25-.61-11.15-28.55-8.21-19.73h0c0-.12,0,0,0,0l-.12-.12Z"/>
      </g>
      <g>
        <path class="cls-3" d="M91.77,332.52h134.77l-25.97-41.78h-84.05l49.25-79.27,26.71,43.74,62.12,100.96,16.17,26.95h60.77l-127.54-203.87c-4.53-7.6-8.58-12.5-13.48-16.17-6-4.53-14.58-6.98-24.63-6.98s-17.28,2.45-23.28,6.86c-6.13,4.53-11.27,10.17-14.82,16.05L0,383h60.77l31.12-50.48h-.12Z"/>
        <rect class="cls-3" x="372.22" y="161.11" width="52.19" height="221.88"/>
      </g>
      <g>
        <path class="cls-1" d="M1128.54,327.56c-5.94,0-10.79-4.83-10.79-10.77s4.83-10.77,10.79-10.77,10.77,4.83,10.77,10.77-4.83,10.77-10.77,10.77Z"/>
        <path class="cls-2" d="M1121.47,382.12c-7.03,0-15.41-2.98-15.41-17.03v-19.48c0-7.15-3.86-11.27-10.58-11.27s-11.51,4.77-11.51,11.86v35.33h-17.24v-61.84h17.24v4.79c3.8-3.76,9.44-5.95,15.79-5.95,14.53,0,23.54,9.62,23.54,25.15v18.42c0,4.43.75,4.43,2.24,4.43.55,0,1.11-.09,1.64-.21l2.05-.41v15.04l-1.24.35c-1.78.52-3.93.77-6.51.77h-.01v.03h0Z"/>
        <path class="cls-2" d="M1052.77,327.34c-6.48-6.26-14.48-9.4-23.82-9.4s-17.33,3.17-23.84,9.4c-6.51,6.25-9.81,14.09-9.81,23.25s3.3,17,9.81,23.26c6.51,6.26,14.48,9.4,23.84,9.4s17.33-3.17,23.82-9.4c6.51-6.25,9.8-14.09,9.8-23.26s-3.3-17-9.8-23.25ZM1040.64,362.5c-3.18,3.17-6.98,4.71-11.65,4.71s-8.59-1.53-11.77-4.7c-3.12-3.33-4.64-7.22-4.64-11.9s1.52-8.58,4.64-11.79c3.14-3.24,6.98-4.82,11.77-4.82s8.5,1.58,11.65,4.83c3.18,3.17,4.71,7.01,4.71,11.76s-1.56,8.62-4.71,11.9v-.03.03Z"/>
        <path class="cls-2" d="M973.06,383.17c-9.4,0-17.42-3.12-23.82-9.3-6.44-6.19-9.69-14.04-9.69-23.37s3.26-17.09,9.69-23.26c6.48-6.25,14.51-9.4,23.82-9.4,9.81,0,18.12,3.58,24.71,10.64l1.11,1.19-10.96,11.4-1.24-1.3c-3.51-3.8-8.46-5.91-13.61-5.85-4.67,0-8.5,1.53-11.65,4.7-3.05,3.17-4.61,7.13-4.61,11.88s1.56,8.75,4.63,11.9c3.17,3.17,6.94,4.7,11.64,4.7,5.36,0,9.95-1.97,13.6-5.85l1.24-1.31,10.98,11.4-1.11,1.19c-6.57,7.06-14.9,10.64-24.71,10.64v-.03h-.03.03Z"/>
        <path class="cls-2" d="M911.73,383.05c-12.18,0-21.56-4.66-25.68-12.77l-.62-1.19,11.48-9.68,1.06,1.66c2.58,4.02,7.93,6.53,13.98,6.53,2.62,0,8.72-.44,8.72-4.66,0-1.64-1.72-2.73-2.45-3.11l-.1-.06c-1.11-.69-3.48-1.49-5.07-2.02l-1.69-.55c-1.83-.57-4.07-1.3-5.58-1.92-10.71-3.85-15.5-9.43-15.5-18.06,0-5.89,2.21-10.64,6.56-14.1,4.43-3.4,9.74-5.13,15.82-5.13,8.71,0,15.5,3.11,20.27,9.24l.91,1.16-10.15,10.76-1.24-1.58c-2.2-2.77-5.55-4.2-10-4.2-2.46,0-5.36.93-5.36,3.48,0,1.11.43,1.66,1.89,2.61.31.21,1.36.74,4.36,1.89,1.61.43,4.27,1.4,6.41,2.12l.93.34c11.64,4.11,16.81,9.99,16.81,19.01,0,12.51-9.86,20.26-25.74,20.26v-.04h-.01,0Z"/>
        <path class="cls-2" d="M878.01,327.06c-5.63-5.98-13.02-9-22.04-9s-17.18,3.02-23.25,8.97c-6.04,6.03-9.09,13.97-9.09,23.59v.47c0,9.56,3.08,17.34,9.13,23.15,6.03,5.78,13.97,8.71,23.59,8.71,10.24,0,18.93-3.68,25.84-10.98l1.19-1.24-10.8-10.48-1.19,1.19c-4.15,4.15-8.94,6.2-14.57,6.2-8.71,0-14.57-4.49-15.74-11.86h45.17l.12-1.59c.13-1.62.25-3.24.25-4.99,0-8.77-2.89-16.22-8.59-22.16h-.04.01ZM841.56,342.62c.63-2.28,2-4.27,4.23-5.94,2.87-2.22,6.31-3.37,10.2-3.37,3.6,0,6.6,1.11,9.22,3.42,2,1.68,3.23,3.67,3.64,5.89h-27.29Z"/>
        <path class="cls-2" d="M801.3,381.53h-17.24v-61.84h17.24v4.86c3.7-3.85,9.24-6.03,15.69-6.03,1.71,0,3.26.13,4.52.38l1.38.27v16.96l-2.05-.4c-1.8-.35-3.64-.55-5.47-.55-8.68,0-14.06,5.33-14.06,13.92v32.41h-.03Z"/>
        <path class="cls-2" d="M769.88,383.15c-13.5,0-20.64-7.44-20.64-21.56v-25.87h-7.32v-16.07h7.32v-22.38h17.39v22.38h12.91v16.07h-12.91v24.35c0,5.89,1.87,6.97,5.58,6.97,1.8,0,3.23-.13,4.49-.43l2.11-.49v15.93l-1.33.31c-2.08.5-4.66.75-7.59.75h0v.03Z"/>
        <path class="cls-2" d="M653.33,364.9v-41.55h19.61c2.83,0,5.29.47,7.38,1.41,2.11.94,3.76,2.3,4.95,4.04,1.19,1.71,1.78,3.68,1.78,5.94,0,1.83-.47,3.51-1.43,5.04-.9,1.5-2.17,2.73-3.74,3.68,2.03.94,3.64,2.22,4.83,3.86,1.19,1.62,1.78,3.46,1.78,5.51,0,2.36-.6,4.48-1.86,6.31-1.19,1.83-2.89,3.24-5.13,4.27-2.2.99-4.71,1.49-7.63,1.49h-20.57.01ZM661.98,340.34h10.45c1.89,0,3.34-.43,4.41-1.31,1.12-.9,1.68-2.11,1.68-3.62s-.56-2.7-1.68-3.55c-1.08-.9-2.55-1.37-4.41-1.37h-10.45v9.86ZM661.98,357.8h11.27c1.99,0,3.57-.47,4.77-1.41,1.19-.99,1.78-2.3,1.78-3.92s-.59-2.96-1.78-3.9c-1.19-.99-2.78-1.49-4.77-1.49h-11.27v10.76-.03h0Z"/>
        <path class="cls-2" d="M704.84,364.9v-15.9l-17.06-25.64h9.96l11.68,18.03,11.76-18.03h9.43l-17.11,25.71v15.84h-8.66Z"/>
      </g>
      <rect class="cls-2" x="1248.93" y="2.66" width="2.45" height="393.07"/>
      <rect class="cls-3" x="0" y="446.85" width="2171.94" height="97.98"/>
      <g>
        <path d="M67.36,506.29h-6.83v8.76h-6.94v-8.76h-21.16v-4.96l19.01-24.85h7.66l-17.91,23.75h12.62v-7.77h6.72v7.77h6.83v6.06Z"/>
        <path d="M98.65,476.48v4.79l-14.99,33.77h-7.66l14.49-32.51h-15.15v6.56h-6.67v-12.62h29.97Z"/>
        <path d="M115.23,495.77c-.96.77-2.41,1.16-3.85,1.16-3.76,0-5.91-1.99-5.91-5.78v-8.25h-2.83v-3.21h2.83v-3.92h4.01v3.92h4.59v3.21h-4.59v8.16c0,1.67.84,2.57,2.38,2.57.84,0,1.64-.23,2.25-.71l1.12,2.86Z"/>
        <path d="M136.4,486.87v9.83h-4.02v-9.32c0-3.05-1.51-4.53-4.08-4.53-2.86,0-4.79,1.73-4.79,5.17v8.67h-4.01v-23.83h4.01v8.67c1.32-1.41,3.34-2.18,5.72-2.18,4.11,0,7.16,2.35,7.16,7.52Z"/>
        <path d="M188.21,495.32h6.78v15.37c-4.02,3.25-9.64,4.9-15.1,4.9-11.96,0-20.77-8.32-20.77-19.83s8.82-19.83,20.88-19.83c6.45,0,11.85,2.15,15.48,6.28l-4.52,4.41c-3.03-3.03-6.5-4.41-10.63-4.41-8.21,0-13.99,5.56-13.99,13.55s5.79,13.55,13.94,13.55c2.75,0,5.45-.55,7.93-1.98v-12.01Z"/>
        <path d="M205.4,474.17h6.89v40.88h-6.89v-40.88Z"/>
        <path d="M220.55,500.34c0-8.82,6.61-15.04,15.65-15.04s15.7,6.23,15.7,15.04-6.56,15.1-15.7,15.1-15.65-6.28-15.65-15.1ZM244.96,500.34c0-5.62-3.75-9.2-8.76-9.2s-8.71,3.58-8.71,9.2,3.75,9.2,8.71,9.2,8.76-3.58,8.76-9.2Z"/>
        <path d="M291.4,500.34c0,9.15-6.34,15.1-14.93,15.1-4.02,0-7.44-1.38-9.75-4.19v3.8h-6.56v-40.88h6.89v15.04c2.37-2.64,5.67-3.91,9.42-3.91,8.6,0,14.93,5.9,14.93,15.04ZM284.4,500.34c0-5.62-3.75-9.2-8.71-9.2s-8.76,3.58-8.76,9.2,3.8,9.2,8.76,9.2,8.71-3.58,8.71-9.2Z"/>
        <path d="M323.85,497.8v17.25h-6.5v-3.58c-1.65,2.53-4.85,3.97-9.26,3.97-6.72,0-10.96-3.69-10.96-8.82s3.31-8.76,12.23-8.76h7.6v-.44c0-4.02-2.42-6.39-7.33-6.39-3.31,0-6.72,1.1-8.93,2.92l-2.7-5.01c3.14-2.42,7.71-3.64,12.45-3.64,8.48,0,13.39,4.02,13.39,12.51ZM316.96,505.85v-3.42h-7.11c-4.68,0-5.95,1.76-5.95,3.91,0,2.48,2.09,4.08,5.62,4.08s6.28-1.54,7.44-4.57Z"/>
        <path d="M334.32,474.17h6.89v40.88h-6.89v-40.88Z"/>
        <path d="M398.34,509.04v6.01h-28.93v-38.57h28.15v6.01h-20.99v10.03h18.62v5.9h-18.62v10.63h21.76Z"/>
        <path d="M435.86,474.17v40.88h-6.61v-3.8c-2.31,2.81-5.73,4.19-9.75,4.19-8.54,0-14.88-5.95-14.88-15.1s6.34-15.04,14.88-15.04c3.8,0,7.16,1.27,9.48,3.97v-15.1h6.89ZM429.08,500.34c0-5.62-3.8-9.2-8.76-9.2s-8.76,3.58-8.76,9.2,3.8,9.2,8.76,9.2,8.76-3.58,8.76-9.2Z"/>
        <path d="M445.61,476.65c0-2.31,1.87-4.13,4.41-4.13s4.41,1.71,4.41,3.97c0,2.42-1.82,4.3-4.41,4.3s-4.41-1.82-4.41-4.13ZM446.55,485.63h6.89v29.42h-6.89v-29.42Z"/>
        <path d="M481.81,513.45c-1.65,1.32-4.13,1.98-6.61,1.98-6.45,0-10.14-3.42-10.14-9.92v-14.16h-4.85v-5.51h4.85v-6.72h6.89v6.72h7.88v5.51h-7.88v13.99c0,2.87,1.43,4.41,4.08,4.41,1.43,0,2.81-.39,3.86-1.21l1.93,4.9Z"/>
        <path d="M488.19,476.65c0-2.31,1.87-4.13,4.41-4.13s4.41,1.71,4.41,3.97c0,2.42-1.82,4.3-4.41,4.3s-4.41-1.82-4.41-4.13ZM489.13,485.63h6.89v29.42h-6.89v-29.42Z"/>
        <path d="M504.28,500.34c0-8.82,6.61-15.04,15.65-15.04s15.7,6.23,15.7,15.04-6.56,15.1-15.7,15.1-15.65-6.28-15.65-15.1ZM528.69,500.34c0-5.62-3.75-9.2-8.76-9.2s-8.71,3.58-8.71,9.2,3.75,9.2,8.71,9.2,8.76-3.58,8.76-9.2Z"/>
        <path d="M572.87,498.19v16.86h-6.89v-15.98c0-5.23-2.59-7.77-7-7.77-4.9,0-8.21,2.98-8.21,8.87v14.88h-6.89v-29.42h6.56v3.8c2.26-2.7,5.84-4.13,10.14-4.13,7.05,0,12.29,4.02,12.29,12.89Z"/>
        <path class="cls-4" d="M617.66,474.17h6.34v51.57h-6.34v-51.57Z"/>
        <path d="M704,504.58c0,6.61-5.18,10.47-15.1,10.47h-19.17v-38.57h18.07c9.26,0,14.21,3.91,14.21,10.03,0,3.97-1.98,6.89-4.96,8.48,4.13,1.32,6.94,4.57,6.94,9.59ZM676.89,482.1v10.63h10.14c4.96,0,7.77-1.76,7.77-5.29s-2.81-5.34-7.77-5.34h-10.14ZM696.78,503.86c0-3.86-2.92-5.56-8.32-5.56h-11.57v11.13h11.57c5.4,0,8.32-1.71,8.32-5.56Z"/>
        <path d="M740.19,485.63l-13.77,31.79c-2.7,6.67-6.45,8.71-11.35,8.71-2.92,0-6.01-.99-7.88-2.7l2.75-5.07c1.32,1.27,3.2,2.04,5.07,2.04,2.42,0,3.86-1.16,5.18-4.08l.5-1.16-12.84-29.53h7.16l9.26,21.76,9.31-21.76h6.61Z"/>
        <path d="M763.66,476.48h7.16v38.57h-7.16v-38.57Z"/>
        <path d="M811.21,498.19v16.86h-6.89v-15.98c0-5.23-2.59-7.77-7-7.77-4.9,0-8.21,2.98-8.21,8.87v14.88h-6.89v-29.42h6.56v3.8c2.26-2.7,5.84-4.13,10.14-4.13,7.05,0,12.29,4.02,12.29,12.89Z"/>
        <path d="M848.62,485.63l-12.62,29.42h-7.11l-12.62-29.42h7.16l9.15,21.82,9.42-21.82h6.61Z"/>
        <path d="M853.63,476.65c0-2.31,1.87-4.13,4.41-4.13s4.41,1.71,4.41,3.97c0,2.42-1.82,4.3-4.41,4.3s-4.41-1.82-4.41-4.13ZM854.57,485.63h6.89v29.42h-6.89v-29.42Z"/>
        <path d="M889.83,513.45c-1.65,1.32-4.13,1.98-6.61,1.98-6.45,0-10.14-3.42-10.14-9.92v-14.16h-4.85v-5.51h4.85v-6.72h6.89v6.72h7.88v5.51h-7.88v13.99c0,2.87,1.43,4.41,4.08,4.41,1.43,0,2.81-.39,3.86-1.21l1.93,4.9Z"/>
        <path d="M921.78,497.8v17.25h-6.5v-3.58c-1.65,2.53-4.85,3.97-9.26,3.97-6.72,0-10.96-3.69-10.96-8.82s3.31-8.76,12.23-8.76h7.6v-.44c0-4.02-2.42-6.39-7.33-6.39-3.31,0-6.72,1.1-8.93,2.92l-2.7-5.01c3.14-2.42,7.71-3.64,12.45-3.64,8.48,0,13.39,4.02,13.39,12.51ZM914.89,505.85v-3.42h-7.11c-4.68,0-5.95,1.76-5.95,3.91,0,2.48,2.09,4.08,5.62,4.08s6.28-1.54,7.44-4.57Z"/>
        <path d="M949.93,513.45c-1.65,1.32-4.13,1.98-6.61,1.98-6.45,0-10.14-3.42-10.14-9.92v-14.16h-4.85v-5.51h4.85v-6.72h6.89v6.72h7.88v5.51h-7.88v13.99c0,2.87,1.43,4.41,4.08,4.41,1.43,0,2.81-.39,3.86-1.21l1.93,4.9Z"/>
        <path d="M956.32,476.65c0-2.31,1.87-4.13,4.41-4.13s4.41,1.71,4.41,3.97c0,2.42-1.82,4.3-4.41,4.3s-4.41-1.82-4.41-4.13ZM957.26,485.63h6.89v29.42h-6.89v-29.42Z"/>
        <path d="M972.41,500.34c0-8.82,6.61-15.04,15.65-15.04s15.7,6.23,15.7,15.04-6.56,15.1-15.7,15.1-15.65-6.28-15.65-15.1ZM996.82,500.34c0-5.62-3.75-9.2-8.76-9.2s-8.71,3.58-8.71,9.2,3.75,9.2,8.71,9.2,8.76-3.58,8.76-9.2Z"/>
        <path d="M1041,498.19v16.86h-6.89v-15.98c0-5.23-2.59-7.77-7-7.77-4.9,0-8.21,2.98-8.21,8.87v14.88h-6.89v-29.42h6.56v3.8c2.26-2.7,5.84-4.13,10.14-4.13,7.05,0,12.29,4.02,12.29,12.89Z"/>
        <path d="M1066.18,495.76c0-11.4,8.82-19.83,20.77-19.83s20.77,8.37,20.77,19.83-8.82,19.83-20.77,19.83-20.77-8.43-20.77-19.83ZM1100.51,495.76c0-7.88-5.79-13.55-13.55-13.55s-13.55,5.67-13.55,13.55,5.79,13.55,13.55,13.55,13.55-5.67,13.55-13.55Z"/>
        <path d="M1145.3,498.19v16.86h-6.89v-15.98c0-5.23-2.59-7.77-7-7.77-4.9,0-8.21,2.98-8.21,8.87v14.88h-6.89v-29.42h6.56v3.8c2.26-2.7,5.84-4.13,10.14-4.13,7.05,0,12.29,4.02,12.29,12.89Z"/>
        <path d="M1155.71,474.17h6.89v40.88h-6.89v-40.88Z"/>
        <path d="M1200.83,485.63l-13.77,31.79c-2.7,6.67-6.45,8.71-11.35,8.71-2.92,0-6.01-.99-7.88-2.7l2.75-5.07c1.32,1.27,3.2,2.04,5.07,2.04,2.42,0,3.86-1.16,5.18-4.08l.5-1.16-12.84-29.53h7.16l9.26,21.76,9.31-21.76h6.61Z"/>
        <path d="M1231.24,484.08v1.76h8.1v5.51h-7.88v23.69h-6.89v-23.69h-4.85v-5.51h4.85v-1.87c0-6.17,3.69-10.19,10.52-10.19,2.37,0,4.68.5,6.23,1.6l-1.93,5.18c-1.05-.72-2.37-1.21-3.8-1.21-2.87,0-4.35,1.6-4.35,4.74Z"/>
        <path d="M1242.76,500.34c0-8.82,6.61-15.04,15.65-15.04s15.7,6.23,15.7,15.04-6.56,15.1-15.7,15.1-15.65-6.28-15.65-15.1ZM1267.16,500.34c0-5.62-3.75-9.2-8.76-9.2s-8.71,3.58-8.71,9.2,3.75,9.2,8.71,9.2,8.76-3.58,8.76-9.2Z"/>
        <path d="M1299.39,485.3v6.56c-.61-.11-1.1-.17-1.6-.17-5.23,0-8.54,3.09-8.54,9.09v14.27h-6.89v-29.42h6.56v4.3c1.98-3.09,5.56-4.63,10.47-4.63Z"/>
        <path d="M1353.6,509.04v6.01h-28.93v-38.57h28.15v6.01h-20.99v10.03h18.62v5.9h-18.62v10.63h21.76Z"/>
        <path d="M1391.57,498.19v16.86h-6.89v-15.98c0-5.23-2.59-7.77-7-7.77-4.9,0-8.21,2.98-8.21,8.87v14.88h-6.89v-29.42h6.56v3.8c2.26-2.7,5.84-4.13,10.14-4.13,7.05,0,12.29,4.02,12.29,12.89Z"/>
        <path d="M1419.66,513.45c-1.65,1.32-4.13,1.98-6.61,1.98-6.45,0-10.14-3.42-10.14-9.92v-14.16h-4.85v-5.51h4.85v-6.72h6.89v6.72h7.88v5.51h-7.88v13.99c0,2.87,1.43,4.41,4.08,4.41,1.43,0,2.81-.39,3.86-1.21l1.93,4.9Z"/>
        <path d="M1453.55,502.54h-23.09c.83,4.3,4.41,7.05,9.53,7.05,3.31,0,5.9-1.05,7.99-3.2l3.69,4.24c-2.64,3.14-6.78,4.79-11.85,4.79-9.86,0-16.25-6.34-16.25-15.1s6.45-15.04,15.21-15.04,14.88,6.01,14.88,15.21c0,.55-.06,1.38-.11,2.04ZM1430.41,497.97h16.69c-.55-4.24-3.8-7.16-8.32-7.16s-7.71,2.87-8.37,7.16Z"/>
        <path d="M1478.94,485.3v6.56c-.61-.11-1.1-.17-1.6-.17-5.23,0-8.54,3.09-8.54,9.09v14.27h-6.89v-29.42h6.56v4.3c1.98-3.09,5.56-4.63,10.47-4.63Z"/>
        <path d="M1517.68,500.34c0,9.15-6.34,15.1-14.93,15.1-3.75,0-7.05-1.27-9.42-3.97v14.27h-6.89v-40.11h6.56v3.86c2.31-2.81,5.73-4.19,9.75-4.19,8.6,0,14.93,5.95,14.93,15.04ZM1510.68,500.34c0-5.62-3.75-9.2-8.71-9.2s-8.76,3.58-8.76,9.2,3.8,9.2,8.76,9.2,8.71-3.58,8.71-9.2Z"/>
        <path d="M1542.91,485.3v6.56c-.61-.11-1.1-.17-1.6-.17-5.23,0-8.54,3.09-8.54,9.09v14.27h-6.89v-29.42h6.56v4.3c1.98-3.09,5.56-4.63,10.47-4.63Z"/>
        <path d="M1549.46,476.65c0-2.31,1.87-4.13,4.41-4.13s4.41,1.71,4.41,3.97c0,2.42-1.82,4.3-4.41,4.3s-4.41-1.82-4.41-4.13ZM1550.4,485.63h6.89v29.42h-6.89v-29.42Z"/>
        <path d="M1564.62,512.13l2.64-5.23c2.59,1.71,6.56,2.92,10.25,2.92,4.35,0,6.17-1.21,6.17-3.25,0-5.62-18.18-.33-18.18-12.07,0-5.56,5.01-9.2,12.95-9.2,3.91,0,8.37.94,11.02,2.53l-2.64,5.23c-2.81-1.65-5.62-2.2-8.43-2.2-4.19,0-6.17,1.38-6.17,3.31,0,5.95,18.18.66,18.18,12.18,0,5.51-5.07,9.09-13.33,9.09-4.9,0-9.81-1.43-12.45-3.31Z"/>
        <path d="M1625.55,502.54h-23.09c.83,4.3,4.41,7.05,9.53,7.05,3.31,0,5.9-1.05,7.99-3.2l3.69,4.24c-2.64,3.14-6.78,4.79-11.85,4.79-9.86,0-16.25-6.34-16.25-15.1s6.45-15.04,15.21-15.04,14.88,6.01,14.88,15.21c0,.55-.06,1.38-.11,2.04ZM1602.41,497.97h16.69c-.55-4.24-3.8-7.16-8.32-7.16s-7.71,2.87-8.37,7.16Z"/>
        <path d="M1651.44,476.48h16.86c12.51,0,21.05,7.71,21.05,19.28s-8.54,19.28-21.05,19.28h-16.86v-38.57ZM1667.97,508.99c8.6,0,14.16-5.23,14.16-13.22s-5.56-13.22-14.16-13.22h-9.37v26.45h9.37Z"/>
        <path d="M1725.49,502.54h-23.09c.83,4.3,4.41,7.05,9.53,7.05,3.31,0,5.9-1.05,7.99-3.2l3.69,4.24c-2.64,3.14-6.78,4.79-11.85,4.79-9.86,0-16.25-6.34-16.25-15.1s6.45-15.04,15.21-15.04,14.88,6.01,14.88,15.21c0,.55-.06,1.38-.11,2.04ZM1702.35,497.97h16.69c-.55-4.24-3.8-7.16-8.32-7.16s-7.71,2.87-8.37,7.16Z"/>
        <path d="M1731.44,500.34c0-8.82,6.61-15.04,15.92-15.04,5.73,0,10.3,2.37,12.56,6.83l-5.29,3.09c-1.76-2.81-4.41-4.08-7.33-4.08-5.07,0-8.93,3.53-8.93,9.2s3.86,9.2,8.93,9.2c2.92,0,5.56-1.27,7.33-4.08l5.29,3.09c-2.26,4.41-6.83,6.89-12.56,6.89-9.31,0-15.92-6.28-15.92-15.1Z"/>
        <path d="M1766.59,476.65c0-2.31,1.87-4.13,4.41-4.13s4.41,1.71,4.41,3.97c0,2.42-1.82,4.3-4.41,4.3s-4.41-1.82-4.41-4.13ZM1767.53,485.63h6.89v29.42h-6.89v-29.42Z"/>
        <path d="M1781.74,512.13l2.64-5.23c2.59,1.71,6.56,2.92,10.25,2.92,4.35,0,6.17-1.21,6.17-3.25,0-5.62-18.18-.33-18.18-12.07,0-5.56,5.01-9.2,12.95-9.2,3.91,0,8.37.94,11.02,2.53l-2.64,5.23c-2.81-1.65-5.62-2.2-8.43-2.2-4.19,0-6.17,1.38-6.17,3.31,0,5.95,18.18.66,18.18,12.18,0,5.51-5.07,9.09-13.33,9.09-4.9,0-9.81-1.43-12.45-3.31Z"/>
        <path d="M1814.19,476.65c0-2.31,1.87-4.13,4.41-4.13s4.41,1.71,4.41,3.97c0,2.42-1.82,4.3-4.41,4.3s-4.41-1.82-4.41-4.13ZM1815.13,485.63h6.89v29.42h-6.89v-29.42Z"/>
        <path d="M1830.28,500.34c0-8.82,6.61-15.04,15.65-15.04s15.7,6.23,15.7,15.04-6.56,15.1-15.7,15.1-15.65-6.28-15.65-15.1ZM1854.68,500.34c0-5.62-3.75-9.2-8.76-9.2s-8.71,3.58-8.71,9.2,3.75,9.2,8.71,9.2,8.76-3.58,8.76-9.2Z"/>
        <path d="M1898.87,498.19v16.86h-6.89v-15.98c0-5.23-2.59-7.77-7-7.77-4.9,0-8.21,2.98-8.21,8.87v14.88h-6.89v-29.42h6.56v3.8c2.26-2.7,5.84-4.13,10.14-4.13,7.05,0,12.29,4.02,12.29,12.89Z"/>
        <path d="M1907.8,496.87h15.15v5.73h-15.15v-5.73Z"/>
        <path d="M1968.23,515.05l-.06-25.56-12.67,21.16h-3.2l-12.67-20.83v25.23h-6.83v-38.57h5.9l15.32,25.56,15.04-25.56h5.9l.06,38.57h-6.78Z"/>
        <path d="M2011.04,497.8v17.25h-6.5v-3.58c-1.65,2.53-4.85,3.97-9.26,3.97-6.72,0-10.96-3.69-10.96-8.82s3.31-8.76,12.23-8.76h7.6v-.44c0-4.02-2.42-6.39-7.33-6.39-3.31,0-6.72,1.1-8.93,2.92l-2.7-5.01c3.14-2.42,7.71-3.64,12.45-3.64,8.48,0,13.39,4.02,13.39,12.51ZM2004.16,505.85v-3.42h-7.11c-4.68,0-5.95,1.76-5.95,3.91,0,2.48,2.09,4.08,5.62,4.08s6.28-1.54,7.44-4.57Z"/>
        <path d="M2033.52,502.43l-5.12,4.85v7.77h-6.89v-40.88h6.89v24.68l14.27-13.22h8.26l-12.29,12.34,13.44,17.08h-8.37l-10.19-12.62Z"/>
        <path d="M2084.54,502.54h-23.09c.83,4.3,4.41,7.05,9.53,7.05,3.31,0,5.9-1.05,7.99-3.2l3.69,4.24c-2.64,3.14-6.78,4.79-11.85,4.79-9.86,0-16.25-6.34-16.25-15.1s6.45-15.04,15.21-15.04,14.88,6.01,14.88,15.21c0,.55-.06,1.38-.11,2.04ZM2061.4,497.97h16.69c-.55-4.24-3.8-7.16-8.32-7.16s-7.71,2.87-8.37,7.16Z"/>
        <path d="M2109.94,485.3v6.56c-.61-.11-1.1-.17-1.6-.17-5.23,0-8.54,3.09-8.54,9.09v14.27h-6.89v-29.42h6.56v4.3c1.98-3.09,5.56-4.63,10.47-4.63Z"/>
        <path d="M2114.18,512.13l2.64-5.23c2.59,1.71,6.56,2.92,10.25,2.92,4.35,0,6.17-1.21,6.17-3.25,0-5.62-18.18-.33-18.18-12.07,0-5.56,5.01-9.2,12.95-9.2,3.91,0,8.37.94,11.02,2.53l-2.64,5.23c-2.81-1.65-5.62-2.2-8.43-2.2-4.19,0-6.17,1.38-6.17,3.31,0,5.95,18.18.66,18.18,12.18,0,5.51-5.07,9.09-13.33,9.09-4.9,0-9.81-1.43-12.45-3.31Z"/>
      </g>
      <g>
        <g>
          <path class="cls-3" d="M1369.05,2.88h21.84v83.65h-21.84V2.88Z"/>
          <path class="cls-3" d="M1464.28,2.88h20.29v83.65h-19.09l-37.95-50v50h-20.41V2.88h19.21l38.07,50.36-.12-50.36Z"/>
          <path class="cls-3" d="M1560.16,8.13c6.72,3.5,11.95,8.41,15.69,14.74,3.74,6.32,5.61,13.59,5.61,21.78s-1.89,15.47-5.67,21.84c-3.78,6.37-9.11,11.3-15.99,14.8-6.88,3.5-14.78,5.25-23.69,5.25h-35.2V2.88h36.04c8.75,0,16.49,1.75,23.21,5.25ZM1548.76,65.89c3.26-1.99,5.81-4.81,7.64-8.47,1.83-3.66,2.74-7.83,2.74-12.53s-.97-8.99-2.92-12.65c-1.95-3.66-4.64-6.5-8.06-8.53-3.42-2.03-7.32-3.04-11.69-3.04h-13.72v48.21h14.8c4.22,0,7.95-.99,11.22-2.98Z"/>
          <path class="cls-3" d="M1653.83,7.18c6.88,3.74,12.29,8.87,16.23,15.39,3.94,6.52,5.91,13.84,5.91,21.96s-1.97,15.59-5.91,22.2c-3.94,6.6-9.35,11.81-16.23,15.63s-14.58,5.73-23.09,5.73-16.21-1.89-23.09-5.67c-6.88-3.78-12.29-8.99-16.23-15.63-3.94-6.64-5.91-14.06-5.91-22.26s1.97-15.43,5.91-21.96c3.94-6.52,9.35-11.65,16.23-15.39,6.88-3.74,14.58-5.61,23.09-5.61s16.21,1.87,23.09,5.61ZM1619.46,23.29c-3.54,2.15-6.35,5.11-8.41,8.89-2.07,3.78-3.1,7.94-3.1,12.47s1.05,8.81,3.16,12.59c2.11,3.78,4.91,6.76,8.41,8.95,3.5,2.19,7.32,3.28,11.46,3.28s7.94-1.09,11.4-3.28c3.46-2.19,6.19-5.17,8.17-8.95,1.99-3.78,2.98-7.97,2.98-12.59s-.99-8.69-2.98-12.47c-1.99-3.78-4.71-6.74-8.17-8.89-3.46-2.15-7.26-3.22-11.4-3.22s-7.98,1.07-11.51,3.22Z"/>
          <path class="cls-3" d="M1743.98,2.88h20.29v83.65h-19.09l-37.95-50v50h-20.41V2.88h19.21l38.07,50.36-.12-50.36Z"/>
          <path class="cls-3" d="M1780.62,2.88h65.99v17.42h-44.15v15.63h39.86v17.3l-39.86.12v15.75h45.35v17.42h-67.18V2.88Z"/>
          <path class="cls-3" d="M1904.54,21.62c-5.05-1.67-9.29-2.51-12.71-2.51-2.71,0-4.83.5-6.38,1.49-1.55,1-2.33,2.45-2.33,4.35s.67,3.36,2.03,4.59c1.35,1.23,3.02,2.23,5.01,2.98,1.99.76,4.93,1.73,8.83,2.92,5.81,1.67,10.6,3.34,14.38,5.01,3.78,1.67,7.02,4.24,9.72,7.7,2.7,3.46,4.06,7.98,4.06,13.54s-1.47,10.32-4.42,14.26c-2.94,3.94-6.98,6.9-12.11,8.89s-10.84,2.98-17.12,2.98c-6.92,0-13.82-1.21-20.7-3.64s-12.83-5.75-17.84-9.96l8.47-17.06c4.22,3.74,9.21,6.8,14.98,9.19,5.77,2.39,10.88,3.58,15.33,3.58,3.26,0,5.83-.6,7.7-1.79,1.87-1.19,2.8-2.94,2.8-5.25,0-1.91-.7-3.5-2.09-4.77-1.39-1.27-3.14-2.29-5.25-3.04-2.11-.76-5.07-1.65-8.89-2.68-5.73-1.59-10.46-3.2-14.2-4.83-3.74-1.63-6.94-4.1-9.61-7.4-2.67-3.3-4-7.7-4-13.19,0-5.17,1.37-9.71,4.12-13.6,2.74-3.9,6.64-6.9,11.69-9.01,5.05-2.11,10.92-3.16,17.6-3.16,6.04,0,12.01.86,17.9,2.57,5.89,1.71,11.06,4,15.51,6.86l-8.23,17.42c-4.46-2.63-9.21-4.77-14.26-6.44Z"/>
          <path class="cls-3" d="M1938.25,2.88h21.84v83.65h-21.84V2.88Z"/>
          <path class="cls-3" d="M2037.77,86.53l-5.73-14.8h-36.16l-5.85,14.8h-22.43l35.92-83.65h22.43l35.08,83.65h-23.27ZM2002.45,55.03h23.15l-11.46-29.83-11.69,29.83Z"/>
        </g>
        <g>
          <path class="cls-2" d="M1362.72,125.49h54.55v11.23l-27.42,58.32h-16.59l26.43-56.44h-22.95l-.1,9.74h-13.91v-22.85Z"/>
          <path class="cls-2" d="M1425.11,155.9h25.64v10.14h-25.64v-10.14Z"/>
          <path class="cls-2" d="M1504.6,129.82c4.3,3.35,6.46,7.87,6.46,13.56,0,3.05-.81,5.85-2.43,8.4-1.62,2.55-3.82,4.59-6.61,6.11,3.91,1.52,6.99,3.84,9.24,6.96,2.25,3.11,3.38,6.66,3.38,10.63s-1.13,7.68-3.38,10.73c-2.25,3.05-5.45,5.4-9.59,7.05-4.14,1.66-8.99,2.48-14.56,2.48s-10.32-.81-14.46-2.43c-4.14-1.62-7.34-3.94-9.59-6.96-2.25-3.01-3.38-6.54-3.38-10.58s1.19-7.57,3.58-10.78c2.38-3.21,5.63-5.58,9.74-7.1-3.05-1.65-5.45-3.81-7.2-6.46-1.76-2.65-2.63-5.53-2.63-8.65,0-5.5,2.15-9.87,6.46-13.11,4.3-3.25,10.1-4.87,17.39-4.87s13.28,1.67,17.59,5.02ZM1477.72,166.93c-2.22,1.66-3.33,4.04-3.33,7.15s1.11,5.53,3.33,7.25c2.22,1.72,5.35,2.58,9.39,2.58s7.19-.84,9.44-2.53c2.25-1.69,3.38-4.09,3.38-7.2s-1.13-5.51-3.38-7.2c-2.25-1.69-5.4-2.53-9.44-2.53s-7.17.83-9.39,2.48ZM1479.12,137.86c-1.89,1.49-2.83,3.59-2.83,6.31s.94,4.72,2.83,6.21c1.89,1.49,4.55,2.23,8,2.23s6.11-.73,8-2.19c1.89-1.46,2.83-3.54,2.83-6.26s-.94-4.82-2.83-6.31c-1.89-1.49-4.55-2.24-8-2.24s-6.11.75-8,2.24Z"/>
          <path class="cls-2" d="M1581.95,189.68c-4.14,4.04-9.85,6.06-17.14,6.06-9.01,0-16.59-3.61-22.75-10.83l7.25-11.13c2.38,2.52,4.88,4.44,7.5,5.76,2.62,1.33,5.02,1.99,7.2,1.99,2.65,0,4.7-.8,6.16-2.38,1.46-1.59,2.19-3.84,2.19-6.76v-33.58h-23.95v-13.31h39.74v47.3c0,7.22-2.07,12.85-6.21,16.89Z"/>
          <path class="cls-2" d="M1620.9,178.11c2.82,2.88,6.57,4.32,11.28,4.32s8.21-1.42,10.93-4.27c2.72-2.85,4.07-6.79,4.07-11.82v-40.84h15.7v40.84c0,6.1-1.24,11.38-3.73,15.85-2.48,4.47-6.05,7.92-10.68,10.33-4.64,2.42-10.1,3.63-16.4,3.63s-11.79-1.21-16.49-3.63c-4.7-2.42-8.31-5.86-10.83-10.33-2.52-4.47-3.78-9.75-3.78-15.85v-40.84h15.7v40.84c0,4.97,1.41,8.89,4.22,11.77Z"/>
          <path class="cls-2" d="M1676.99,125.49h15.7v55.84h29.81v13.71h-45.51v-69.55Z"/>
          <path class="cls-2" d="M1790.66,125.49l-25.34,47.1v22.46h-15.7v-22.06l-25.74-47.49h15.8l17.78,31.2,17.39-31.2h15.8Z"/>
          <path class="cls-2" d="M1869.64,181.93v13.12h-52.26v-10.83l25.73-26.53c2.32-2.32,4.16-4.59,5.51-6.81,1.36-2.22,2.04-4.16,2.04-5.81,0-2.19-.84-3.89-2.53-5.12-1.69-1.22-4.02-1.84-7.01-1.84s-6.16.76-9.54,2.29c-3.38,1.52-6.66,3.64-9.84,6.36l-6.16-11.72c9.14-6.82,18.41-10.23,27.82-10.23,4.64,0,8.74.75,12.32,2.24s6.36,3.58,8.35,6.26c1.99,2.68,2.98,5.81,2.98,9.39s-1.16,7.15-3.48,10.93c-2.32,3.78-5.6,7.85-9.84,12.22l-16,16.1h31.89Z"/>
          <path class="cls-2" d="M1930.55,134.04c5.23,6.09,7.85,14.84,7.85,26.23s-2.62,20.06-7.85,26.18c-5.23,6.13-12.72,9.19-22.46,9.19s-17.34-3.06-22.61-9.19c-5.27-6.13-7.9-14.86-7.9-26.18s2.63-20.14,7.9-26.23c5.27-6.09,12.8-9.14,22.61-9.14s17.22,3.05,22.46,9.14ZM1897.17,142.48c-2.32,3.71-3.48,9.64-3.48,17.79s1.16,13.99,3.48,17.74c2.32,3.74,5.96,5.61,10.93,5.61s8.41-1.87,10.73-5.61c2.32-3.74,3.48-9.65,3.48-17.74s-1.16-14.07-3.48-17.79c-2.32-3.71-5.9-5.56-10.73-5.56s-8.61,1.86-10.93,5.56Z"/>
          <path class="cls-2" d="M1999.01,181.93v13.12h-52.26v-10.83l25.73-26.53c2.32-2.32,4.16-4.59,5.51-6.81,1.36-2.22,2.04-4.16,2.04-5.81,0-2.19-.84-3.89-2.53-5.12-1.69-1.22-4.02-1.84-7.01-1.84s-6.16.76-9.54,2.29c-3.38,1.52-6.66,3.64-9.84,6.36l-6.16-11.72c9.14-6.82,18.41-10.23,27.82-10.23,4.64,0,8.74.75,12.32,2.24s6.36,3.58,8.35,6.26c1.99,2.68,2.98,5.81,2.98,9.39s-1.16,7.15-3.48,10.93c-2.32,3.78-5.6,7.85-9.84,12.22l-16,16.1h31.89Z"/>
          <path class="cls-2" d="M2045.76,138.26c-2.55-.76-5.15-1.14-7.8-1.14-5.83,0-10.2,1.84-13.12,5.51-2.92,3.68-4.31,8.76-4.17,15.25,1.79-2.72,4.14-4.78,7.05-6.21,2.91-1.42,6.32-2.14,10.23-2.14,6.82,0,12.24,2.04,16.25,6.11,4.01,4.07,6.01,9.52,6.01,16.34,0,4.84-1.04,9.04-3.13,12.62-2.09,3.58-5.02,6.33-8.79,8.25-3.78,1.92-8.18,2.88-13.22,2.88-6.03,0-11.23-1.37-15.6-4.12-4.37-2.75-7.72-6.69-10.04-11.82-2.32-5.13-3.48-11.24-3.48-18.33s1.27-13.79,3.82-19.33c2.55-5.53,6.16-9.8,10.83-12.82,4.67-3.01,10.12-4.52,16.34-4.52,3.71,0,7.54.5,11.48,1.49s7.34,2.35,10.19,4.07l-5.96,11.13c-2.05-1.39-4.36-2.47-6.91-3.23ZM2025.84,164.29c-2.19,2.09-3.25,4.72-3.18,7.9-.07,2.98.91,5.51,2.93,7.6,2.02,2.09,4.95,3.13,8.79,3.13,3.58,0,6.41-.96,8.5-2.88,2.09-1.92,3.13-4.64,3.13-8.15,0-3.31-.99-5.93-2.98-7.85-1.99-1.92-4.74-2.88-8.25-2.88-3.77,0-6.76,1.04-8.94,3.13Z"/>
          <path class="cls-2" d="M1397.18,242.01c-3.39-1.09-6.28-1.64-8.69-1.64s-4.11.42-5.46,1.26c-1.34.84-2.01,2.07-2.01,3.69,0,2.07.97,3.65,2.9,4.74,1.93,1.09,4.91,2.23,8.94,3.4,4.03,1.17,7.35,2.35,9.95,3.53,2.6,1.18,4.83,2.94,6.68,5.29,1.85,2.35,2.77,5.46,2.77,9.32s-.99,6.98-2.98,9.7-4.72,4.77-8.19,6.17c-3.47,1.4-7.42,2.1-11.84,2.1-4.76,0-9.43-.84-14.02-2.52-4.59-1.68-8.57-3.97-11.92-6.88l5.29-10.83c2.97,2.69,6.38,4.84,10.24,6.47,3.86,1.62,7.39,2.43,10.58,2.43,2.74,0,4.88-.5,6.42-1.51,1.54-1.01,2.31-2.46,2.31-4.37,0-1.51-.52-2.76-1.55-3.74-1.04-.98-2.35-1.78-3.95-2.39-1.6-.62-3.79-1.31-6.59-2.1-4.03-1.12-7.32-2.24-9.86-3.36-2.55-1.12-4.74-2.83-6.59-5.12-1.85-2.29-2.77-5.34-2.77-9.15,0-3.53.95-6.62,2.85-9.28,1.9-2.66,4.56-4.7,7.98-6.13,3.41-1.43,7.39-2.14,11.92-2.14,4.03,0,8,.59,11.92,1.76,3.92,1.17,7.39,2.74,10.41,4.7l-5.12,11c-3.02-1.85-6.23-3.32-9.61-4.41Z"/>
          <path class="cls-2" d="M1421.57,230.05h13.27v24.52h26.62v-24.52h13.27v58.77h-13.27v-23.17h-26.62v23.17h-13.27v-58.77Z"/>
          <path class="cls-2" d="M1487.65,230.05h44.75v11h-31.49v12.76h28.3v11h-28.3v13.01h32.41v11h-45.68v-58.77Z"/>
          <path class="cls-2" d="M1579.84,288.82l-9.32-16.79h-13.52v16.79h-13.27v-58.77h25.52c7.67,0,13.6,1.78,17.8,5.33,4.2,3.56,6.3,8.58,6.3,15.07,0,4.53-.94,8.41-2.81,11.63-1.88,3.22-4.6,5.67-8.19,7.35l12.51,19.4h-15.03ZM1557.01,260.95h12.26c3.69,0,6.54-.85,8.52-2.56,1.99-1.71,2.98-4.21,2.98-7.51s-.99-5.7-2.98-7.35c-1.99-1.65-4.83-2.48-8.52-2.48h-12.26v19.9Z"/>
          <path class="cls-2" d="M1647.94,288.82l-4.62-11.42h-27.2l-4.62,11.42h-13.69l25.52-58.77h13.69l25.1,58.77h-14.19ZM1620.48,266.74h18.56l-9.24-22.84-9.32,22.84Z"/>
          <path class="cls-2" d="M1656.33,230.05h49.12v11.25h-17.97v47.52h-13.27v-47.52h-17.88v-11.25Z"/>
          <path class="cls-2" d="M1752.81,233.07c4.81,2.63,8.61,6.26,11.38,10.87s4.16,9.75,4.16,15.41-1.39,10.8-4.16,15.45-6.56,8.3-11.38,10.96c-4.82,2.66-10.16,3.99-16.04,3.99s-11.22-1.33-16.04-3.99c-4.81-2.66-8.6-6.3-11.38-10.92-2.77-4.62-4.16-9.78-4.16-15.49s1.39-10.79,4.16-15.41c2.77-4.62,6.55-8.24,11.34-10.87,4.79-2.63,10.15-3.95,16.08-3.95s11.22,1.32,16.04,3.95ZM1727.87,243.19c-2.8,1.65-5.01,3.9-6.63,6.76s-2.43,5.99-2.43,9.4.83,6.63,2.48,9.49c1.65,2.86,3.86,5.12,6.63,6.8s5.78,2.52,9.03,2.52,6.23-.83,8.94-2.48c2.71-1.65,4.87-3.92,6.46-6.8,1.6-2.88,2.39-6.06,2.39-9.53s-.8-6.55-2.39-9.4-3.75-5.11-6.46-6.76c-2.72-1.65-5.7-2.48-8.94-2.48s-6.27.83-9.07,2.48Z"/>
          <path class="cls-2" d="M1817.71,230.05h12.59v58.77h-12.09l-28.46-37.78v37.78h-12.68v-58.77h12.09l28.55,37.95v-37.95Z"/>
          <path class="cls-2" d="M1902.34,259.18h11.5v22.84c-3.14,2.3-6.88,4.16-11.25,5.58-4.37,1.43-8.56,2.14-12.59,2.14-5.88,0-11.2-1.33-15.95-3.99-4.76-2.66-8.51-6.3-11.25-10.92s-4.11-9.78-4.11-15.49,1.4-10.79,4.2-15.41c2.8-4.62,6.65-8.24,11.54-10.87,4.9-2.63,10.34-3.95,16.33-3.95,4.37,0,8.63.78,12.8,2.35,4.17,1.57,7.77,3.69,10.79,6.38l-7.47,9.49c-2.18-2.07-4.7-3.69-7.56-4.87-2.86-1.18-5.71-1.76-8.56-1.76-3.42,0-6.54.83-9.36,2.48-2.83,1.65-5.05,3.89-6.68,6.72-1.62,2.83-2.43,5.98-2.43,9.45s.83,6.65,2.48,9.53c1.65,2.88,3.89,5.15,6.72,6.8,2.83,1.65,5.95,2.48,9.36,2.48,1.73,0,3.61-.29,5.63-.88,2.01-.59,3.98-1.39,5.88-2.39v-15.7Z"/>
          <path class="cls-2" d="M1961.54,288.82l-9.32-16.79h-13.52v16.79h-13.27v-58.77h25.52c7.67,0,13.6,1.78,17.8,5.33,4.2,3.56,6.3,8.58,6.3,15.07,0,4.53-.94,8.41-2.81,11.63-1.88,3.22-4.6,5.67-8.19,7.35l12.51,19.4h-15.03ZM1938.7,260.95h12.26c3.69,0,6.54-.85,8.52-2.56,1.99-1.71,2.98-4.21,2.98-7.51s-.99-5.7-2.98-7.35c-1.99-1.65-4.83-2.48-8.52-2.48h-12.26v19.9Z"/>
          <path class="cls-2" d="M2029.63,288.82l-4.62-11.42h-27.2l-4.62,11.42h-13.69l25.52-58.77h13.69l25.1,58.77h-14.19ZM2002.18,266.74h18.56l-9.24-22.84-9.32,22.84Z"/>
          <path class="cls-2" d="M2090.59,230.05h12.59v58.77h-12.09l-28.46-37.78v37.78h-12.68v-58.77h12.09l28.55,37.95v-37.95Z"/>
          <path class="cls-2" d="M2157.09,233.78c4.7,2.49,8.35,5.96,10.96,10.41,2.6,4.45,3.9,9.53,3.9,15.24s-1.33,10.79-3.99,15.24c-2.66,4.45-6.37,7.92-11.13,10.41-4.76,2.49-10.19,3.74-16.29,3.74h-24.43v-58.77h24.94c5.99,0,11.34,1.25,16.04,3.74ZM2150.16,275.34c2.6-1.54,4.63-3.68,6.09-6.42,1.45-2.74,2.18-5.88,2.18-9.4s-.77-6.69-2.31-9.49c-1.54-2.8-3.64-4.97-6.3-6.51-2.66-1.54-5.67-2.31-9.03-2.31h-11.42v36.44h12.01c3.25,0,6.17-.77,8.77-2.31Z"/>
          <path class="cls-2" d="M1395,378.06c-3.5,3.42-8.33,5.12-14.48,5.12-7.61,0-14.02-3.05-19.23-9.15l6.13-9.4c2.01,2.13,4.13,3.75,6.34,4.87,2.21,1.12,4.24,1.68,6.09,1.68,2.24,0,3.97-.67,5.2-2.01,1.23-1.34,1.85-3.25,1.85-5.71v-28.38h-20.24v-11.25h33.59v39.97c0,6.1-1.75,10.86-5.25,14.27Z"/>
          <path class="cls-2" d="M1453.81,382.6l-4.62-11.42h-27.2l-4.62,11.42h-13.69l25.52-58.77h13.69l25.1,58.77h-14.19ZM1426.36,360.51h18.56l-9.24-22.84-9.32,22.84Z"/>
          <path class="cls-2" d="M1528.63,382.6h-15.87l-16.96-24.1-8.4,9.32v14.78h-13.27v-58.77h13.27v27.37l24.35-27.37h15.45l-22.17,24.43,23.59,34.34Z"/>
          <path class="cls-2" d="M1579.42,382.6l-4.62-11.42h-27.2l-4.62,11.42h-13.69l25.52-58.77h13.69l25.1,58.77h-14.19ZM1551.97,360.51h18.56l-9.24-22.84-9.32,22.84Z"/>
          <path class="cls-2" d="M1635.85,382.6l-9.32-16.79h-13.52v16.79h-13.27v-58.77h25.52c7.67,0,13.6,1.78,17.8,5.33,4.2,3.56,6.3,8.58,6.3,15.07,0,4.53-.94,8.41-2.81,11.63-1.88,3.22-4.6,5.67-8.19,7.35l12.51,19.4h-15.03ZM1613.01,354.72h12.26c3.69,0,6.54-.85,8.52-2.56,1.99-1.71,2.98-4.21,2.98-7.51s-.99-5.7-2.98-7.35c-1.99-1.65-4.83-2.48-8.52-2.48h-12.26v19.9Z"/>
          <path class="cls-2" d="M1654.74,323.82h49.12v11.25h-17.97v47.52h-13.27v-47.52h-17.88v-11.25Z"/>
          <path class="cls-2" d="M1748.27,382.6l-4.62-11.42h-27.2l-4.62,11.42h-13.69l25.52-58.77h13.69l25.1,58.77h-14.19ZM1720.82,360.51h18.56l-9.24-22.84-9.32,22.84Z"/>
        </g>
      </g>
    </g>
  </g>
</svg>