<?xml version="1.0" encoding="UTF-8"?>
<svg id="Layer_2" data-name="Layer 2" xmlns="http://www.w3.org/2000/svg" viewBox="0 0 1307.32 246.55">
  <defs>
    <style>
      .cls-1 {
        fill: #c0f43c;
      }

      .cls-2 {
        fill: #fff;
      }

      .cls-3 {
        fill: #00a5a3;
      }

      .cls-4 {
        fill: #1b9ad6;
      }

      .cls-5 {
        opacity: .99;
      }
    </style>
  </defs>
  <g id="Layer_1-2" data-name="Layer 1">
    <g>
      <g class="cls-5">
        <path class="cls-2" d="M843.43,5.18c-1.27-.56-2.57-.84-3.91-.84-1.77,0-3.39.43-4.88,1.29-1.48.86-2.65,2.02-3.51,3.49-.86,1.47-1.29,3.09-1.29,4.86s.43,3.36,1.29,4.84c.86,1.48,2.03,2.65,3.51,3.51s3.11,1.29,4.88,1.29c1.31,0,2.6-.27,3.87-.81,1.27-.54,2.39-1.27,3.37-2.2l2.08,2.26c-1.27,1.24-2.74,2.22-4.41,2.92s-3.37,1.06-5.09,1.06c-2.39,0-4.58-.57-6.56-1.7-1.98-1.13-3.55-2.68-4.7-4.64-1.15-1.96-1.72-4.12-1.72-6.49s.58-4.49,1.74-6.43,2.74-3.48,4.75-4.61c2.01-1.12,4.22-1.68,6.63-1.68,1.74,0,3.43.33,5.07.99,1.64.66,3.05,1.58,4.25,2.78l-2.04,2.47c-.96-1-2.07-1.79-3.33-2.35Z"/>
        <path class="cls-2" d="M865.67,8.75c1.47.81,2.62,1.94,3.44,3.39.82,1.45,1.24,3.1,1.24,4.96s-.41,3.53-1.24,4.98c-.82,1.46-1.97,2.59-3.44,3.41-1.47.81-3.15,1.22-5.04,1.22s-3.6-.41-5.07-1.22c-1.47-.81-2.62-1.94-3.44-3.39s-1.24-3.11-1.24-5,.41-3.52,1.24-4.96c.82-1.45,1.97-2.57,3.44-3.39,1.47-.81,3.16-1.22,5.07-1.22s3.57.41,5.04,1.22ZM857.32,11.29c-.97.57-1.72,1.37-2.26,2.38-.54,1.02-.81,2.17-.81,3.46s.27,2.49.81,3.51c.54,1.03,1.29,1.82,2.26,2.38.97.56,2.07.84,3.32.84s2.31-.28,3.28-.84c.97-.56,1.72-1.36,2.26-2.38.54-1.03.81-2.2.81-3.51s-.27-2.44-.81-3.46c-.54-1.02-1.29-1.81-2.26-2.38s-2.06-.86-3.28-.86-2.35.29-3.32.86Z"/>
        <path class="cls-2" d="M875.19,0h3.33v26.6h-3.33V0Z"/>
        <path class="cls-2" d="M898.15,8.75c1.47.81,2.62,1.94,3.44,3.39.82,1.45,1.24,3.1,1.24,4.96s-.41,3.53-1.24,4.98c-.82,1.46-1.97,2.59-3.44,3.41-1.47.81-3.15,1.22-5.04,1.22s-3.6-.41-5.07-1.22c-1.47-.81-2.62-1.94-3.44-3.39s-1.24-3.11-1.24-5,.41-3.52,1.24-4.96c.82-1.45,1.97-2.57,3.44-3.39,1.47-.81,3.16-1.22,5.07-1.22s3.57.41,5.04,1.22ZM889.79,11.29c-.97.57-1.72,1.37-2.26,2.38-.54,1.02-.81,2.17-.81,3.46s.27,2.49.81,3.51c.54,1.03,1.29,1.82,2.26,2.38.97.56,2.07.84,3.32.84s2.31-.28,3.28-.84c.97-.56,1.72-1.36,2.26-2.38.54-1.03.81-2.2.81-3.51s-.27-2.44-.81-3.46c-.54-1.02-1.29-1.81-2.26-2.38s-2.06-.86-3.28-.86-2.35.29-3.32.86Z"/>
        <path class="cls-2" d="M915.37,10.5c-1.24,0-2.35.27-3.32.82-.97.55-1.73,1.33-2.28,2.33s-.82,2.16-.82,3.48.27,2.47.81,3.48c.54,1,1.28,1.79,2.22,2.35.94.56,2.02.84,3.24.84s2.32-.2,3.3-.61c.98-.41,1.79-.99,2.44-1.76l1.9,1.94c-.86,1.08-1.95,1.9-3.28,2.47s-2.83.86-4.5.86c-1.84,0-3.48-.41-4.91-1.22-1.43-.81-2.55-1.94-3.35-3.39s-1.2-3.1-1.2-4.96.4-3.52,1.2-4.98c.8-1.46,1.92-2.59,3.35-3.41,1.43-.81,3.07-1.22,4.91-1.22,1.6,0,3.04.25,4.32.73,1.28.49,2.35,1.2,3.21,2.13l-1.83,2.29c-1.51-1.46-3.31-2.19-5.41-2.19Z"/>
        <path class="cls-2" d="M938.28,26.6v-2.65c-1.41,1.86-3.62,2.8-6.63,2.8-1.31,0-2.47-.25-3.46-.75-.99-.5-1.76-1.19-2.29-2.08-.54-.88-.81-1.88-.81-2.98,0-1.7.63-3.04,1.88-4.03,1.25-.99,3-1.5,5.25-1.52h6.02v-.9c0-1.34-.41-2.37-1.24-3.1-.82-.73-2.03-1.09-3.6-1.09-1.91,0-3.86.68-5.84,2.04l-1.4-2.29c1.36-.88,2.62-1.52,3.78-1.92,1.16-.39,2.54-.59,4.14-.59,2.37,0,4.19.58,5.48,1.74,1.29,1.16,1.95,2.78,1.97,4.86l.04,12.47h-3.3ZM936.29,22.85c1.09-.75,1.74-1.75,1.95-2.99v-1.9h-5.56c-1.51,0-2.62.23-3.35.68-.73.45-1.09,1.17-1.09,2.15s.37,1.76,1.11,2.33c.74.57,1.73.86,2.98.86,1.55,0,2.87-.38,3.96-1.13Z"/>
        <path class="cls-2" d="M957.71,25.34c-1.46.93-2.94,1.4-4.45,1.4s-2.72-.45-3.66-1.34c-.93-.9-1.4-2.25-1.4-4.07v-10.5h-2.69v-2.54h2.69V3.19h3.37v5.09h5.81v2.54h-5.81v9.89c0,1.05.19,1.8.57,2.26s.96.68,1.72.68c.91,0,1.89-.3,2.94-.9l.9,2.58Z"/>
        <path class="cls-2" d="M975.77,10.13c1.51,1.73,2.26,4.14,2.26,7.22,0,.48-.01.84-.04,1.08h-14.98c.26,1.7.97,3.05,2.13,4.05,1.16,1,2.59,1.51,4.28,1.51,1.12,0,2.17-.2,3.14-.61.97-.41,1.81-.98,2.53-1.72l1.83,1.9c-.93,1-2.06,1.78-3.37,2.33-1.31.55-2.77.82-4.37.82-1.86,0-3.52-.4-4.96-1.2-1.45-.8-2.57-1.93-3.37-3.39-.8-1.46-1.2-3.12-1.2-4.98s.4-3.52,1.2-4.96c.8-1.45,1.92-2.58,3.35-3.41,1.43-.82,3.07-1.24,4.91-1.24,2.94,0,5.16.87,6.67,2.6ZM975.02,15.84c-.1-1.72-.67-3.08-1.72-4.07s-2.44-1.49-4.16-1.49-3.06.5-4.18,1.51-1.77,2.35-1.99,4.05h12.04Z"/>
        <path class="cls-2" d="M1000.25,0v26.6h-3.33v-3.76c-.72,1.27-1.68,2.24-2.89,2.92-1.21.68-2.61,1.02-4.21,1.02-1.79,0-3.38-.41-4.75-1.24-1.37-.82-2.44-1.97-3.21-3.44-.77-1.47-1.15-3.15-1.15-5.04s.38-3.52,1.15-4.96c.76-1.45,1.83-2.58,3.21-3.39,1.37-.81,2.95-1.22,4.71-1.22,1.63,0,3.05.34,4.27,1,1.22.67,2.17,1.64,2.87,2.9V0h3.33ZM993.82,23.05c.97-.57,1.73-1.37,2.28-2.4s.82-2.19.82-3.48-.27-2.49-.82-3.51c-.55-1.03-1.31-1.83-2.28-2.4-.97-.57-2.07-.86-3.32-.86s-2.35.29-3.32.88c-.97.59-1.73,1.39-2.28,2.42-.55,1.03-.82,2.19-.82,3.48s.27,2.45.82,3.48,1.31,1.83,2.28,2.4c.97.57,2.07.86,3.32.86s2.35-.29,3.32-.86Z"/>
        <path class="cls-2" d="M1013.19,7.64h3.48l5.31,15.67,5.23-15.67h3.48l5.27,15.67,5.23-15.67h3.44l-6.99,18.96h-3.48l-5.23-14.91-5.23,14.91h-3.48l-7.03-18.96Z"/>
        <path class="cls-2" d="M1050.89.68c.39.41.59.92.59,1.54s-.2,1.14-.59,1.54c-.39.41-.89.61-1.49.61s-1.09-.2-1.49-.61c-.39-.41-.59-.92-.59-1.54s.2-1.13.59-1.54c.39-.41.89-.61,1.49-.61s1.09.2,1.49.61ZM1047.75,7.64h3.33v18.96h-3.33V7.64Z"/>
        <path class="cls-2" d="M1067.75,25.34c-1.46.93-2.94,1.4-4.45,1.4s-2.72-.45-3.66-1.34c-.93-.9-1.4-2.25-1.4-4.07v-10.5h-2.69v-2.54h2.69V3.19h3.37v5.09h5.81v2.54h-5.81v9.89c0,1.05.19,1.8.57,2.26s.96.68,1.72.68c.91,0,1.89-.3,2.94-.9l.9,2.58Z"/>
        <path class="cls-2" d="M1087.79,9.48c1.27,1.3,1.9,3.1,1.9,5.39v11.72h-3.33v-10.83c0-1.6-.45-2.85-1.34-3.75-.9-.9-2.13-1.34-3.71-1.34-1.84.02-3.3.65-4.37,1.86-1.08,1.22-1.61,2.8-1.61,4.73v9.32h-3.33V0h3.33v11.72c1.27-2.75,3.68-4.15,7.24-4.19,2.22,0,3.97.65,5.23,1.95Z"/>
      </g>
      <g>
        <path class="cls-4" d="M27.4,74.58L0,9.24h19.38l15.52,38.61,4.97,11.95,6.76,17.3-.15.37c-.37.74-.89,1.19-1.49,1.63-.22.22-.52.45-.82.67h-.15c-1.78,1.41-3.56,1.93-6.39,1.93s-5.05-.59-6.76-1.86l-.15-.15c-1.56-1.56-2.75-3.34-3.49-5.27h0l.15.15Z"/>
        <path class="cls-4" d="M48.86,73.69l-8.02-19.75L58.81,14.36c.89-2.15,2.15-4.01,3.64-4.97,1.71-1.26,3.56-1.78,6.31-1.78s5.05.59,6.76,1.86c1.41.97,2.75,2.75,3.64,4.97l15.67,35.94,11.66,28.96h-1.11s-.22.3-.45.52h-.07c-1.78,1.41-3.56,1.93-6.39,1.93s-5.05-.59-6.39-1.86c-1.78-1.34-3.12-3.12-4.01-5.27l-19.38-42.7-19.83,41.8h0v-.07h0Z"/>
        <path class="cls-4" d="M108.34,75.25l-8.84-21.31,19.01-44.7h19.16l-.67,1.41c-.82,1.63-2.08,4.08-3.27,7.65h0c-.82,1.71-1.63,3.34-2.45,5.05-.89,2-1.93,4.01-2.97,6.16-1.63,4.01-3.56,8.32-5.79,13.22-1.71,4.6-3.79,8.76-5.79,12.77-1.49,4.01-3.04,7.8-4.9,11.58-.82,2.52-1.71,4.6-2.52,6.24l-.97,1.86h0v.07h0Z"/>
      </g>
      <path class="cls-4" d="M486.21,76.81h.15c3.12-1.19,6.31-2.52,8.54-4.31h0c2.08-2.15,3.42-4.6,4.38-7.95.74-2.52,1.71-6.53,1.71-11.43v-21.9c0-3.42-.52-6.98-1.71-10.99-.89-3.71-2.38-6.24-4.46-7.87-2-2-4.83-3.34-8.69-4.38-3.42-.82-7.65-1.26-12.99-1.26h-55.84v15.15h55.47c1.11,0,2.23.07,3.19.22.74.07,1.41.15,2,.15,1.56.37,2.6,1.19,3.19,1.78.74.74,1.49,1.93,1.86,2.9.37,1.56.37,3.12.37,5.05v20.64c0,1.93,0,3.49-.3,4.97-.3.45-.52.97-.74,1.41-.3.59-.59,1.19-.97,1.56-1.04.74-2.15,1.41-3.12,1.41h-.22c-1.63.45-3.19.82-5.12.82h-37.87V24.98h-17.6v53.16h55.84c5.35,0,9.65-.37,12.99-1.26h-.15l.07-.07h0Z"/>
      <path class="cls-4" d="M333.47,56.98c-.07-.97-.22-1.93-.22-2.97V7.6h17.15v45.96c0,1.56.37,3.49.74,4.6v.3c0,.37,0,.45.15.59l1.63,1.63h-19.31v-.97c0-.97-.07-1.86-.15-2.75h0Z"/>
      <path class="cls-4" d="M333.25,63.44h68.61v14.85h-42.84c-4.83,0-9.06-.37-12.85-1.26h-.07c-3.56-1.34-6.01-2.67-7.95-4.23h-.07c-2.3-2.38-3.94-5.05-4.75-7.8v-1.56h-.07Z"/>
      <path class="cls-4" d="M196.18,22.75h-53.54l1.86-1.86c.89-3.56,2.3-6.01,4.38-7.65,2-2,4.75-3.34,8.69-4.38,3.42-.82,7.65-1.26,12.99-1.26h26.06c5.35,0,9.65.37,12.99,1.26,3.94.97,6.68,2.38,8.69,4.38,2.08,1.71,3.49,4.23,4.38,7.87.82,2.9,1.26,6.76,1.26,10.99v21.9c0,4.6-.45,8.46-1.26,11.43-.97,3.34-2.3,5.79-4.38,7.87h-.07c-2.23,1.86-5.42,3.19-8.54,4.38h-.07c-3.42.89-7.65,1.34-12.99,1.34h-26.06c-5.35,0-9.58-.37-12.99-1.26h-.07c-3.12-1.19-6.24-2.52-8.54-4.31h-.07c-2.08-2.15-3.42-4.6-4.38-7.95-.82-2.97-1.26-6.83-1.26-11.43v-28.22h17.6v2c-.37,1.56-.37,3.12-.37,5.12v20.64c0,2,0,3.56.37,5.12.37,1.49.67,2.15,1.41,2.82.59.59,1.63,1.34,3.19,1.78.74,0,1.49.15,2.3.15.97.15,2.08.22,3.34.22h25.17c1.11,0,2.23-.15,3.19-.22.74,0,1.41-.15,2-.15,1.56-.37,2.6-1.19,3.19-1.78.82-.82,1.49-1.49,1.78-2.82.37-1.56.37-3.12.37-5.12v-20.64c0-2,0-3.56-.37-5.05-.3-.97-1.04-2.15-1.86-2.9-.59-.59-1.63-1.41-3.19-1.78-.59,0-1.26-.07-2-.15-.97-.07-2.15-.22-3.19-.22h0v-.15h0Z"/>
      <path class="cls-4" d="M254.17,78.96h-17.15V25.42h17.15v16.56h37.05c1.34,0,2.52-.15,3.64-.22.89,0,1.71-.15,2.45-.15,1.49-.37,2.6-.74,3.34-1.11.97-.67,1.26-1.26,1.63-2.38v-.15c.37-.67.74-2.15.74-4.16v-3.71c0-1.26-.22-2.6-.74-4.16-.37-.74-.67-1.34-1.71-2-.74-.37-1.86-.74-3.34-1.11-.74,0-1.56-.07-2.45-.15-1.04-.07-2.3-.22-3.64-.22h-54.2V7.6h55.1c5.2,0,9.36.45,12.47.82h.07c4.16.89,6.91,1.78,9.06,3.49,2.15,1.71,3.94,3.94,5.2,6.53h0c0,.07.07.15.07.15.89,3.04,1.26,6.46,1.26,10.54v4.97c0,4.68-.52,7.87-1.71,10.25-.89,2.6-2.67,4.83-5.27,6.61-2.15,1.71-4.9,2.6-9.06,3.49h-.07c-1.11.15-2.38.3-3.94.45l21.16,23.91h-22.35l-21.24-23.54h-23.69v23.54h0l.15.15h0Z"/>
      <g>
        <rect class="cls-4" x="368" y="150.02" width="17.6" height="24.58"/>
        <polygon class="cls-4" points="434.45 131.46 385.6 131.46 385.6 103.39 368 103.39 368 147.05 434.45 147.05 434.45 174.67 451.61 174.67 451.61 103.39 434.45 103.39 434.45 131.46"/>
        <path class="cls-4" d="M539.74,109.03c-2-2-4.83-3.34-8.69-4.38-3.42-.82-7.65-1.26-12.99-1.26h-26.06c-5.35,0-9.65.37-12.99,1.26-3.94.97-6.68,2.38-8.69,4.38-2.08,1.63-3.42,4.08-4.38,7.65l-1.86,1.86h53.54c1.11,0,2.23.07,3.19.22.74.07,1.41.15,2,.15,1.56.37,2.6,1.19,3.19,1.78.74.82,1.49,1.93,1.86,2.9.37,1.56.37,3.12.37,5.05v20.64c0,2,0,3.56-.37,5.12-.37,1.41-1.04,2.08-1.78,2.82-.59.59-1.63,1.41-3.19,1.78-.59,0-1.26.07-2,.15-.97.07-2.15.22-3.19.22h-25.17c-1.34,0-2.38-.07-3.34-.22-.82-.07-1.56-.15-2.3-.15-1.56-.37-2.6-1.19-3.19-1.78-.67-.67-1.04-1.41-1.41-2.82-.37-1.56-.37-3.12-.37-5.12v-20.64c0-2,0-3.64.37-5.12v-2h-17.6v28.22c0,4.6.45,8.46,1.26,11.43.97,3.34,2.38,5.79,4.38,7.87h0c2.23,1.86,5.42,3.19,8.54,4.38h.15c3.42.89,7.65,1.34,12.99,1.34h26.06c5.35,0,9.65-.37,12.99-1.26h.15c3.12-1.19,6.31-2.52,8.54-4.31h0c2-2.08,3.42-4.6,4.38-7.95.82-2.97,1.26-6.83,1.26-11.43v-21.9c0-4.31-.45-8.02-1.26-10.99-.89-3.71-2.38-6.24-4.46-7.87h.07Z"/>
        <path class="cls-4" d="M353.67,141.55c-.82-2-2-3.79-3.94-5.64h-.07c-1.56-1.26-3.79-2.67-6.98-3.12-2.52-.82-5.87-1.26-9.73-1.26h-32.6c-2.15,0-3.64-.3-4.75-1.04-.59-.59-.89-2-.89-3.79v-5.05h-15.96v5.49c0,3.27,0,5.87.82,8.09.45,2.67,1.86,4.53,3.04,6.09h.07c0,.07.07.15.07.15,2.23,1.71,4.38,2.67,6.53,3.04,2.52.82,5.87,1.26,9.73,1.26h33.04c2.23,0,4.08.37,5.2,1.04,1.11,1.11,1.71,2.15,1.71,4.23v3.71c0,1.63-.59,3.04-1.63,3.79-1.04.67-2.9,1.11-5.27,1.11h-53.83v15.15h54.65c3.86,0,7.28-.45,9.8-1.26,3.27-.97,5.27-1.86,6.91-3.04h.07c1.49-1.56,2.97-3.34,3.94-6.24.82-2.15,1.26-5.05,1.26-8.61v-5.35c0-3.27-.37-5.94-1.26-8.54h0v-.15h0l.07-.07h0Z"/>
        <path class="cls-4" d="M289.81,104.2h-.15c-2.75.97-4.83,2.3-6.16,4.01-1.71,1.34-2.97,3.34-3.94,6.16v.3c0,.22-.07.59-.15.97-.07.52-.22,1.19-.22,1.93v.97h75.81v-15.15h-55.84c-3.49,0-6.98.45-9.28.82h-.07Z"/>
        <path class="cls-4" d="M631.97,108.73c-.89-2.15-2.23-4.01-3.64-4.9-1.71-1.26-3.79-1.86-6.76-1.86s-4.6.52-6.31,1.86c-1.41.97-2.75,2.75-3.64,4.9l-17.89,39.58,8.02,19.75,19.83-41.8,19.38,42.7c.89,2.15,2.23,4.01,4.01,5.27,1.34,1.26,3.34,1.86,6.39,1.86s4.6-.52,6.39-1.86h.15c.15-.3.3-.45.45-.59h1.11l-11.66-29.03-15.67-35.94h0l-.15.07h0Z"/>
        <path class="cls-4" d="M652.31,148.31l8.84,21.31.97-1.86c.82-1.63,1.63-3.71,2.52-6.24,1.86-3.71,3.49-7.5,4.97-11.58,2-4.01,4.08-8.17,5.79-12.77,2.23-4.83,4.16-9.21,5.79-13.22,1.11-2.15,2.08-4.23,2.97-6.16.82-1.78,1.63-3.42,2.38-4.97h0c1.26-3.71,2.45-6.16,3.27-7.8l.67-1.41h-19.16l-19.01,44.7h0Z"/>
        <path class="cls-4" d="M587.79,142.22l-15.52-38.54h-19.45l27.4,65.27c.74,1.93,1.93,3.71,3.49,5.27h.15c1.71,1.34,3.86,1.93,6.76,1.93s4.6-.52,6.39-1.86h.15c.22-.3.52-.52.82-.74.52-.45,1.11-.89,1.49-1.63l.15-.37-6.76-17.3-4.97-11.95h0c0-.07,0,0,0,0l-.07-.07Z"/>
      </g>
      <g>
        <path class="cls-4" d="M55.62,208.23h81.68l-15.74-25.32h-50.94l29.85-48.04,16.19,26.51,37.65,61.18,9.8,16.34h36.83l-77.3-123.56c-2.75-4.6-5.2-7.57-8.17-9.8-3.64-2.75-8.84-4.23-14.92-4.23s-10.47,1.49-14.11,4.16c-3.71,2.75-6.83,6.16-8.98,9.73L0,238.82h36.83l18.86-30.59h-.07Z"/>
        <rect class="cls-4" x="225.58" y="104.35" width="31.63" height="134.47"/>
      </g>
      <g>
        <path class="cls-1" d="M683.95,205.23c-3.6,0-6.54-2.93-6.54-6.53s2.93-6.53,6.54-6.53,6.53,2.93,6.53,6.53-2.93,6.53-6.53,6.53Z"/>
        <path class="cls-2" d="M679.66,238.3c-4.26,0-9.34-1.8-9.34-10.32v-11.8c0-4.33-2.34-6.83-6.41-6.83s-6.97,2.89-6.97,7.19v21.41h-10.45v-37.48h10.45v2.9c2.3-2.28,5.72-3.61,9.57-3.61,8.8,0,14.27,5.83,14.27,15.24v11.16c0,2.69.46,2.69,1.36,2.69.33,0,.67-.05.99-.13l1.24-.25v9.12l-.75.21c-1.08.31-2.38.46-3.95.46h0v.02h0Z"/>
        <path class="cls-2" d="M638.03,205.1c-3.93-3.79-8.78-5.7-14.44-5.7s-10.5,1.92-14.45,5.7c-3.95,3.79-5.95,8.54-5.95,14.09s2,10.3,5.95,14.1c3.95,3.79,8.78,5.7,14.45,5.7s10.5-1.92,14.44-5.7c3.95-3.79,5.94-8.54,5.94-14.1s-2-10.3-5.94-14.09ZM630.68,226.4c-1.93,1.92-4.23,2.86-7.06,2.86s-5.21-.93-7.13-2.85c-1.89-2.02-2.81-4.38-2.81-7.21s.92-5.2,2.81-7.14c1.9-1.96,4.23-2.92,7.13-2.92s5.15.96,7.06,2.93c1.93,1.92,2.86,4.25,2.86,7.13s-.95,5.22-2.86,7.21v-.02.02Z"/>
        <path class="cls-2" d="M589.72,238.93c-5.7,0-10.55-1.89-14.44-5.63-3.9-3.75-5.88-8.51-5.88-14.16s1.97-10.36,5.88-14.1c3.93-3.79,8.8-5.7,14.44-5.7,5.95,0,10.98,2.17,14.97,6.45l.67.72-6.64,6.91-.75-.79c-2.13-2.3-5.13-3.58-8.25-3.54-2.83,0-5.15.93-7.06,2.85-1.85,1.92-2.79,4.32-2.79,7.2s.95,5.3,2.8,7.21c1.92,1.92,4.21,2.85,7.05,2.85,3.25,0,6.03-1.2,8.24-3.54l.75-.79,6.65,6.91-.67.72c-3.98,4.28-9.03,6.45-14.97,6.45v-.02h-.02.02Z"/>
        <path class="cls-2" d="M552.55,238.86c-7.38,0-13.06-2.82-15.56-7.74l-.38-.72,6.96-5.87.64,1.01c1.56,2.44,4.8,3.96,8.47,3.96,1.59,0,5.29-.27,5.29-2.82,0-.99-1.04-1.65-1.48-1.88l-.06-.04c-.67-.42-2.11-.9-3.07-1.22l-1.03-.33c-1.11-.35-2.46-.79-3.38-1.16-6.49-2.33-9.39-5.71-9.39-10.95,0-3.57,1.34-6.45,3.97-8.55,2.69-2.06,5.9-3.11,9.59-3.11,5.28,0,9.39,1.88,12.29,5.6l.55.71-6.15,6.52-.75-.96c-1.33-1.68-3.37-2.54-6.06-2.54-1.49,0-3.25.56-3.25,2.11,0,.67.26,1.01,1.14,1.58.19.13.82.45,2.64,1.14.97.26,2.59.85,3.88,1.29l.56.21c7.05,2.49,10.19,6.05,10.19,11.52,0,7.58-5.97,12.28-15.6,12.28v-.03h0,0Z"/>
        <path class="cls-2" d="M532.11,204.93c-3.41-3.63-7.89-5.46-13.36-5.46s-10.41,1.83-14.09,5.44c-3.66,3.65-5.51,8.47-5.51,14.3v.29c0,5.8,1.87,10.51,5.54,14.03,3.65,3.5,8.47,5.28,14.3,5.28,6.21,0,11.47-2.23,15.66-6.65l.72-.75-6.55-6.35-.72.72c-2.52,2.52-5.42,3.76-8.83,3.76-5.28,0-8.83-2.72-9.54-7.19h27.38l.07-.96c.08-.98.15-1.96.15-3.03,0-5.31-1.75-9.83-5.21-13.43h-.03,0ZM510.02,214.36c.38-1.38,1.21-2.59,2.56-3.6,1.74-1.35,3.82-2.04,6.18-2.04,2.18,0,4,.67,5.59,2.07,1.21,1.02,1.96,2.22,2.21,3.57h-16.54Z"/>
        <path class="cls-2" d="M485.63,237.94h-10.45v-37.48h10.45v2.95c2.24-2.33,5.6-3.65,9.51-3.65,1.04,0,1.97.08,2.74.23l.84.16v10.28l-1.24-.24c-1.09-.21-2.21-.33-3.31-.33-5.26,0-8.52,3.23-8.52,8.44v19.64h-.02Z"/>
        <path class="cls-2" d="M466.58,238.92c-8.18,0-12.51-4.51-12.51-13.06v-15.68h-4.44v-9.74h4.44v-13.56h10.54v13.56h7.82v9.74h-7.82v14.76c0,3.57,1.13,4.22,3.38,4.22,1.09,0,1.96-.08,2.72-.26l1.28-.29v9.65l-.8.19c-1.26.3-2.82.46-4.6.46h0v.02Z"/>
        <path class="cls-2" d="M395.95,227.86v-25.18h11.88c1.71,0,3.21.29,4.47.86,1.28.57,2.28,1.39,3,2.45.72,1.04,1.08,2.23,1.08,3.6,0,1.11-.29,2.13-.87,3.05-.54.91-1.31,1.65-2.27,2.23,1.23.57,2.21,1.35,2.93,2.34.72.98,1.08,2.1,1.08,3.34,0,1.43-.37,2.71-1.13,3.82-.72,1.11-1.75,1.96-3.11,2.59-1.33.6-2.86.9-4.63.9h-12.47,0ZM401.19,212.97h6.33c1.14,0,2.03-.26,2.67-.79.68-.54,1.02-1.28,1.02-2.2s-.34-1.63-1.02-2.15c-.65-.54-1.54-.83-2.67-.83h-6.33v5.97ZM401.19,223.55h6.83c1.21,0,2.16-.29,2.89-.86.72-.6,1.08-1.39,1.08-2.38s-.36-1.79-1.08-2.37c-.72-.6-1.69-.9-2.89-.9h-6.83v6.52-.02h0Z"/>
        <path class="cls-2" d="M427.17,227.86v-9.63l-10.34-15.54h6.04l7.08,10.93,7.13-10.93h5.71l-10.37,15.58v9.6h-5.25Z"/>
      </g>
      <rect class="cls-2" x="756.91" y="8.32" width="1.49" height="238.22"/>
      <g>
        <g>
          <path class="cls-2" d="M883.18,79.23h-47.24v16.83h42.69v9.63h-42.69v23.48h-10.95v-59.13h58.19v9.22h0v-.03Z"/>
          <path class="cls-2" d="M902.91,129.2h-10.95v-59.16h10.95v59.16Z"/>
          <path class="cls-2" d="M988.45,129.2h-11.4l-46.88-45.14v45.14h-11.48v-59.16h11.67l46.55,44.09v-44.09h11.56v59.16h-.03Z"/>
          <path class="cls-2" d="M1072.39,129.2h-12.72l-7.01-13.49h-36.56l-6.84,13.49h-11.84l30.19-59.16h13.93l30.85,59.16h0ZM1020.35,106.68h28.31l-14.1-27.1-14.21,27.1h0Z"/>
          <path class="cls-2" d="M1150.75,129.2h-11.4l-46.88-45.14v45.14h-11.48v-59.16h11.67l46.55,44.09v-44.09h11.56v59.16h-.03Z"/>
          <path class="cls-2" d="M1222.17,90.54c-2.7-7.28-11.4-12.72-22.35-12.72s-24.89,8.22-24.89,21.74,9.55,21.83,24.81,21.83,18.93-4.91,22.19-12l9.46,4.3c-4.75,11.12-15.42,17.44-32.42,17.44s-35.4-11.48-35.4-31.57,16.64-31.46,36.26-31.46,27.43,7.81,31.9,17.52l-9.55,4.91h0Z"/>
          <path class="cls-2" d="M1306.05,79.42h-51.38v14.65h45.5v9.46h-45.5v15.42h52.51v10.26h-63.46v-59.19h62.33v9.38h0Z"/>
        </g>
        <g>
          <g>
            <path class="cls-3" d="M992.67,208.81h-57.48v-8.58c2.59-4.47,6.18-7.62,9.85-10.07,17.08-11.34,39.21-8.64,39.21-17.88s-6.13-7.62-14.16-7.62c-12.75,0-23.48,3.95-29.97,8.06l-3.81-7.89c6.26-3.81,17.22-7.97,35.35-7.97s22.3,6.04,22.3,15.65-8.2,12.67-21.69,15.81c-8.89,2.15-19.76,4.64-24.67,12.09h45.12v8.42h-.06Z"/>
            <path class="cls-3" d="M1035.03,210.43c-17.83,0-29.83-12.09-29.83-26.85s12-26.77,29.83-26.77,29.91,12,29.91,26.77-11.92,26.85-29.91,26.85ZM1034.95,164.22c-12.39,0-20.42,8.64-20.42,19.32s8.06,19.37,20.42,19.37,20.42-8.72,20.42-19.37-8.06-19.32-20.42-19.32Z"/>
            <path class="cls-3" d="M1121.31,192.08h9.16v7.97h-9.16v8.72h-8.8v-8.72h-39.51v-8.89l36.45-32.73h11.87v33.64h0ZM1082.82,192.08h29.69v-26.54l-29.69,26.54Z"/>
            <path class="cls-3" d="M1195.51,166.45h-43.46l-2.01,13.27c4.08-2.37,12.31-4.17,21.16-4.17s25.8,1.93,25.8,17.22-15.59,17.66-28.12,17.66-27.37-2.76-31.4-6.57l3.81-7.62c3.12,2.98,19.67,6.35,27.12,6.35s19.4-1.63,19.4-9.91-9.11-9.91-17.88-9.91-15.51,1.71-21.03,4.33l-8.42-.36,4.91-28.34h50.11v8.06h0v-.03Z"/>
          </g>
          <path class="cls-3" d="M1289.94,231.93h-447.7c-9.6,0-17.41-7.81-17.41-17.41v-36.34c0-9.6,7.81-17.41,17.41-17.41h74.58v4.36h-74.58c-7.2,0-13.08,5.85-13.08,13.08v36.34c0,7.2,5.85,13.08,13.08,13.08h447.67c7.2,0,13.08-5.85,13.08-13.08v-36.34c0-7.2-5.85-13.08-13.08-13.08h-74.58v-4.36h74.58c9.6,0,17.41,7.81,17.41,17.41v36.34c0,9.6-7.81,17.41-17.41,17.41h.03Z"/>
        </g>
      </g>
    </g>
  </g>
</svg>